<?xml version="1.0" encoding="utf-8"?>
<!-- Generator: Adobe Illustrator 24.0.0, SVG Export Plug-In . SVG Version: 6.00 Build 0)  -->
<svg version="1.1" id="Capa_1" xmlns="http://www.w3.org/2000/svg" xmlns:xlink="http://www.w3.org/1999/xlink" x="0px" y="0px"
	 viewBox="0 0 540 70" style="enable-background:new 0 0 540 70;" xml:space="preserve">
<style type="text/css">
	.st0{fill:#FF857B;}
</style>
<g>
	<path class="st0" d="M40.5,30.99c-1.5-7.58-7.57-11.4-15-11.4c-12.75,0-18.15,10.5-18.15,21.67c0,12.22,5.4,22.42,18.22,22.42
		c9.37,0,14.77-6.6,15.45-15.45h7.12c-1.35,13.35-9.67,21.45-23.17,21.45c-16.65,0-24.75-12.3-24.75-27.9
		c0-15.52,8.85-28.2,25.35-28.2c11.17,0,20.4,6,22.05,17.4H40.5z"/>
	<path class="st0" d="M117.75,49.36c-1.8,1.5-3.84,2.69-6.11,3.56c-2.28,0.88-4.84,1.31-7.69,1.31c-1.4,0-2.65-0.17-3.75-0.53
		c-1.7,2-3.59,3.96-5.66,5.89c-2.08,1.93-4.31,3.63-6.71,5.1c-2.4,1.47-4.94,2.66-7.61,3.56c-2.68,0.9-5.46,1.35-8.36,1.35
		c-2.3,0-4.33-0.39-6.08-1.16c-1.75-0.78-3.2-1.85-4.35-3.23c-1.15-1.37-2.02-3-2.63-4.88s-0.9-3.89-0.9-6.04
		c0-4.25,1.04-8.45,3.11-12.6c2.07-4.15,4.77-7.92,8.1-11.32c3.32-3.4,7.04-6.23,11.14-8.48c4.1-2.25,8.17-3.6,12.22-4.05
		c1.1-0.95,2.33-1.79,3.68-2.51c1.35-0.72,3.07-1.09,5.17-1.09c1.35,0,2.6,0.31,3.75,0.94s2.14,1.5,2.96,2.63
		c0.83,1.13,1.47,2.49,1.95,4.09c0.47,1.6,0.71,3.38,0.71,5.33c0,2.2-0.25,4.45-0.75,6.75c-0.5,2.3-1.2,4.56-2.1,6.79
		c-0.9,2.23-1.95,4.36-3.15,6.41c-1.2,2.05-2.5,3.93-3.9,5.63c0.6,0.15,1.19,0.28,1.76,0.38c0.57,0.1,1.14,0.15,1.69,0.15
		c1.75,0,3.26-0.15,4.54-0.45c1.28-0.3,2.42-0.68,3.45-1.13c1.02-0.45,1.96-0.95,2.81-1.5c0.85-0.55,1.67-1.08,2.48-1.58
		L117.75,49.36z M68.4,55.81c0,1.4,0.17,2.79,0.52,4.16c0.35,1.38,0.9,2.61,1.65,3.71c0.75,1.1,1.7,1.99,2.85,2.66
		c1.15,0.67,2.5,1.01,4.05,1.01c2,0,3.92-0.49,5.77-1.46c1.85-0.97,3.57-2.22,5.17-3.75c1.6-1.52,3.06-3.19,4.39-4.99
		c1.32-1.8,2.46-3.52,3.41-5.17c-3.15-1.75-5.73-3.95-7.72-6.6c-2-2.65-3-6.03-3-10.13c0-3.55,0.59-6.66,1.76-9.34
		c1.17-2.67,2.64-4.96,4.39-6.86l-0.15-0.15c-2.8,0.6-5.58,2.08-8.33,4.42c-2.75,2.35-5.23,5.24-7.42,8.66
		c-2.2,3.42-3.98,7.21-5.33,11.36C69.08,47.51,68.4,51.66,68.4,55.81z M89.25,33.31c0,4.15,0.64,7.81,1.91,10.99
		c1.28,3.18,3.09,5.44,5.44,6.79c1.85-4.2,3.31-8.32,4.39-12.38c1.08-4.05,1.61-8.37,1.61-12.97c0-2.85-0.45-5.15-1.35-6.9
		c-0.9-1.75-2.1-2.63-3.6-2.63c-0.7,0-1.39,0.16-2.06,0.49c-0.68,0.33-1.29,0.71-1.84,1.16c1.9,0.1,3.41,0.73,4.54,1.88
		c1.13,1.15,1.69,2.68,1.69,4.58c0,1.3-0.19,2.44-0.56,3.41c-0.38,0.98-0.84,2.04-1.39,3.19l-0.83-0.3c0.6-1.3,1.06-2.44,1.39-3.41
		c0.32-0.98,0.49-1.86,0.49-2.66c0-1.7-0.52-3.09-1.57-4.16c-1.05-1.08-2.5-1.61-4.35-1.61c-1.45,1.8-2.46,3.94-3.04,6.41
		C89.54,27.65,89.25,30.36,89.25,33.31z"/>
	<path class="st0" d="M115.28,14.86h7.57l28.2,43.42h0.15V14.86h6.75v53.55h-7.8l-27.97-42.97h-0.15v42.97h-6.75V14.86z"/>
	<path class="st0" d="M181.65,20.86H163.8v-6h42.82v6h-17.85v47.55h-7.13V20.86z"/>
	<path class="st0" d="M220.2,14.86h7.87L249,68.41h-7.88l-5.85-16.12h-22.65l-6,16.12h-7.35L220.2,14.86z M214.88,46.29h18.15
		l-8.92-24.97h-0.15L214.88,46.29z M225.98,0.31h8.17l-9.83,10.72h-4.8L225.98,0.31z"/>
	<path class="st0" d="M291.9,30.99c-1.5-7.58-7.57-11.4-15-11.4c-12.75,0-18.15,10.5-18.15,21.67c0,12.22,5.4,22.42,18.22,22.42
		c9.37,0,14.77-6.6,15.45-15.45h7.13c-1.35,13.35-9.68,21.45-23.17,21.45c-16.65,0-24.75-12.3-24.75-27.9
		c0-15.52,8.85-28.2,25.35-28.2c11.17,0,20.4,6,22.05,17.4H291.9z"/>
	<path class="st0" d="M320.55,20.86H302.7v-6h42.82v6h-17.85v47.55h-7.13V20.86z"/>
	<path class="st0" d="M429.3,14.86c-2.3,2.25-4.64,4.72-7.01,7.42c-2.38,2.7-4.68,5.5-6.9,8.4c-2.23,2.9-4.31,5.86-6.26,8.89
		c-1.95,3.03-3.65,6-5.1,8.92c-1.45,2.92-2.6,5.74-3.45,8.44c-0.85,2.7-1.28,5.2-1.28,7.5c0,1.35,0.27,2.3,0.82,2.85
		c0.55,0.55,1.15,0.83,1.8,0.83c1.75,0,3.6-0.65,5.55-1.95c1.95-1.3,3.9-2.92,5.85-4.88c1.95-1.95,3.85-4.05,5.7-6.3
		s3.53-4.32,5.03-6.22l0.53,0.52c-1.7,2.15-3.39,4.24-5.06,6.26c-1.68,2.03-3.49,4.04-5.44,6.04c-1,1.05-2.06,2.06-3.19,3.04
		c-1.13,0.97-2.33,1.83-3.6,2.55c-1.27,0.73-2.64,1.31-4.09,1.76c-1.45,0.45-3.03,0.67-4.73,0.67c-2.65,0-4.75-0.63-6.3-1.88
		c-1.55-1.25-2.33-3.17-2.33-5.78c0-1.5,0.16-2.97,0.49-4.42c0.32-1.45,0.75-2.87,1.28-4.27c0.53-1.4,1.11-2.79,1.76-4.16
		c0.65-1.37,1.3-2.69,1.95-3.94h-10.05c-2.3,2.45-4.75,5.08-7.35,7.88c-2.6,2.8-5.35,5.39-8.25,7.76c-2.9,2.38-5.95,4.34-9.15,5.89
		c-3.2,1.55-6.55,2.33-10.05,2.33c-3.75,0-6.65-0.84-8.7-2.51c-2.05-1.67-3.07-3.84-3.07-6.49c0-0.65,0.1-1.31,0.3-1.99
		c0.2-0.67,0.53-1.3,0.98-1.88c0.45-0.57,1.01-1.05,1.69-1.42s1.49-0.56,2.44-0.56c1,0,1.97,0.33,2.92,0.98
		c0.95,0.65,1.43,1.78,1.43,3.38c0,1.2-0.39,2.13-1.16,2.77c-0.78,0.65-1.59,0.98-2.44,0.98c0.1,1.6,0.83,2.8,2.17,3.6
		c1.35,0.8,3.03,1.2,5.03,1.2c2.95,0,5.95-0.77,9-2.33c3.05-1.55,6-3.49,8.85-5.81s5.56-4.82,8.14-7.5
		c2.58-2.67,4.86-5.14,6.86-7.39c1-1.1,2.29-2.5,3.86-4.2c1.57-1.7,3.4-3.54,5.47-5.51c2.07-1.97,4.38-4,6.9-6.08
		c2.52-2.07,5.22-4.05,8.1-5.92c2.88-1.88,5.92-3.56,9.15-5.06c3.22-1.5,6.59-2.65,10.09-3.45L429.3,14.86z M395.77,44.26
		c2.55-4.55,5.56-8.85,9.04-12.9s7.14-7.88,10.99-11.47l-0.15-0.15c-2.75,1.3-5.49,2.92-8.21,4.88s-5.35,4.04-7.88,6.26
		c-2.53,2.23-4.94,4.5-7.24,6.83c-2.3,2.32-4.43,4.51-6.38,6.56H395.77z"/>
	<path class="st0" d="M429.9,14.86h9.75l16.88,45l16.95-45h9.75v53.55h-6.75V23.86h-0.15L459.6,68.41h-6.07L436.8,23.86h-0.15v44.55
		h-6.75V14.86z"/>
	<path class="st0" d="M502.57,14.86h36.97v6H509.7v17.02h27.82v6H509.7v18.52h30.07v6h-37.2V14.86z"/>
</g>
</svg>
