<?xml version="1.0" encoding="utf-8"?>
<!-- Generator: Adobe Illustrator 24.0.0, SVG Export Plug-In . SVG Version: 6.00 Build 0)  -->
<svg version="1.1" id="Capa_1" xmlns="http://www.w3.org/2000/svg" xmlns:xlink="http://www.w3.org/1999/xlink" x="0px" y="0px"
	 viewBox="0 0 98 62" style="enable-background:new 0 0 98 62;" xml:space="preserve">
<style type="text/css">
	.st0{fill:#FFFFFF;}
</style>
<g>
	<g>
		<path class="st0" d="M5.85,13.15c-3.07,0-5.58-2.5-5.58-5.57C0.27,4.5,2.77,2,5.85,2c3.07,0,5.57,2.5,5.57,5.57
			C11.42,10.65,8.92,13.15,5.85,13.15z M5.85,3C3.32,3,1.27,5.05,1.27,7.58c0,2.52,2.05,4.57,4.58,4.57c2.52,0,4.57-2.05,4.57-4.57
			C10.42,5.05,8.37,3,5.85,3z"/>
	</g>
	<g>
		<path class="st0" d="M24.83,61.5c-6.07,0-10.75-2.92-13.9-8.68c-2.44-4.46-3.84-10.67-3.84-17.03c0-7.11,1.95-14.76,5.35-20.99
			c2.78-5.09,7.83-11.57,16.1-13.52c1.64-0.38,3.34-0.58,5.06-0.58c4.96,0,9.86,1.62,13.82,4.55c2.24,1.67,4.9,2.55,7.7,2.55
			c2.68,0,4.94-0.67,6.9-2.06L63.05,5c3.53-2.52,6.32-4.5,10.93-4.5c6.07,0,10.75,2.92,13.9,8.69c2.44,4.46,3.84,10.67,3.84,17.03
			v18.19c0,4.98,1.95,9.62,5.49,13.08c0.5,0.49,0.65,1.22,0.39,1.86c-0.26,0.64-0.85,1.04-1.53,1.04c-5.58,0-10.48-3.34-12.51-8.51
			l-0.08-0.2l-0.13,0.17c-3.65,4.7-8.04,7.69-13.08,8.87c-6.43,1.51-13.49,0.03-18.88-3.97c-3.13-2.33-7.15-3.12-10.5-2.08
			c-2.06,0.64-3.9,1.89-5.68,3.1c-0.87,0.59-1.65,1.12-2.44,1.58C30.39,60.75,27.64,61.5,24.83,61.5z M33.59,1.7
			c-1.64,0-3.26,0.19-4.83,0.55C20.86,4.11,16,10.36,13.32,15.27C10,21.36,8.09,28.84,8.09,35.78c0,6.2,1.35,12.23,3.72,16.55
			c2.96,5.42,7.35,8.17,13.02,8.17c2.63,0,5.2-0.7,7.44-2.02c0.77-0.45,1.53-0.97,2.34-1.51c1.89-1.28,3.79-2.57,5.99-3.26
			c3.65-1.13,8.01-0.27,11.39,2.24c5.15,3.83,11.9,5.25,18.05,3.8c4.8-1.13,9.01-3.99,12.51-8.51l1.21-1.56l0.72,1.84
			c1.88,4.78,6.41,7.88,11.54,7.88c0.44,0,0.6-0.32,0.64-0.41c0.09-0.21,0.09-0.53-0.16-0.77c-3.73-3.65-5.79-8.54-5.79-13.79V26.22
			c0-6.2-1.35-12.23-3.72-16.55C84.04,4.25,79.66,1.5,73.98,1.5c-4.29,0-6.97,1.91-10.35,4.32l-1.04,0.74
			C60.45,8.07,58,8.8,55.11,8.8c-3.01,0-5.88-0.95-8.3-2.74C43.03,3.25,38.34,1.7,33.59,1.7z M29.15,54.04
			c-5.87,0-10.65-4.78-10.65-10.65c0-3.62,1.82-6.96,4.87-8.94c2.42-1.96,5.42-3.03,8.33-4.06c0.65-0.23,1.31-0.46,1.96-0.71
			c7.17-2.68,12.97-5.79,17.72-9.5c1.75-1.36,3.32-3,4.83-4.58c3.6-3.76,7.33-7.64,13.47-7.64c5.87,0,10.65,4.78,10.65,10.65
			c0,3.62-1.82,6.96-4.87,8.94c-2.42,1.96-5.42,3.03-8.32,4.06c-0.66,0.23-1.31,0.47-1.96,0.71c-9.9,3.7-17.57,8.71-24.12,15.75
			C37.26,52.14,33.47,54.04,29.15,54.04z M69.67,8.96c-5.72,0-9.13,3.56-12.75,7.33c-1.54,1.61-3.13,3.27-4.94,4.68
			C47.15,24.75,41.26,27.9,34,30.62c-0.65,0.24-1.31,0.48-1.97,0.71c-2.95,1.05-5.74,2.04-8.07,3.93c-2.81,1.82-4.46,4.85-4.46,8.13
			c0,5.32,4.33,9.65,9.65,9.65c4.03,0,7.58-1.8,11.17-5.66h0c6.66-7.16,14.45-12.24,24.5-16c0.66-0.25,1.32-0.48,1.98-0.71
			c2.95-1.05,5.74-2.04,8.07-3.92c2.81-1.82,4.46-4.85,4.46-8.13C79.32,13.29,74.99,8.96,69.67,8.96z M63.51,53.37
			c-1.85,0-3.79-0.41-5.2-1.55c-1.27-1.02-1.91-2.45-1.91-4.25c0-4.36,4.64-5.98,6.87-6.75c3.93-1.36,8.07-2.93,11.76-5.16
			c0.2-0.12,0.4-0.25,0.6-0.39c0.74-0.5,1.58-1.06,2.61-1.06c1.68,0,3.05,1.37,3.05,3.05c0.07,0.69-0.12,1.46-0.3,2.12
			c-0.76,2.75-2.46,4.99-3.86,6.63c-0.25,0.29-0.5,0.58-0.76,0.87c-2.99,3.3-6.39,5.38-10.08,6.19
			C65.44,53.25,64.49,53.37,63.51,53.37z M78.23,35.21c-0.72,0-1.37,0.43-2.05,0.89c-0.21,0.14-0.43,0.29-0.64,0.41
			c-3.77,2.27-7.97,3.86-11.95,5.24c-3.22,1.12-6.2,2.59-6.2,5.8c0,1.48,0.52,2.65,1.54,3.47c1.89,1.52,5.02,1.52,7.13,1.06
			c3.49-0.77,6.71-2.75,9.56-5.89c0.25-0.28,0.5-0.56,0.74-0.84c1.33-1.56,2.95-3.68,3.66-6.25l0,0c0.16-0.57,0.32-1.23,0.27-1.81
			C80.28,36.13,79.36,35.21,78.23,35.21z M20.58,27.79c-1.67,0-3.04-1.35-3.05-3.03c-0.07-0.74,0.12-1.49,0.3-2.15
			c0.76-2.75,2.46-4.99,3.86-6.63c0.25-0.29,0.5-0.58,0.76-0.86c2.99-3.3,6.38-5.38,10.08-6.19c2.43-0.53,5.81-0.49,7.97,1.25
			c1.27,1.02,1.91,2.45,1.91,4.25c0,4.36-4.64,5.97-6.87,6.75c-3.93,1.36-8.07,2.93-11.76,5.16c-0.2,0.12-0.4,0.25-0.6,0.39
			C22.45,27.23,21.61,27.79,20.58,27.79z M35.28,9.64c-0.91,0-1.79,0.11-2.54,0.27c-3.49,0.77-6.71,2.75-9.56,5.89
			c-0.25,0.28-0.5,0.56-0.74,0.84c-1.33,1.56-2.95,3.69-3.66,6.25c-0.16,0.57-0.32,1.23-0.26,1.81l0,0.05
			c0,1.13,0.92,2.05,2.05,2.05c0.72,0,1.37-0.43,2.05-0.89c0.21-0.14,0.43-0.29,0.64-0.41c3.77-2.27,7.97-3.86,11.95-5.24
			c3.22-1.12,6.2-2.6,6.2-5.81c0-1.48-0.52-2.65-1.54-3.47C38.66,9.99,36.93,9.64,35.28,9.64z"/>
	</g>
</g>
</svg>
