<?xml version="1.0" encoding="utf-8"?>
<!-- Generator: Adobe Illustrator 24.0.0, SVG Export Plug-In . SVG Version: 6.00 Build 0)  -->
<svg version="1.1" id="Capa_1" xmlns="http://www.w3.org/2000/svg" xmlns:xlink="http://www.w3.org/1999/xlink" x="0px" y="0px"
	 viewBox="0 0 306 120" style="enable-background:new 0 0 306 120;" xml:space="preserve">
<style type="text/css">
	.st0{fill:#F8F4F2;}
</style>
<g>
	<g>
		<path class="st0" d="M2.3,27.87c0-17.26,18.08-26.95,31.88-26.95c12.65,0,13.48,1.48,31.06,1.48
			c-8.87,15.28-12.98,28.1-13.48,45.03c-11.01-28.27-24.16-31.88-30.4-31.88c-3.94,0-5.26,8.38-5.26,12.33
			c0,18.08,27.77,22.68,27.77,32.05c0,2.63-2.14,3.78-6.08,3.78c-7.56,0-15.28-4.44-23.01-4.44c-3.94,0-6.08,1.15-6.08,4.44
			c0,11.34,27.28,37.64,39.77,37.64c3.94,0,5.26-2.47,5.26-6.41c0-5.92-4.6-15.12-10.19-23.99c9.7-1.64,19.06-4.77,25.8-9.04
			c-2.47,50.78-27.61,53.08-35.5,57.19C15.28,109.71,0,86.21,0,69.12c0-11.01,6.25-14.3,13.48-14.3c8.71,0,19.39,4.6,23.34,4.6
			c1.15,0,1.81-0.33,1.81-0.82C38.62,54.49,2.3,42.98,2.3,27.87"/>
		<path class="st0" d="M126.22,91.47c0-25.31-18.41-78.56-36.98-78.56c-3.62,0-5.26,6.08-5.26,15.12
			c0,25.97,13.97,76.42,36.32,76.42C123.42,104.45,126.22,98.53,126.22,91.47 M80.86,59.75c0-19.89-4.6-38.79-14.13-57.36
			c4.93,1.15,9.04,1.64,12.82,1.64c5.42,0,10.35-0.99,17.09-3.29c20.05,0,40.43,22.68,40.43,58.51c0,35.5-12.33,55.71-32.54,59.82
			c-8.55-2.3-14.96-3.29-21.69-3.29c-4.93,0-10.03,0.49-16.27,1.64C76.09,98.7,80.86,79.14,80.86,59.75"/>
		<path class="st0" d="M142.97,27.87c0-17.26,18.08-26.95,31.88-26.95c12.65,0,13.48,1.48,31.06,1.48
			c-8.87,15.28-12.98,28.1-13.47,45.03c-11.01-28.27-24.16-31.88-30.4-31.88c-3.94,0-5.26,8.38-5.26,12.33
			c0,18.08,27.77,22.68,27.77,32.05c0,2.63-2.14,3.78-6.08,3.78c-7.56,0-15.28-4.44-23.01-4.44c-3.94,0-6.08,1.15-6.08,4.44
			c0,11.34,27.28,37.64,39.77,37.64c3.94,0,5.26-2.47,5.26-6.41c0-5.92-4.6-15.12-10.19-23.99c9.7-1.64,19.06-4.77,25.8-9.04
			c-2.46,50.78-27.61,53.08-35.5,57.19c-18.57-9.37-33.86-32.87-33.86-49.96c0-11.01,6.25-14.3,13.48-14.3
			c8.71,0,19.39,4.6,23.34,4.6c1.15,0,1.81-0.33,1.81-0.82C179.3,54.49,142.97,42.98,142.97,27.87"/>
		<path class="st0" d="M272.15,119.08c-35.34,0-15.28-82.34-39.44-82.34c-1.81,0-4.27,6.41-4.27,17.59
			c0,14.13,3.94,36.16,17.91,63.11c-7.56-1.64-13.81-2.47-19.72-2.47c-5.92,0-11.83,0.82-19.56,2.47
			c10.19-17.75,16.11-38.13,16.11-57.52s-5.92-39.77-16.11-57.52c2.79,0,11.34-1.64,16.43-1.64c35.34,0,15.12,82.34,39.44,82.34
			c1.81,0,4.44-6.41,4.44-17.75c0-14.13-3.94-36.16-17.91-62.95c7.72,1.64,13.64,2.47,19.56,2.47c5.92,0,12.16-0.83,19.72-2.47
			c-10.19,17.75-16.11,38.13-16.11,57.52s5.91,39.77,16.11,57.52C285.95,117.43,277.24,119.08,272.15,119.08"/>
		<path class="st0" d="M301,113.94c-0.69,0.58-1.51,0.86-2.46,0.86c-0.7,0-1.33-0.12-1.89-0.36s-1.04-0.57-1.44-0.99
			c-0.4-0.42-0.7-0.91-0.91-1.49c-0.21-0.58-0.32-1.2-0.32-1.87c0-0.68,0.1-1.31,0.31-1.89c0.21-0.58,0.5-1.07,0.88-1.48
			c0.38-0.41,0.85-0.73,1.42-0.97c0.56-0.23,1.19-0.35,1.89-0.35c0.99,0,1.83,0.26,2.55,0.79c0.71,0.53,1.15,1.3,1.31,2.33h-1.3
			c-0.11-0.58-0.38-1.05-0.83-1.43c-0.44-0.37-1.02-0.56-1.72-0.56c-0.51,0-0.95,0.09-1.34,0.27c-0.39,0.18-0.72,0.43-0.98,0.75
			c-0.26,0.32-0.46,0.69-0.59,1.12c-0.14,0.42-0.21,0.88-0.21,1.38c0,0.48,0.07,0.94,0.22,1.37c0.14,0.44,0.35,0.82,0.62,1.15
			c0.28,0.33,0.61,0.59,1,0.79c0.39,0.2,0.83,0.3,1.32,0.3c0.7,0,1.27-0.19,1.7-0.59c0.44-0.39,0.71-0.89,0.8-1.51h1.31
			C302.15,112.58,301.69,113.37,301,113.94 M292.43,112.68c0.32,0.8,0.77,1.5,1.34,2.09c0.57,0.59,1.24,1.05,2.01,1.39
			c0.78,0.33,1.61,0.5,2.51,0.5c0.89,0,1.72-0.17,2.49-0.5c0.77-0.34,1.44-0.8,2-1.39c0.57-0.59,1.02-1.29,1.34-2.09
			c0.32-0.8,0.48-1.67,0.48-2.62c0-0.92-0.16-1.77-0.48-2.57c-0.32-0.79-0.77-1.48-1.34-2.06c-0.57-0.58-1.24-1.04-2-1.37
			c-0.77-0.34-1.6-0.51-2.49-0.51c-0.9,0-1.74,0.17-2.51,0.51c-0.77,0.34-1.44,0.79-2.01,1.37c-0.57,0.58-1.02,1.27-1.34,2.06
			c-0.32,0.8-0.48,1.65-0.48,2.57C291.95,111,292.11,111.88,292.43,112.68 M291.17,107.04c0.41-0.93,0.97-1.74,1.68-2.43
			c0.7-0.68,1.53-1.22,2.47-1.61c0.94-0.39,1.93-0.58,2.98-0.58c1.06,0,2.05,0.19,2.98,0.58c0.93,0.39,1.75,0.93,2.45,1.61
			c0.7,0.69,1.25,1.49,1.66,2.43c0.41,0.93,0.61,1.94,0.61,3.02c0,1.11-0.2,2.13-0.61,3.07c-0.41,0.94-0.97,1.75-1.66,2.44
			c-0.7,0.69-1.52,1.23-2.45,1.61s-1.92,0.58-2.98,0.58c-1.05,0-2.05-0.19-2.98-0.58c-0.94-0.38-1.76-0.92-2.47-1.61
			c-0.71-0.69-1.27-1.51-1.68-2.44c-0.41-0.94-0.61-1.96-0.61-3.07C290.55,108.98,290.76,107.97,291.17,107.04"/>
	</g>
</g>
</svg>
