<?xml version="1.0" encoding="utf-8"?>
<!-- Generator: Adobe Illustrator 24.0.0, SVG Export Plug-In . SVG Version: 6.00 Build 0)  -->
<svg version="1.1" id="Capa_1" xmlns="http://www.w3.org/2000/svg" xmlns:xlink="http://www.w3.org/1999/xlink" x="0px" y="0px"
	 viewBox="0 0 62 62" style="enable-background:new 0 0 62 62;" xml:space="preserve">
<style type="text/css">
	.st0{fill:#FFFFFF;}
</style>
<g>
	<path class="st0" d="M61.93,31.13c0,4.3,0.01,8.6,0,12.91c-0.02,8.97-5.98,16.17-14.78,17.85c-0.99,0.19-2.01,0.25-3.01,0.26
		c-8.65,0.03-17.29,0.06-25.94,0.05C9.73,62.17,2.69,56.79,0.62,48.73c-0.37-1.44-0.57-2.97-0.58-4.45C0,35.25-0.05,26.22,0.1,17.2
		C0.24,8.81,7.14,1.4,15.47,0.4c0.79-0.1,1.59-0.16,2.39-0.16c8.65-0.03,17.29-0.06,25.94-0.06c8.45,0,15.52,5.38,17.57,13.44
		c0.41,1.6,0.55,3.29,0.58,4.95c0.08,4.18,0.03,8.37,0.03,12.55C61.96,31.13,61.95,31.13,61.93,31.13z M31.01,6.23
		c0-0.03,0-0.07,0-0.1c-4.16,0-8.32,0-12.48,0c-0.12,0-0.24-0.01-0.35,0c-0.82,0.06-1.65,0.04-2.46,0.18
		c-5.93,1.08-9.9,5.81-9.91,11.84c-0.02,8.67,0,17.35,0.02,26.02c0,0.8,0.03,1.61,0.17,2.39c1.07,5.93,5.7,9.9,11.73,9.94
		c8.9,0.06,17.81,0.04,26.71,0.02c2.59-0.01,4.96-0.79,7.02-2.37c3.15-2.43,4.71-5.67,4.72-9.63c0.02-8.27,0-16.55-0.01-24.82
		c0-0.96-0.03-1.93-0.09-2.89c-0.35-5.42-5.21-10.37-10.62-10.54C40.64,6.11,35.82,6.23,31.01,6.23z"/>
	<path class="st0" d="M30.95,47.44c-8.86-0.01-16.06-7.25-16.05-16.13c0.02-8.86,7.27-16.08,16.13-16.06
		c8.86,0.02,16.06,7.26,16.05,16.14C47.07,40.25,39.83,47.44,30.95,47.44z M41.36,31.35c0-5.72-4.62-10.35-10.35-10.36
		c-5.73-0.01-10.35,4.59-10.36,10.34c-0.01,5.72,4.63,10.37,10.34,10.38C36.69,41.71,41.35,37.05,41.36,31.35z"/>
	<path class="st0" d="M51.34,14.64c0.01,2.11-1.69,3.84-3.77,3.84c-2.05,0-3.77-1.71-3.78-3.77c-0.01-2.1,1.7-3.84,3.78-3.84
		C49.63,10.87,51.33,12.58,51.34,14.64z"/>
</g>
</svg>
