<?xml version="1.0" encoding="utf-8"?>
<!-- Generator: Adobe Illustrator 24.0.0, SVG Export Plug-In . SVG Version: 6.00 Build 0)  -->
<svg version="1.1" id="Capa_1" xmlns="http://www.w3.org/2000/svg" xmlns:xlink="http://www.w3.org/1999/xlink" x="0px" y="0px"
	 viewBox="0 0 62 62" style="enable-background:new 0 0 62 62;" xml:space="preserve">
<style type="text/css">
	.st0{fill:#FFFFFF;}
</style>
<path class="st0" d="M57.22,0C39.74,0,22.26,0,4.78,0C2.14,0,0,2.14,0,4.78c0,17.48,0,34.96,0,52.44C0,59.86,2.14,62,4.78,62
	c17.48,0,34.96,0,52.44,0c2.64,0,4.78-2.14,4.78-4.78c0-17.48,0-34.96,0-52.44C62,2.14,59.86,0,57.22,0z M17.42,52.97
	c-2.6-0.03-5.21-0.02-7.81,0c-0.45,0-0.58-0.11-0.58-0.57c0.01-9.54,0.01-19.09,0-28.63c0-0.44,0.14-0.53,0.55-0.52
	c2.62,0.02,5.25,0.02,7.87,0c0.49,0,0.64,0.1,0.64,0.62c-0.02,4.74-0.01,9.48-0.01,14.23s-0.01,9.48,0.01,14.23
	C18.1,52.86,17.94,52.97,17.42,52.97z M13.62,18.79c-3-0.01-5.37-2.36-5.36-5.31c0-2.92,2.39-5.27,5.34-5.27
	c2.94,0,5.29,2.4,5.28,5.39C18.86,16.51,16.54,18.8,13.62,18.79z M52.3,52.97c-2.56-0.03-5.13-0.03-7.69,0
	c-0.54,0.01-0.71-0.11-0.71-0.68c0.02-4.98,0.02-9.97,0.01-14.95c0-0.95-0.09-1.9-0.37-2.81c-1.29-4.19-5.07-4.69-7.97-3.18
	c-2.1,1.1-3.03,2.98-3.24,5.26c-0.04,0.42-0.04,0.85-0.04,1.27c0,4.8-0.01,9.61,0.01,14.41c0,0.51-0.1,0.69-0.66,0.68
	c-2.58-0.03-5.17-0.03-7.75,0c-0.52,0.01-0.67-0.11-0.67-0.65c0.02-9.49,0.01-18.97,0.01-28.46c0-0.06,0.01-0.12,0-0.18
	c-0.05-0.35,0.11-0.43,0.44-0.43c2.54,0.01,5.09,0.02,7.63,0c0.41,0,0.46,0.16,0.45,0.5c-0.02,1.01-0.01,2.02,0,3.03
	c0,0.19-0.07,0.4,0.11,0.63c0.85-1.37,2.03-2.36,3.41-3.08c4.3-2.24,8.6-2.5,12.79,0.22c2.66,1.72,4,4.34,4.59,7.39
	c0.22,1.11,0.28,2.24,0.28,3.37c0,5.67-0.01,11.34,0.01,17.01C52.97,52.84,52.83,52.97,52.3,52.97z"/>
</svg>
