<?xml version="1.0" encoding="utf-8"?>
<!-- Generator: Adobe Illustrator 24.0.0, SVG Export Plug-In . SVG Version: 6.00 Build 0)  -->
<svg version="1.1" id="Capa_1" xmlns="http://www.w3.org/2000/svg" xmlns:xlink="http://www.w3.org/1999/xlink" x="0px" y="0px"
	 viewBox="0 0 572 123" style="enable-background:new 0 0 572 123;" xml:space="preserve">
<style type="text/css">
	.st0{fill:#5EADC7;}
	.st1{fill:#FF857B;}
</style>
<g>
	<g>
		<path class="st0" d="M0.32,9.7h6.5l11.25,30l11.3-30h6.5v35.7h-4.5V15.7h-0.1L20.12,45.4h-4.05L4.92,15.7h-0.1v29.7h-4.5V9.7z"/>
		<path class="st0" d="M47.62,0h5.45l-6.55,7.15h-3.2L47.62,0z M43.97,9.7h4.75v35.7h-4.75V9.7z"/>
	</g>
	<g>
		<path class="st1" d="M0,67.34h7.13v53.55H0V67.34z"/>
		<path class="st1" d="M23.55,67.34h7.58l28.2,43.42h0.15V67.34h6.75v53.55h-7.8L30.45,77.92H30.3v42.97h-6.75V67.34z"/>
		<path class="st1" d="M113.25,83.02c-0.83-7.65-5.92-10.95-13.28-10.95c-6,0-12,2.17-12,9.15c0,6.6,8.55,7.58,17.17,9.52
			c8.55,1.95,17.1,4.95,17.1,15.45c0,11.4-11.17,15.97-20.92,15.97c-12,0-22.12-5.85-22.12-18.9h6.75c0,9,7.5,12.9,15.6,12.9
			c6.45,0,13.57-2.03,13.57-9.75c0-7.35-8.55-8.63-17.1-10.5s-17.17-4.35-17.17-14.17c0-10.88,9.67-15.67,19.42-15.67
			c10.95,0,19.27,5.17,19.72,16.95H113.25z"/>
		<path class="st1" d="M135.37,67.34h23.47c10.65,0,16.42,5.92,16.42,15.82s-5.77,15.9-16.42,15.82H142.5v21.9h-7.13V67.34z
			 M142.5,92.99h13.95c8.03,0.08,11.7-3.45,11.7-9.82s-3.67-9.82-11.7-9.82H142.5V92.99z"/>
		<path class="st1" d="M188.77,67.34h7.12v53.55h-7.12V67.34z"/>
		<path class="st1" d="M239.62,80.69c0.05,0.5,0.1,1.03,0.15,1.58c0.05,0.55,0.07,1.1,0.07,1.65c0,2.55-0.4,5.03-1.2,7.43
			c-0.8,2.4-1.96,4.54-3.49,6.41s-3.39,3.38-5.59,4.5c-2.2,1.13-4.68,1.69-7.42,1.69c-1.7,0-3.29-0.25-4.76-0.75
			c-1.48-0.5-2.78-1.24-3.9-2.21c-1.13-0.97-2.01-2.16-2.66-3.56c-0.65-1.4-0.98-2.97-0.98-4.72c0-2.85,0.64-5.5,1.91-7.95
			c1.27-2.45,2.97-4.69,5.1-6.71c2.13-2.03,4.56-3.81,7.31-5.36c2.75-1.55,5.59-2.85,8.51-3.9s5.86-1.85,8.81-2.4
			c2.95-0.55,5.65-0.83,8.1-0.83c1.75,0,3.4,0.03,4.95,0.08c1.55,0.05,3.08,0.18,4.58,0.38c1.5,0.2,3,0.49,4.5,0.86
			s3.1,0.86,4.8,1.46c1.65-0.6,3.3-1.11,4.95-1.54s3.2-0.64,4.65-0.64v0.6c-1.35,0.2-2.69,0.49-4.01,0.86
			c-1.33,0.38-2.59,0.89-3.79,1.54c1.85,1.1,3.44,2.53,4.76,4.27c1.32,1.75,1.99,3.75,1.99,6c0,2.5-0.6,4.63-1.8,6.38
			c-1.2,1.75-2.74,3.18-4.61,4.28c-1.88,1.1-3.94,1.91-6.19,2.44s-4.42,0.84-6.53,0.94v0.15c1.5,0.65,2.84,1.6,4.01,2.85
			c1.17,1.25,1.76,2.83,1.76,4.72c0,1.55-0.24,3.1-0.71,4.65c-0.48,1.55-0.99,3.06-1.54,4.54c-0.55,1.48-1.06,2.89-1.54,4.24
			c-0.48,1.35-0.71,2.63-0.71,3.82c0,1.55,0.57,2.33,1.72,2.33c1.45,0,3.17-0.62,5.18-1.88c2-1.25,4.13-3,6.38-5.25
			c1.1-1.1,2.16-2.25,3.19-3.45c1.02-1.2,2-2.36,2.92-3.49c0.92-1.13,1.75-2.19,2.47-3.19c0.72-1,1.34-1.82,1.84-2.47l0.6,0.52
			c-1.25,1.75-2.73,3.7-4.42,5.85c-1.7,2.15-3.5,4.23-5.4,6.22c-2.5,2.55-4.95,4.6-7.35,6.15c-2.4,1.55-4.93,2.33-7.58,2.33
			c-1.9,0-3.4-0.53-4.5-1.58c-1.1-1.05-1.65-2.45-1.65-4.2c0-1.6,0.31-3.27,0.94-5.03c0.62-1.75,1.31-3.47,2.06-5.17
			c0.75-1.7,1.44-3.27,2.06-4.72c0.62-1.45,0.94-2.63,0.94-3.53c0-0.95-0.13-1.69-0.38-2.21c-0.25-0.53-0.61-0.94-1.09-1.24
			c-0.48-0.3-1.04-0.51-1.69-0.64c-0.65-0.13-1.38-0.24-2.17-0.34l0.15-0.6c0.75,0.05,1.5,0.05,2.25,0s1.67-0.15,2.78-0.3
			c2.1-0.3,3.91-1.01,5.44-2.14c1.52-1.13,2.78-2.4,3.75-3.83s1.69-2.9,2.14-4.42s0.67-2.84,0.67-3.94c0-1.6-0.22-2.95-0.67-4.05
			c-0.45-1.1-1.25-2.2-2.4-3.3c-3.25,2.35-6.08,5.24-8.47,8.66c-2.4,3.42-4.66,7.03-6.79,10.8c-2.13,3.78-4.25,7.53-6.38,11.25
			c-2.13,3.73-4.56,7.08-7.31,10.05c-2.75,2.98-5.94,5.39-9.56,7.24c-3.63,1.85-8.01,2.78-13.16,2.78c-1.4,0-2.88-0.18-4.42-0.53
			c-1.55-0.35-2.96-0.91-4.24-1.69c-1.28-0.77-2.33-1.77-3.15-3c-0.83-1.22-1.24-2.69-1.24-4.39c0-1.4,0.39-2.64,1.16-3.71
			c0.78-1.08,1.76-1.61,2.96-1.61c1,0,1.9,0.3,2.7,0.9c0.8,0.6,1.2,1.42,1.2,2.48c0,1-0.25,1.79-0.75,2.36
			c-0.5,0.58-1.23,0.91-2.17,1.01c0,2.65,0.71,4.53,2.14,5.63s3.36,1.65,5.81,1.65c2.8,0,5.3-0.6,7.5-1.8
			c2.2-1.2,4.25-2.81,6.15-4.84c1.9-2.02,3.67-4.36,5.32-7.01c1.65-2.65,3.3-5.42,4.95-8.33c1.65-2.9,3.35-5.82,5.1-8.78
			c1.75-2.95,3.65-5.75,5.7-8.4c2.05-2.65,4.31-5.04,6.79-7.16c2.47-2.12,5.26-3.81,8.36-5.06c-1.25-0.65-2.59-1.17-4.01-1.58
			c-1.42-0.4-2.83-0.7-4.2-0.9c-1.38-0.2-2.67-0.33-3.9-0.38c-1.23-0.05-2.29-0.08-3.19-0.08c-3.9,0-7.9,0.65-12,1.95
			c-4.1,1.3-7.83,3.14-11.17,5.51c-3.35,2.38-6.1,5.22-8.25,8.55c-2.15,3.33-3.23,7.01-3.23,11.06c0,2.7,0.77,4.89,2.33,6.56
			c1.55,1.68,3.7,2.51,6.45,2.51c2.15,0,4.11-0.57,5.89-1.73c1.77-1.15,3.31-2.61,4.61-4.39c1.3-1.77,2.31-3.72,3.04-5.85
			c0.72-2.13,1.09-4.19,1.09-6.19c0-0.45-0.01-1-0.04-1.65c-0.03-0.65-0.06-1.32-0.11-2.02L239.62,80.69z"/>
		<path class="st1" d="M299.47,67.34h7.87l20.92,53.55h-7.88l-5.85-16.13H291.9l-6,16.13h-7.35L299.47,67.34z M294.15,98.77h18.15
			l-8.92-24.97h-0.15L294.15,98.77z"/>
		<path class="st1" d="M375.67,83.47c-1.5-7.57-7.58-11.4-15-11.4c-12.75,0-18.15,10.5-18.15,21.67c0,12.22,5.4,22.42,18.22,22.42
			c9.38,0,14.77-6.6,15.45-15.45h7.12c-1.35,13.35-9.67,21.45-23.17,21.45c-16.65,0-24.75-12.3-24.75-27.9
			c0-15.52,8.85-28.2,25.35-28.2c11.17,0,20.4,6,22.05,17.4H375.67z"/>
		<path class="st1" d="M396.97,67.34h7.12v53.55h-7.12V67.34z"/>
		<path class="st1" d="M443.24,66.07c17.02,0,25.65,13.5,25.65,28.05c0,14.55-8.63,28.05-25.65,28.05s-25.65-13.5-25.65-28.05
			C417.59,79.57,426.22,66.07,443.24,66.07z M443.24,116.17c13.05,0,18.52-11.25,18.52-22.05c0-10.8-5.47-22.05-18.52-22.05
			s-18.52,11.25-18.52,22.05C424.72,104.92,430.19,116.17,443.24,116.17z M445.12,52.79h8.17l-9.83,10.72h-4.8L445.12,52.79z"/>
		<path class="st1" d="M524.99,122.84c0.1-1.1,0.15-2.07,0.15-2.93c0-0.9,0-1.92,0-3.07c0-2.85-0.33-5.65-0.97-8.4
			c-0.65-2.75-1.41-5.49-2.29-8.21c-0.88-2.72-1.76-5.5-2.66-8.32c-0.9-2.82-1.6-5.74-2.1-8.74l-0.15-0.22
			c-1.15,2.15-2.4,4.6-3.75,7.35c-1.35,2.75-2.83,5.56-4.42,8.44c-1.6,2.88-3.36,5.68-5.29,8.4c-1.93,2.73-4.03,5.15-6.3,7.28
			s-4.78,3.84-7.5,5.14c-2.73,1.3-5.69,1.95-8.89,1.95c-1.6,0-3.04-0.22-4.31-0.67c-1.28-0.45-2.34-1.06-3.19-1.84
			c-0.85-0.77-1.5-1.67-1.95-2.7c-0.45-1.02-0.67-2.09-0.67-3.19c0-1.65,0.44-3.09,1.31-4.31c0.88-1.22,2.19-1.84,3.94-1.84
			c1.25,0,2.29,0.39,3.11,1.16c0.83,0.78,1.24,1.81,1.24,3.11c0,1.3-0.33,2.34-0.97,3.11c-0.65,0.78-1.63,1.21-2.93,1.31
			c0.1,1.3,0.71,2.35,1.84,3.15c1.13,0.8,2.66,1.2,4.61,1.2c2.75,0,5.36-0.66,7.84-1.99c2.47-1.32,4.79-3.08,6.94-5.25
			c2.15-2.17,4.15-4.65,6-7.42c1.85-2.78,3.57-5.61,5.17-8.51c1.6-2.9,3.08-5.74,4.42-8.51c1.35-2.77,2.58-5.24,3.67-7.39
			c-0.05-0.35-0.09-0.67-0.11-0.97c-0.03-0.3-0.04-0.63-0.04-0.97c0-1.85,0.21-3.56,0.64-5.14c0.42-1.58,1.1-2.92,2.02-4.05
			c0.92-1.13,2.14-2.01,3.64-2.66c1.5-0.65,3.32-0.97,5.47-0.97c-0.9,1.3-1.64,2.65-2.21,4.05c-0.58,1.4-0.86,2.88-0.86,4.42
			c0,2.4,0.34,4.85,1.01,7.35c0.68,2.5,1.43,5.08,2.25,7.72c0.83,2.65,1.58,5.35,2.25,8.1c0.68,2.75,0.99,5.55,0.94,8.4h0.15
			c0.65-1.55,1.59-3.57,2.81-6.08c1.22-2.5,2.65-5.2,4.28-8.1c1.62-2.9,3.42-5.81,5.4-8.74c1.97-2.93,4.05-5.56,6.23-7.91
			c2.17-2.35,4.42-4.27,6.75-5.77c2.32-1.5,4.64-2.25,6.94-2.25c1,0,1.95,0.11,2.85,0.34c0.9,0.23,1.69,0.61,2.36,1.16
			c0.67,0.55,1.22,1.25,1.65,2.1c0.42,0.85,0.64,1.93,0.64,3.22c0,1.35-0.31,2.63-0.94,3.83c-0.63,1.2-1.44,2.25-2.44,3.15
			c-1,0.9-2.13,1.64-3.38,2.21c-1.25,0.58-2.53,0.96-3.83,1.16l-0.38-0.53c1.45-0.4,2.66-1.1,3.64-2.1c0.97-1,1.46-2.22,1.46-3.67
			c0-1.9-0.54-3.31-1.61-4.24c-1.08-0.92-2.51-1.39-4.31-1.39c-2.4,0-4.81,1.01-7.24,3.04c-2.43,2.03-4.8,4.61-7.13,7.76
			c-2.33,3.15-4.55,6.66-6.67,10.54c-2.13,3.88-4.05,7.68-5.78,11.4c-1.72,3.73-3.2,7.15-4.42,10.27c-1.23,3.13-2.14,5.54-2.74,7.24
			H524.99z"/>
	</g>
</g>
</svg>
