<?xml version="1.0" encoding="utf-8"?>
<!-- Generator: Adobe Illustrator 24.0.0, SVG Export Plug-In . SVG Version: 6.00 Build 0)  -->
<svg version="1.1" id="Capa_1" xmlns="http://www.w3.org/2000/svg" xmlns:xlink="http://www.w3.org/1999/xlink" x="0px" y="0px"
	 viewBox="0 0 517 95" style="enable-background:new 0 0 517 95;" xml:space="preserve">
<style type="text/css">
	.st0{fill:#FF857B;}
	.st1{fill:#5EADC7;}
</style>
<g>
	<g>
		<path class="st0" d="M58.65,35.64c-1.95,1.77-4.04,3.14-6.26,4.1c-2.23,0.96-4.36,1.44-6.41,1.44c-2.35,0-4.48-0.35-6.38-1.06
			c-1.6,2.03-3.38,4.04-5.33,6.04c-1.95,2-4.04,3.79-6.26,5.36c-2.23,1.57-4.59,2.84-7.09,3.8c-2.5,0.96-5.1,1.44-7.8,1.44
			c-2.5,0-4.59-0.38-6.26-1.14c-1.68-0.76-3.03-1.79-4.05-3.08c-1.03-1.29-1.75-2.76-2.17-4.41C0.21,46.5,0,44.76,0,42.94
			c0-2.79,0.44-5.65,1.31-8.59c0.87-2.94,2.1-5.79,3.68-8.55c1.57-2.76,3.44-5.4,5.59-7.9c2.15-2.51,4.47-4.72,6.98-6.65
			c2.5-1.92,5.14-3.52,7.91-4.79c2.78-1.27,5.56-2.03,8.36-2.28c1.6-1.52,3.06-2.48,4.39-2.89c1.32-0.4,2.59-0.61,3.79-0.61
			c3,0,5.21,1.14,6.64,3.42c1.42,2.28,2.14,5.19,2.14,8.74c0,2.23-0.31,4.55-0.94,6.95c-0.63,2.41-1.44,4.76-2.44,7.07
			c-1,2.31-2.13,4.54-3.38,6.69c-1.25,2.15-2.5,4.09-3.75,5.81c0.85,0.41,1.74,0.66,2.66,0.76c0.92,0.1,1.89,0.15,2.89,0.15
			c1.2,0,2.39-0.15,3.56-0.46c1.17-0.3,2.31-0.71,3.41-1.22c1.1-0.51,2.11-1.06,3.04-1.67c0.92-0.61,1.71-1.22,2.36-1.82
			L58.65,35.64z M26.63,21.12c0-2.94,0.56-5.79,1.69-8.55c1.13-2.76,2.66-5.21,4.61-7.33l-0.15-0.15c-2.5,0.51-4.85,1.48-7.05,2.93
			c-2.2,1.44-4.24,3.19-6.11,5.24s-3.55,4.35-5.03,6.88c-1.48,2.53-2.73,5.14-3.75,7.83c-1.03,2.69-1.81,5.36-2.36,8.02
			c-0.55,2.66-0.83,5.18-0.83,7.56c0,1.52,0.12,2.99,0.38,4.41c0.25,1.42,0.66,2.67,1.24,3.76c0.57,1.09,1.35,1.96,2.32,2.62
			c0.98,0.66,2.19,0.99,3.64,0.99c2.2,0,4.37-0.54,6.52-1.63c2.15-1.09,4.19-2.44,6.11-4.07c1.92-1.62,3.65-3.41,5.17-5.36
			c1.52-1.95,2.76-3.79,3.71-5.51c-1.55-0.86-2.95-1.91-4.2-3.15c-1.25-1.24-2.31-2.63-3.19-4.18c-0.88-1.54-1.55-3.19-2.03-4.94
			C26.86,24.73,26.63,22.95,26.63,21.12z M39.52,13.15c0.1-0.3,0.17-0.73,0.23-1.29c0.05-0.56,0.08-1.06,0.08-1.52
			c0-0.71-0.1-1.41-0.3-2.09C39.32,7.56,39,6.98,38.55,6.5c-0.45-0.48-1.04-0.86-1.76-1.14c-0.73-0.28-1.64-0.39-2.74-0.34
			c-0.75,0.81-1.4,1.79-1.95,2.93c-0.55,1.14-1.01,2.36-1.39,3.65c-0.38,1.29-0.65,2.61-0.82,3.95c-0.18,1.34-0.26,2.6-0.26,3.76
			c0,1.67,0.12,3.42,0.38,5.24c0.25,1.82,0.68,3.59,1.27,5.28c0.6,1.7,1.39,3.26,2.36,4.67c0.98,1.42,2.21,2.56,3.71,3.42
			c1.1-1.82,2.11-3.81,3.04-5.97c0.92-2.15,1.71-4.36,2.36-6.61c0.65-2.25,1.15-4.51,1.5-6.76c0.35-2.25,0.52-4.42,0.52-6.5
			c0-1.32-0.1-2.56-0.3-3.72c-0.2-1.16-0.52-2.19-0.98-3.06c-0.45-0.88-1.05-1.56-1.8-2.05s-1.68-0.74-2.77-0.74
			c-0.9,0-1.68,0.15-2.33,0.44c-0.65,0.29-1.23,0.68-1.73,1.17c1.1,0.05,2.02,0.25,2.77,0.6c0.75,0.35,1.35,0.82,1.8,1.4
			c0.45,0.58,0.77,1.25,0.98,2.01c0.2,0.76,0.3,1.52,0.3,2.28c0,0.61-0.04,1.13-0.11,1.56c-0.08,0.43-0.16,0.85-0.26,1.25
			L39.52,13.15z"/>
		<path class="st0" d="M60.07,1.29h7.57l28.2,44H96v-44h6.75v54.26h-7.8L66.97,12.01h-0.15v43.54h-6.75V1.29z"/>
		<path class="st0" d="M119.1,1.29h7.12v54.26h-7.12V1.29z"/>
		<path class="st0" d="M142.72,1.29h25.2c10.05,0,16.27,5.55,16.27,14.21c0,6.54-2.85,11.93-9.3,13.76v0.15
			c6.22,1.22,7.5,5.85,8.02,11.17c0.45,5.32,0.15,11.25,3.15,14.97h-7.95c-2.02-2.2-0.9-8.05-1.95-13.37
			c-0.75-5.32-2.02-9.8-8.92-9.8h-17.4v23.18h-7.13V1.29z M164.7,26.29c6.67,0,12.37-1.75,12.37-9.65c0-5.32-2.85-9.27-9.52-9.27
			h-17.7v18.92H164.7z"/>
		<path class="st0" d="M198.9,1.29h7.12v54.26h-7.12V1.29z"/>
		<path class="st0" d="M253.5,17.17c-0.83-7.75-5.92-11.1-13.27-11.1c-6,0-12,2.2-12,9.27c0,6.69,8.55,7.67,17.17,9.65
			c8.55,1.98,17.1,5.02,17.1,15.65c0,11.55-11.17,16.19-20.92,16.19c-12,0-22.12-5.93-22.12-19.15h6.75c0,9.12,7.5,13.07,15.6,13.07
			c6.45,0,13.57-2.05,13.57-9.88c0-7.45-8.55-8.74-17.1-10.64c-8.55-1.9-17.17-4.41-17.17-14.36C221.1,4.86,230.77,0,240.52,0
			c10.95,0,19.27,5.24,19.72,17.17H253.5z"/>
		<path class="st0" d="M307.27,18.62c1.1,0.41,2.25,0.61,3.45,0.61c3.15,0,5.64-0.84,7.46-2.51c1.83-1.67,2.74-4.18,2.74-7.52
			c0-2.38-0.63-4.24-1.88-5.59c-1.25-1.34-3.07-2.01-5.47-2.01c-1.45,0-2.76,0.29-3.94,0.87c-1.18,0.58-2.19,1.36-3.04,2.32
			c-0.85,0.96-1.54,2.08-2.06,3.34c-0.53,1.27-0.89,2.56-1.09,3.88c-0.3,1.77-0.59,3.32-0.86,4.64c-0.28,1.32-0.7,2.5-1.27,3.53
			c-0.58,1.04-1.36,1.98-2.36,2.81c-1,0.84-2.38,1.69-4.13,2.55c-2,0.96-3.83,1.94-5.47,2.93c-1.65,0.99-3.05,2.13-4.2,3.42
			s-2.05,2.83-2.7,4.6c-0.65,1.77-0.97,3.93-0.97,6.46c0,2.03,0.41,3.81,1.24,5.36c0.83,1.55,1.91,2.85,3.26,3.91
			c1.35,1.06,2.89,1.86,4.61,2.39c1.73,0.53,3.51,0.8,5.36,0.8c1.95,0,3.8-0.29,5.55-0.87c1.75-0.58,3.3-1.44,4.65-2.58
			c1.35-1.14,2.43-2.55,3.23-4.22c0.8-1.67,1.2-3.57,1.2-5.7c0-2.13-0.54-3.8-1.61-5.02s-2.66-1.82-4.76-1.82
			c-1.85,0-3.51,0.48-4.99,1.44c-1.47,0.96-2.81,2.1-4.01,3.42l-0.53-0.38c1.8-1.87,3.69-3.32,5.66-4.33
			c1.97-1.01,4.29-1.52,6.94-1.52c1.35,0,2.6,0.19,3.75,0.57c1.15,0.38,2.16,0.94,3.04,1.67c0.87,0.74,1.56,1.65,2.06,2.74
			c0.5,1.09,0.75,2.32,0.75,3.69c0,2.63-0.9,4.86-2.7,6.69c-1.8,1.82-4.01,3.31-6.64,4.45s-5.39,1.95-8.29,2.43
			c-2.9,0.48-5.45,0.72-7.65,0.72c-2.05,0-4.14-0.22-6.26-0.65s-4.04-1.15-5.74-2.17c-1.7-1.01-3.09-2.36-4.16-4.03
			s-1.61-3.77-1.61-6.31c0-2.48,0.5-4.55,1.5-6.19c1-1.65,2.26-3.05,3.79-4.22c1.53-1.16,3.17-2.18,4.95-3.04
			c1.77-0.86,3.44-1.75,4.99-2.66c1.55-0.91,2.85-1.92,3.9-3.04c1.05-1.11,1.62-2.51,1.72-4.18c0.2-3.65,0.84-6.73,1.91-9.23
			c1.08-2.51,2.49-4.52,4.24-6.04c1.75-1.52,3.77-2.62,6.07-3.31c2.3-0.68,4.73-1.03,7.28-1.03c1.35,0,2.75,0.13,4.2,0.38
			s2.76,0.71,3.94,1.37c1.17,0.66,2.14,1.55,2.89,2.66c0.75,1.12,1.13,2.51,1.13,4.18c0,1.82-0.41,3.41-1.24,4.75
			c-0.82,1.34-1.89,2.47-3.19,3.38c-1.3,0.91-2.75,1.6-4.35,2.05c-1.6,0.46-3.2,0.68-4.8,0.68c-0.95,0-1.89-0.06-2.81-0.19
			c-0.93-0.13-1.84-0.34-2.74-0.65L307.27,18.62z"/>
		<path class="st0" d="M331.42,1.29H339l28.2,44h0.15v-44h6.75v54.26h-7.8l-27.97-43.54h-0.15v43.54h-6.75V1.29z"/>
		<path class="st0" d="M427.79,17.63c-1.5-7.68-7.58-11.55-15-11.55c-12.75,0-18.15,10.64-18.15,21.96
			c0,12.39,5.4,22.72,18.22,22.72c9.38,0,14.78-6.69,15.45-15.65h7.12c-1.35,13.53-9.67,21.73-23.17,21.73
			c-16.65,0-24.75-12.46-24.75-28.27c0-15.73,8.85-28.57,25.35-28.57c11.18,0,20.4,6.08,22.05,17.63H427.79z"/>
		<path class="st0" d="M449.09,1.29h7.12v54.26h-7.12V1.29z"/>
		<path class="st0" d="M487.27,1.29h7.88l20.92,54.26h-7.88l-5.85-16.34h-22.65l-6,16.34h-7.35L487.27,1.29z M481.94,33.13h18.15
			l-8.92-25.31h-0.15L481.94,33.13z"/>
	</g>
	<g>
		<path class="st1" d="M91.83,83.73c-1.04,0.95-2.15,1.68-3.34,2.19c-1.19,0.51-2.33,0.77-3.42,0.77c-1.25,0-2.39-0.19-3.4-0.57
			c-0.85,1.08-1.8,2.16-2.84,3.22c-1.04,1.07-2.15,2.02-3.34,2.86c-1.19,0.84-2.45,1.51-3.78,2.03C70.38,94.74,68.99,95,67.55,95
			c-1.33,0-2.45-0.2-3.34-0.61c-0.89-0.41-1.61-0.95-2.16-1.64c-0.55-0.69-0.93-1.47-1.16-2.35c-0.23-0.88-0.34-1.8-0.34-2.78
			c0-1.49,0.23-3.01,0.7-4.58c0.47-1.57,1.12-3.09,1.96-4.56c0.84-1.47,1.83-2.88,2.98-4.22c1.15-1.34,2.39-2.52,3.72-3.55
			c1.33-1.03,2.74-1.88,4.22-2.55c1.48-0.68,2.97-1.08,4.46-1.22c0.85-0.81,1.63-1.32,2.34-1.54c0.71-0.22,1.38-0.32,2.02-0.32
			c1.6,0,2.78,0.61,3.54,1.82c0.76,1.22,1.14,2.77,1.14,4.66c0,1.19-0.17,2.43-0.5,3.71c-0.33,1.28-0.77,2.54-1.3,3.77
			c-0.53,1.23-1.13,2.42-1.8,3.57c-0.67,1.15-1.33,2.18-2,3.1c0.45,0.22,0.93,0.35,1.42,0.41c0.49,0.05,1.01,0.08,1.54,0.08
			c0.64,0,1.27-0.08,1.9-0.24c0.63-0.16,1.23-0.38,1.82-0.65c0.59-0.27,1.13-0.57,1.62-0.89c0.49-0.32,0.91-0.65,1.26-0.97
			L91.83,83.73z M74.75,75.99c0-1.57,0.3-3.09,0.9-4.56c0.6-1.47,1.42-2.78,2.46-3.91l-0.08-0.08c-1.33,0.27-2.59,0.79-3.76,1.56
			c-1.17,0.77-2.26,1.7-3.26,2.8c-1,1.09-1.89,2.32-2.68,3.67c-0.79,1.35-1.45,2.74-2,4.17c-0.55,1.43-0.97,2.86-1.26,4.28
			c-0.29,1.42-0.44,2.76-0.44,4.03c0,0.81,0.07,1.6,0.2,2.35c0.13,0.76,0.35,1.42,0.66,2.01c0.31,0.58,0.72,1.05,1.24,1.4
			c0.52,0.35,1.17,0.53,1.94,0.53c1.17,0,2.33-0.29,3.48-0.87c1.15-0.58,2.23-1.3,3.26-2.17c1.03-0.86,1.95-1.82,2.76-2.86
			c0.81-1.04,1.47-2.02,1.98-2.94c-0.83-0.46-1.57-1.02-2.24-1.68c-0.67-0.66-1.23-1.41-1.7-2.23c-0.47-0.82-0.83-1.7-1.08-2.63
			C74.88,77.92,74.75,76.96,74.75,75.99z M81.63,71.73c0.05-0.16,0.09-0.39,0.12-0.69c0.03-0.3,0.04-0.57,0.04-0.81
			c0-0.38-0.05-0.75-0.16-1.12c-0.11-0.36-0.28-0.67-0.52-0.93c-0.24-0.26-0.55-0.46-0.94-0.61c-0.39-0.15-0.87-0.21-1.46-0.18
			c-0.4,0.43-0.75,0.95-1.04,1.56c-0.29,0.61-0.54,1.26-0.74,1.95c-0.2,0.69-0.35,1.39-0.44,2.11c-0.09,0.72-0.14,1.39-0.14,2.01
			c0,0.89,0.07,1.82,0.2,2.8c0.13,0.97,0.36,1.91,0.68,2.82c0.32,0.91,0.74,1.74,1.26,2.49c0.52,0.76,1.18,1.36,1.98,1.82
			c0.59-0.97,1.13-2.03,1.62-3.18c0.49-1.15,0.91-2.32,1.26-3.53c0.35-1.2,0.61-2.4,0.8-3.61c0.19-1.2,0.28-2.36,0.28-3.47
			c0-0.7-0.05-1.36-0.16-1.99s-0.28-1.17-0.52-1.63c-0.24-0.47-0.56-0.83-0.96-1.09c-0.4-0.26-0.89-0.39-1.48-0.39
			c-0.48,0-0.89,0.08-1.24,0.23c-0.35,0.16-0.65,0.37-0.92,0.63c0.59,0.03,1.08,0.13,1.48,0.32c0.4,0.19,0.72,0.44,0.96,0.75
			c0.24,0.31,0.41,0.67,0.52,1.07c0.11,0.4,0.16,0.81,0.16,1.22c0,0.32-0.02,0.6-0.06,0.83c-0.04,0.23-0.09,0.45-0.14,0.67
			L81.63,71.73z"/>
		<path class="st1" d="M94.07,87.38c0.37-0.49,0.91-1.18,1.62-2.07c0.71-0.89,1.51-1.77,2.42-2.64c0.91-0.86,1.88-1.62,2.92-2.27
			c1.04-0.65,2.08-0.97,3.12-0.97c0.88,0,1.55,0.25,2,0.75c0.45,0.5,0.68,1.12,0.68,1.84c0,0.92-0.29,1.86-0.86,2.82
			c-0.57,0.96-1.21,1.92-1.9,2.88c-0.69,0.96-1.33,1.88-1.9,2.76c-0.57,0.88-0.86,1.7-0.86,2.45c0,0.32,0.08,0.59,0.24,0.79
			s0.43,0.3,0.8,0.3c0.37,0,0.99-0.29,1.86-0.87c0.87-0.58,2.03-1.65,3.5-3.22c1.15-1.24,2.2-2.45,3.16-3.63s1.68-2.06,2.16-2.65
			l0.4,0.2c-0.69,0.84-1.55,1.88-2.56,3.12c-1.01,1.24-2.09,2.47-3.24,3.69c-1.39,1.49-2.57,2.54-3.54,3.16
			c-0.97,0.62-1.98,0.93-3.02,0.93c-1.01,0-1.76-0.28-2.24-0.85c-0.48-0.57-0.72-1.22-0.72-1.95c0-0.92,0.29-1.86,0.86-2.84
			c0.57-0.97,1.21-1.93,1.9-2.86c0.69-0.93,1.33-1.82,1.9-2.65c0.57-0.84,0.86-1.57,0.86-2.19c0-0.3-0.09-0.54-0.28-0.73
			c-0.19-0.19-0.47-0.28-0.84-0.28c-0.53,0-1.16,0.25-1.88,0.75c-0.72,0.5-1.48,1.15-2.28,1.95c-0.8,0.8-1.61,1.7-2.44,2.72
			c-0.83,1.01-1.61,2.03-2.34,3.04c-0.73,1.01-1.39,1.99-1.98,2.94c-0.59,0.95-1.05,1.76-1.4,2.43l-4.04,0.12
			c1.41-2.38,2.83-4.74,4.26-7.07c1.43-2.34,2.83-4.74,4.22-7.19l4.56-0.16l-5.2,7.38L94.07,87.38z"/>
		<path class="st1" d="M120.87,80.08c-1.25,2-2.33,3.71-3.24,5.13c-0.91,1.42-1.65,2.63-2.22,3.63c-0.57,1-1,1.82-1.28,2.45
			c-0.28,0.64-0.42,1.16-0.42,1.56c0,0.32,0.06,0.59,0.18,0.79c0.12,0.2,0.3,0.3,0.54,0.3c0.53,0,1.29-0.31,2.26-0.93
			c0.97-0.62,2.19-1.69,3.66-3.2c0.59-0.62,1.16-1.24,1.72-1.84c0.56-0.61,1.09-1.2,1.58-1.76c0.49-0.57,0.93-1.08,1.32-1.54
			c0.39-0.46,0.7-0.82,0.94-1.09l0.36,0.24c-0.32,0.43-0.71,0.93-1.18,1.48c-0.47,0.55-0.97,1.14-1.5,1.74
			c-0.53,0.61-1.08,1.21-1.64,1.8c-0.56,0.59-1.11,1.16-1.64,1.7c-1.55,1.57-2.87,2.66-3.98,3.28c-1.11,0.62-2.13,0.93-3.06,0.93
			c-0.88,0-1.56-0.24-2.04-0.73c-0.48-0.49-0.72-1.12-0.72-1.9c0-0.54,0.1-1.1,0.3-1.68c0.2-0.58,0.54-1.3,1.02-2.17
			s1.12-1.94,1.92-3.22c0.8-1.28,1.8-2.87,3-4.76L120.87,80.08z M124.59,71.73c0,0.62-0.25,1.28-0.76,1.97
			c-0.51,0.69-1.1,1.33-1.78,1.92c-0.68,0.59-1.34,1.08-1.98,1.46c-0.64,0.38-1.11,0.57-1.4,0.57c-0.16,0-0.24-0.09-0.24-0.28
			c0-0.14,0.15-0.33,0.46-0.59c0.31-0.26,0.66-0.58,1.06-0.97c0.4-0.39,0.79-0.83,1.18-1.32c0.39-0.49,0.65-1.03,0.78-1.62
			c0.05-0.22,0.12-0.47,0.2-0.75c0.08-0.28,0.17-0.55,0.28-0.79c0.11-0.24,0.24-0.45,0.4-0.63c0.16-0.18,0.33-0.26,0.52-0.26
			c0.4,0,0.71,0.12,0.94,0.37C124.47,71.05,124.59,71.36,124.59,71.73z"/>
		<path class="st1" d="M120.63,94.35c1.36-2.38,2.74-4.74,4.14-7.09c1.4-2.35,2.79-4.74,4.18-7.17l4.56-0.16l-5.28,7.54l0.08,0.08
			c1.01-1.27,1.91-2.29,2.7-3.06c0.79-0.77,1.47-1.4,2.06-1.89c0.59-0.49,1.08-0.86,1.48-1.11c0.4-0.26,0.69-0.48,0.88-0.67
			c0.29-0.3,0.57-0.53,0.82-0.71c0.25-0.18,0.55-0.31,0.9-0.4c0.35-0.09,0.77-0.16,1.26-0.18c0.49-0.03,1.11-0.05,1.86-0.08
			c-0.51,0.73-0.97,1.49-1.4,2.29c-0.43,0.8-0.64,1.66-0.64,2.57c0,1.16,0.57,1.74,1.72,1.74c0.37,0,0.74-0.08,1.1-0.24
			c0.36-0.16,0.7-0.36,1.02-0.61c0.32-0.24,0.63-0.51,0.92-0.79c0.29-0.28,0.56-0.55,0.8-0.79l0.16,0.2
			c-0.75,0.95-1.63,1.72-2.64,2.31c-1.01,0.59-2.12,0.89-3.32,0.89c-1.07,0-1.91-0.28-2.52-0.85c-0.61-0.57-0.92-1.41-0.92-2.51
			c0-0.7,0.2-1.36,0.6-1.99l-0.08-0.08c-1.12,0.76-2.19,1.64-3.2,2.64c-1.01,1-1.95,2.05-2.82,3.16c-0.87,1.11-1.67,2.25-2.4,3.42
			c-0.73,1.18-1.39,2.32-1.98,3.42L120.63,94.35z"/>
		<path class="st1" d="M151.59,80.08c-1.25,2-2.33,3.71-3.24,5.13c-0.91,1.42-1.65,2.63-2.22,3.63c-0.57,1-1,1.82-1.28,2.45
			c-0.28,0.64-0.42,1.16-0.42,1.56c0,0.32,0.06,0.59,0.18,0.79c0.12,0.2,0.3,0.3,0.54,0.3c0.53,0,1.29-0.31,2.26-0.93
			c0.97-0.62,2.19-1.69,3.66-3.2c0.59-0.62,1.16-1.24,1.72-1.84c0.56-0.61,1.09-1.2,1.58-1.76c0.49-0.57,0.93-1.08,1.32-1.54
			c0.39-0.46,0.7-0.82,0.94-1.09l0.36,0.24c-0.32,0.43-0.71,0.93-1.18,1.48c-0.47,0.55-0.97,1.14-1.5,1.74
			c-0.53,0.61-1.08,1.21-1.64,1.8c-0.56,0.59-1.11,1.16-1.64,1.7c-1.55,1.57-2.87,2.66-3.98,3.28c-1.11,0.62-2.13,0.93-3.06,0.93
			c-0.88,0-1.56-0.24-2.04-0.73c-0.48-0.49-0.72-1.12-0.72-1.9c0-0.54,0.1-1.1,0.3-1.68c0.2-0.58,0.54-1.3,1.02-2.17
			s1.12-1.94,1.92-3.22c0.8-1.28,1.8-2.87,3-4.76L151.59,80.08z M153.91,71.09c0.51,0,0.95,0.19,1.34,0.57
			c0.39,0.38,0.58,0.82,0.58,1.34c0,0.54-0.21,1.03-0.64,1.48c-0.43,0.45-0.91,0.67-1.44,0.67c-0.59,0-1.09-0.16-1.52-0.47
			c-0.43-0.31-0.64-0.78-0.64-1.4s0.23-1.14,0.7-1.56C152.75,71.3,153.29,71.09,153.91,71.09z"/>
		<path class="st1" d="M175.63,83.89c-0.99,1.22-2.05,2.48-3.2,3.79c-1.15,1.31-2.38,2.51-3.7,3.59c-1.32,1.08-2.73,1.97-4.24,2.67
			c-1.51,0.7-3.1,1.05-4.78,1.05c-1.6,0-2.83-0.44-3.68-1.32c-0.85-0.88-1.28-2.17-1.28-3.87c0-1.3,0.37-2.57,1.12-3.81
			c0.75-1.24,1.71-2.35,2.88-3.32c1.17-0.97,2.47-1.76,3.88-2.35c1.41-0.59,2.79-0.89,4.12-0.89c1.23,0,2.2,0.25,2.92,0.75
			c0.72,0.5,1.08,1.12,1.08,1.84c0,0.51-0.1,0.98-0.3,1.4c-0.2,0.42-0.46,0.77-0.78,1.05s-0.68,0.5-1.08,0.65
			c-0.4,0.15-0.8,0.22-1.2,0.22c-0.35,0-0.65-0.03-0.92-0.08c0.19-0.62,0.39-1.26,0.6-1.9c0.21-0.65,0.32-1.3,0.32-1.95
			c0-0.46-0.11-0.82-0.32-1.09c-0.21-0.27-0.51-0.41-0.88-0.41c-0.69,0-1.48,0.28-2.36,0.83c-0.88,0.55-1.71,1.3-2.48,2.23
			c-0.77,0.93-1.43,2-1.96,3.2c-0.53,1.2-0.8,2.45-0.8,3.75c0,1.03,0.31,1.9,0.92,2.61c0.61,0.72,1.47,1.07,2.56,1.07
			c1.31,0,2.61-0.36,3.9-1.09c1.29-0.73,2.52-1.61,3.68-2.65c1.16-1.04,2.22-2.12,3.18-3.24s1.77-2.09,2.44-2.9L175.63,83.89z"/>
		<path class="st1" d="M189.07,80.33l4.16-0.24c-0.24,0.49-0.59,1.07-1.04,1.76c-0.45,0.69-0.95,1.43-1.48,2.23
			c-0.53,0.8-1.07,1.62-1.62,2.47c-0.55,0.85-1.05,1.68-1.5,2.47c-0.45,0.8-0.82,1.54-1.1,2.23c-0.28,0.69-0.42,1.28-0.42,1.76
			c0,0.68,0.33,1.01,1,1.01c0.64,0,1.51-0.38,2.6-1.14c1.09-0.76,2.24-1.76,3.44-3c0.51-0.51,1.02-1.07,1.54-1.66
			s1.02-1.18,1.5-1.76c0.48-0.58,0.92-1.12,1.32-1.62c0.4-0.5,0.72-0.91,0.96-1.24l0.28,0.16c-0.69,0.95-1.49,1.99-2.4,3.14
			c-0.91,1.15-2,2.37-3.28,3.67c-1.28,1.3-2.54,2.36-3.78,3.18c-1.24,0.82-2.47,1.24-3.7,1.24c-0.85,0-1.51-0.22-1.98-0.67
			c-0.47-0.45-0.7-0.99-0.7-1.64c0-0.22,0.01-0.42,0.04-0.61c0.03-0.19,0.07-0.34,0.12-0.45h-0.08c-0.83,0.95-1.76,1.74-2.8,2.39
			c-1.04,0.65-2.16,0.97-3.36,0.97c-0.64,0-1.19-0.12-1.64-0.37c-0.45-0.24-0.82-0.57-1.1-0.99c-0.28-0.42-0.49-0.89-0.62-1.42
			c-0.13-0.53-0.2-1.07-0.2-1.64c0-1.32,0.36-2.65,1.08-3.97c0.72-1.32,1.63-2.52,2.72-3.59c1.09-1.07,2.31-1.93,3.66-2.59
			c1.35-0.66,2.63-0.99,3.86-0.99c0.93,0,1.67,0.2,2.2,0.61c0.53,0.4,0.97,1.04,1.32,1.9L189.07,80.33z M177.07,90.7
			c0,0.78,0.13,1.47,0.38,2.05c0.25,0.58,0.79,0.87,1.62,0.87c0.56-0.03,1.15-0.26,1.76-0.71c0.61-0.45,1.21-1.01,1.78-1.68
			c0.57-0.67,1.12-1.42,1.64-2.25c0.52-0.82,0.97-1.66,1.36-2.49c0.39-0.84,0.69-1.63,0.92-2.37c0.23-0.74,0.34-1.37,0.34-1.88
			c0-0.73-0.13-1.3-0.4-1.7c-0.27-0.4-0.79-0.61-1.56-0.61c-0.61,0-1.23,0.19-1.86,0.57c-0.63,0.38-1.23,0.88-1.8,1.5
			c-0.57,0.62-1.12,1.32-1.64,2.09c-0.52,0.77-0.97,1.56-1.34,2.37c-0.37,0.81-0.67,1.59-0.88,2.33
			C177.17,89.52,177.07,90.16,177.07,90.7z"/>
		<path class="st1" d="M224.11,80.73l3.36-0.32l-4.36,6.69h5.68l-0.36,0.57h-5.64l-4.04,6.16l-3.48,0.53l4.4-6.69h-5.72l0.36-0.57
			h5.68L224.11,80.73z"/>
		<path class="st1" d="M270.11,83.89c-0.99,1.22-2.05,2.48-3.2,3.79c-1.15,1.31-2.38,2.51-3.7,3.59c-1.32,1.08-2.73,1.97-4.24,2.67
			c-1.51,0.7-3.1,1.05-4.78,1.05c-1.6,0-2.83-0.44-3.68-1.32c-0.85-0.88-1.28-2.17-1.28-3.87c0-1.3,0.37-2.57,1.12-3.81
			c0.75-1.24,1.71-2.35,2.88-3.32c1.17-0.97,2.47-1.76,3.88-2.35c1.41-0.59,2.79-0.89,4.12-0.89c1.23,0,2.2,0.25,2.92,0.75
			c0.72,0.5,1.08,1.12,1.08,1.84c0,0.51-0.1,0.98-0.3,1.4c-0.2,0.42-0.46,0.77-0.78,1.05s-0.68,0.5-1.08,0.65
			c-0.4,0.15-0.8,0.22-1.2,0.22c-0.35,0-0.65-0.03-0.92-0.08c0.19-0.62,0.39-1.26,0.6-1.9c0.21-0.65,0.32-1.3,0.32-1.95
			c0-0.46-0.11-0.82-0.32-1.09c-0.21-0.27-0.51-0.41-0.88-0.41c-0.69,0-1.48,0.28-2.36,0.83c-0.88,0.55-1.71,1.3-2.48,2.23
			c-0.77,0.93-1.43,2-1.96,3.2c-0.53,1.2-0.8,2.45-0.8,3.75c0,1.03,0.31,1.9,0.92,2.61c0.61,0.72,1.47,1.07,2.56,1.07
			c1.31,0,2.61-0.36,3.9-1.09c1.29-0.73,2.52-1.61,3.68-2.65c1.16-1.04,2.22-2.12,3.18-3.24s1.77-2.09,2.44-2.9L270.11,83.89z"/>
		<path class="st1" d="M291.67,83.85c-0.53,0.7-1.17,1.34-1.9,1.9c-0.73,0.57-1.54,0.85-2.42,0.85c-0.61,0-1.15-0.13-1.6-0.4
			s-0.87-0.65-1.24-1.14c-0.32,1.35-0.85,2.63-1.58,3.83s-1.62,2.26-2.66,3.16c-1.04,0.91-2.2,1.62-3.48,2.15
			c-1.28,0.53-2.61,0.79-4,0.79c-1.47,0-2.64-0.43-3.52-1.28c-0.88-0.85-1.32-2.02-1.32-3.51c0-1.43,0.36-2.8,1.08-4.11
			c0.72-1.31,1.65-2.46,2.8-3.44s2.41-1.77,3.8-2.35c1.39-0.58,2.75-0.87,4.08-0.87c1.44,0,2.57,0.39,3.4,1.18
			c0.83,0.78,1.33,1.73,1.52,2.84c0.13,0.81,0.43,1.46,0.9,1.95c0.47,0.49,1.07,0.73,1.82,0.73c0.72,0,1.4-0.22,2.04-0.65
			c0.64-0.43,1.32-1.08,2.04-1.95L291.67,83.85z M273.07,94.51c0.67,0,1.33-0.23,2-0.69c0.67-0.46,1.31-1.05,1.92-1.78
			s1.18-1.55,1.7-2.47c0.52-0.92,0.97-1.84,1.36-2.76c0.39-0.92,0.69-1.8,0.9-2.63c0.21-0.84,0.32-1.54,0.32-2.11
			c0-0.67-0.14-1.2-0.42-1.58c-0.28-0.38-0.73-0.57-1.34-0.57c-0.67,0-1.33,0.23-2,0.69c-0.67,0.46-1.31,1.05-1.92,1.78
			c-0.61,0.73-1.18,1.55-1.7,2.47c-0.52,0.92-0.97,1.84-1.36,2.76c-0.39,0.92-0.69,1.8-0.9,2.64c-0.21,0.84-0.32,1.54-0.32,2.11
			c0,0.68,0.14,1.2,0.42,1.58C272,94.33,272.45,94.51,273.07,94.51z"/>
		<path class="st1" d="M293.99,87.38c0.37-0.49,0.91-1.18,1.62-2.07s1.51-1.77,2.42-2.64c0.91-0.86,1.88-1.62,2.92-2.27
			c1.04-0.65,2.08-0.97,3.12-0.97c0.88,0,1.54,0.25,2,0.75c0.45,0.5,0.68,1.12,0.68,1.84c0,0.92-0.29,1.86-0.86,2.82
			s-1.21,1.92-1.9,2.88c-0.69,0.96-1.33,1.88-1.9,2.76c-0.57,0.88-0.86,1.7-0.86,2.45c0,0.32,0.08,0.59,0.24,0.79s0.43,0.3,0.8,0.3
			s0.99-0.29,1.86-0.87c0.87-0.58,2.03-1.65,3.5-3.22c1.15-1.24,2.2-2.45,3.16-3.63c0.96-1.18,1.68-2.06,2.16-2.65l0.4,0.2
			c-0.69,0.84-1.55,1.88-2.56,3.12c-1.01,1.24-2.09,2.47-3.24,3.69c-1.39,1.49-2.57,2.54-3.54,3.16c-0.97,0.62-1.98,0.93-3.02,0.93
			c-1.01,0-1.76-0.28-2.24-0.85c-0.48-0.57-0.72-1.22-0.72-1.95c0-0.92,0.29-1.86,0.86-2.84c0.57-0.97,1.21-1.93,1.9-2.86
			s1.33-1.82,1.9-2.65c0.57-0.84,0.86-1.57,0.86-2.19c0-0.3-0.09-0.54-0.28-0.73c-0.19-0.19-0.47-0.28-0.84-0.28
			c-0.53,0-1.16,0.25-1.88,0.75c-0.72,0.5-1.48,1.15-2.28,1.95c-0.8,0.8-1.61,1.7-2.44,2.72c-0.83,1.01-1.61,2.03-2.34,3.04
			c-0.73,1.01-1.39,1.99-1.98,2.94c-0.59,0.95-1.05,1.76-1.4,2.43l-4.04,0.12c1.41-2.38,2.83-4.74,4.26-7.07
			c1.43-2.34,2.83-4.74,4.22-7.19l4.56-0.16l-5.2,7.38L293.99,87.38z"/>
		<path class="st1" d="M317.58,94.23c1.36-0.3,2.62-0.8,3.78-1.52c1.16-0.72,2.25-1.55,3.26-2.51c1.01-0.96,1.97-2,2.86-3.12
			c0.89-1.12,1.77-2.25,2.62-3.38l0.32,0.24c-1.07,1.41-2.13,2.78-3.2,4.11c-1.07,1.34-2.23,2.52-3.5,3.55
			c-1.27,1.03-2.65,1.85-4.16,2.47S316.33,95,314.38,95c-0.69,0-1.38-0.07-2.06-0.22c-0.68-0.15-1.29-0.39-1.84-0.73
			c-0.55-0.34-0.99-0.78-1.32-1.34c-0.33-0.55-0.5-1.24-0.5-2.05c0-0.43,0.06-0.86,0.18-1.3c0.12-0.43,0.3-0.82,0.54-1.18
			c0.24-0.35,0.54-0.64,0.9-0.87c0.36-0.23,0.78-0.34,1.26-0.34c0.61,0,1.09,0.18,1.42,0.53c0.33,0.35,0.5,0.76,0.5,1.22
			c0,0.57-0.16,1-0.48,1.3c-0.32,0.3-0.69,0.45-1.12,0.45c-0.35,0-0.64-0.07-0.88-0.2c-0.13,0.24-0.25,0.51-0.34,0.79
			c-0.09,0.28-0.14,0.57-0.14,0.87c0,0.76,0.29,1.38,0.86,1.86c0.57,0.49,1.25,0.73,2.02,0.73c0.48,0,0.97-0.08,1.46-0.24
			c0.49-0.16,0.93-0.4,1.32-0.71c0.39-0.31,0.7-0.68,0.94-1.11s0.36-0.91,0.36-1.42c0-0.7-0.17-1.34-0.5-1.93
			c-0.33-0.58-0.7-1.14-1.1-1.68c-0.4-0.54-0.77-1.09-1.1-1.64c-0.33-0.55-0.5-1.14-0.5-1.76c0-0.76,0.17-1.42,0.52-1.99
			c0.35-0.57,0.8-1.05,1.36-1.44s1.19-0.68,1.88-0.87c0.69-0.19,1.4-0.28,2.12-0.28c1.28,0,2.35,0.28,3.22,0.83
			c0.87,0.55,1.3,1.34,1.3,2.37c0,0.78-0.25,1.43-0.76,1.93c-0.51,0.5-1.15,0.75-1.92,0.75c-0.24,0-0.46-0.02-0.66-0.06
			c-0.2-0.04-0.37-0.09-0.5-0.14c0.29-0.54,0.5-1.07,0.62-1.6c0.12-0.53,0.18-1.05,0.18-1.56c0-0.54-0.15-1.01-0.46-1.42
			c-0.31-0.4-0.77-0.61-1.38-0.61c-0.75,0-1.32,0.24-1.72,0.71s-0.6,1.06-0.6,1.76c0,0.76,0.17,1.42,0.5,2.01
			c0.33,0.58,0.7,1.14,1.1,1.68c0.4,0.54,0.77,1.11,1.1,1.7c0.33,0.59,0.5,1.3,0.5,2.11c0,0.51-0.09,1.01-0.26,1.5
			c-0.17,0.49-0.41,0.92-0.7,1.3c-0.29,0.38-0.62,0.7-0.98,0.95c-0.36,0.26-0.74,0.43-1.14,0.51V94.23z"/>
		<path class="st1" d="M349.26,83.89c-0.99,1.22-2.05,2.48-3.2,3.79c-1.15,1.31-2.38,2.51-3.7,3.59c-1.32,1.08-2.73,1.97-4.24,2.67
			c-1.51,0.7-3.1,1.05-4.78,1.05c-1.6,0-2.83-0.44-3.68-1.32c-0.85-0.88-1.28-2.17-1.28-3.87c0-1.3,0.37-2.57,1.12-3.81
			c0.75-1.24,1.71-2.35,2.88-3.32s2.47-1.76,3.88-2.35c1.41-0.59,2.79-0.89,4.12-0.89c1.23,0,2.2,0.25,2.92,0.75
			c0.72,0.5,1.08,1.12,1.08,1.84c0,0.51-0.1,0.98-0.3,1.4c-0.2,0.42-0.46,0.77-0.78,1.05c-0.32,0.28-0.68,0.5-1.08,0.65
			c-0.4,0.15-0.8,0.22-1.2,0.22c-0.35,0-0.65-0.03-0.92-0.08c0.19-0.62,0.39-1.26,0.6-1.9c0.21-0.65,0.32-1.3,0.32-1.95
			c0-0.46-0.11-0.82-0.32-1.09c-0.21-0.27-0.51-0.41-0.88-0.41c-0.69,0-1.48,0.28-2.36,0.83c-0.88,0.55-1.71,1.3-2.48,2.23
			c-0.77,0.93-1.43,2-1.96,3.2c-0.53,1.2-0.8,2.45-0.8,3.75c0,1.03,0.31,1.9,0.92,2.61c0.61,0.72,1.47,1.07,2.56,1.07
			c1.31,0,2.61-0.36,3.9-1.09c1.29-0.73,2.52-1.61,3.68-2.65c1.16-1.04,2.22-2.12,3.18-3.24c0.96-1.12,1.77-2.09,2.44-2.9
			L349.26,83.89z"/>
		<path class="st1" d="M356.66,80.08c-1.25,2-2.33,3.71-3.24,5.13c-0.91,1.42-1.65,2.63-2.22,3.63c-0.57,1-1,1.82-1.28,2.45
			c-0.28,0.64-0.42,1.16-0.42,1.56c0,0.32,0.06,0.59,0.18,0.79c0.12,0.2,0.3,0.3,0.54,0.3c0.53,0,1.29-0.31,2.26-0.93
			c0.97-0.62,2.19-1.69,3.66-3.2c0.59-0.62,1.16-1.24,1.72-1.84c0.56-0.61,1.09-1.2,1.58-1.76c0.49-0.57,0.93-1.08,1.32-1.54
			c0.39-0.46,0.7-0.82,0.94-1.09l0.36,0.24c-0.32,0.43-0.71,0.93-1.18,1.48c-0.47,0.55-0.97,1.14-1.5,1.74
			c-0.53,0.61-1.08,1.21-1.64,1.8c-0.56,0.59-1.11,1.16-1.64,1.7c-1.55,1.57-2.88,2.66-3.98,3.28c-1.11,0.62-2.13,0.93-3.06,0.93
			c-0.88,0-1.56-0.24-2.04-0.73c-0.48-0.49-0.72-1.12-0.72-1.9c0-0.54,0.1-1.1,0.3-1.68c0.2-0.58,0.54-1.3,1.02-2.17
			s1.12-1.94,1.92-3.22c0.8-1.28,1.8-2.87,3-4.76L356.66,80.08z M358.98,71.09c0.51,0,0.95,0.19,1.34,0.57
			c0.39,0.38,0.58,0.82,0.58,1.34c0,0.54-0.21,1.03-0.64,1.48c-0.43,0.45-0.91,0.67-1.44,0.67c-0.59,0-1.09-0.16-1.52-0.47
			c-0.43-0.31-0.64-0.78-0.64-1.4s0.23-1.14,0.7-1.56C357.83,71.3,358.37,71.09,358.98,71.09z"/>
		<path class="st1" d="M380.7,83.73c-0.83,1.14-1.71,2.26-2.66,3.36c-0.95,1.11-2.07,2.27-3.38,3.49c-1.84,1.68-3.61,2.83-5.3,3.47
			c-1.69,0.63-3.29,0.95-4.78,0.95c-1.52,0-2.72-0.46-3.6-1.38c-0.88-0.92-1.32-2.11-1.32-3.57c0-1.3,0.39-2.58,1.16-3.85
			c0.77-1.27,1.75-2.4,2.92-3.41c1.17-1,2.46-1.81,3.86-2.43c1.4-0.62,2.73-0.93,3.98-0.93c1.15,0,2.04,0.22,2.68,0.67
			c0.64,0.45,0.96,1.07,0.96,1.89c0,0.65-0.22,1.24-0.66,1.78c-0.44,0.54-1.01,1.03-1.7,1.46c-0.69,0.43-1.47,0.81-2.34,1.14
			c-0.87,0.32-1.73,0.61-2.58,0.85c-0.85,0.24-1.65,0.45-2.4,0.61s-1.36,0.3-1.84,0.41c-0.13,0.54-0.2,1.03-0.2,1.46
			c0,1.16,0.32,2.11,0.96,2.84c0.64,0.73,1.53,1.09,2.68,1.09c1.12,0,2.35-0.34,3.7-1.01c1.35-0.67,2.7-1.66,4.06-2.96
			c1.04-1,2.04-2.05,3-3.14s1.8-2.11,2.52-3.06L380.7,83.73z M372.02,80.98c0-0.38-0.1-0.65-0.3-0.81c-0.2-0.16-0.46-0.24-0.78-0.24
			c-0.67,0-1.39,0.28-2.16,0.85c-0.77,0.57-1.5,1.26-2.18,2.09c-0.68,0.82-1.28,1.69-1.8,2.59c-0.52,0.91-0.86,1.7-1.02,2.37
			c1.09-0.22,2.13-0.57,3.12-1.07c0.99-0.5,1.86-1.07,2.62-1.7c0.76-0.63,1.37-1.31,1.82-2.03
			C371.8,82.31,372.02,81.62,372.02,80.98z"/>
		<path class="st1" d="M382.94,87.38c0.37-0.49,0.91-1.18,1.62-2.07c0.71-0.89,1.51-1.77,2.42-2.64c0.91-0.86,1.88-1.62,2.92-2.27
			c1.04-0.65,2.08-0.97,3.12-0.97c0.88,0,1.55,0.25,2,0.75c0.45,0.5,0.68,1.12,0.68,1.84c0,0.92-0.29,1.86-0.86,2.82
			c-0.57,0.96-1.21,1.92-1.9,2.88c-0.69,0.96-1.33,1.88-1.9,2.76c-0.57,0.88-0.86,1.7-0.86,2.45c0,0.32,0.08,0.59,0.24,0.79
			s0.43,0.3,0.8,0.3c0.37,0,0.99-0.29,1.86-0.87c0.87-0.58,2.03-1.65,3.5-3.22c1.15-1.24,2.2-2.45,3.16-3.63
			c0.96-1.18,1.68-2.06,2.16-2.65l0.4,0.2c-0.69,0.84-1.55,1.88-2.56,3.12c-1.01,1.24-2.09,2.47-3.24,3.69
			c-1.39,1.49-2.57,2.54-3.54,3.16c-0.97,0.62-1.98,0.93-3.02,0.93c-1.01,0-1.76-0.28-2.24-0.85c-0.48-0.57-0.72-1.22-0.72-1.95
			c0-0.92,0.29-1.86,0.86-2.84c0.57-0.97,1.21-1.93,1.9-2.86c0.69-0.93,1.33-1.82,1.9-2.65c0.57-0.84,0.86-1.57,0.86-2.19
			c0-0.3-0.09-0.54-0.28-0.73c-0.19-0.19-0.47-0.28-0.84-0.28c-0.53,0-1.16,0.25-1.88,0.75c-0.72,0.5-1.48,1.15-2.28,1.95
			c-0.8,0.8-1.61,1.7-2.44,2.72c-0.83,1.01-1.61,2.03-2.34,3.04c-0.73,1.01-1.39,1.99-1.98,2.94c-0.59,0.95-1.05,1.76-1.4,2.43
			l-4.04,0.12c1.41-2.38,2.83-4.74,4.26-7.07c1.43-2.34,2.83-4.74,4.22-7.19l4.56-0.16l-5.2,7.38L382.94,87.38z"/>
		<path class="st1" d="M421.02,83.89c-0.99,1.22-2.05,2.48-3.2,3.79c-1.15,1.31-2.38,2.51-3.7,3.59c-1.32,1.08-2.73,1.97-4.24,2.67
			c-1.51,0.7-3.1,1.05-4.78,1.05c-1.6,0-2.83-0.44-3.68-1.32c-0.85-0.88-1.28-2.17-1.28-3.87c0-1.3,0.37-2.57,1.12-3.81
			c0.75-1.24,1.71-2.35,2.88-3.32c1.17-0.97,2.47-1.76,3.88-2.35c1.41-0.59,2.79-0.89,4.12-0.89c1.23,0,2.2,0.25,2.92,0.75
			c0.72,0.5,1.08,1.12,1.08,1.84c0,0.51-0.1,0.98-0.3,1.4c-0.2,0.42-0.46,0.77-0.78,1.05s-0.68,0.5-1.08,0.65
			c-0.4,0.15-0.8,0.22-1.2,0.22c-0.35,0-0.65-0.03-0.92-0.08c0.19-0.62,0.39-1.26,0.6-1.9c0.21-0.65,0.32-1.3,0.32-1.95
			c0-0.46-0.11-0.82-0.32-1.09c-0.21-0.27-0.51-0.41-0.88-0.41c-0.69,0-1.48,0.28-2.36,0.83c-0.88,0.55-1.71,1.3-2.48,2.23
			c-0.77,0.93-1.43,2-1.96,3.2c-0.53,1.2-0.8,2.45-0.8,3.75c0,1.03,0.31,1.9,0.92,2.61c0.61,0.72,1.47,1.07,2.56,1.07
			c1.31,0,2.61-0.36,3.9-1.09c1.29-0.73,2.52-1.61,3.68-2.65c1.16-1.04,2.22-2.12,3.18-3.24s1.77-2.09,2.44-2.9L421.02,83.89z"/>
		<path class="st1" d="M428.42,80.08c-1.25,2-2.33,3.71-3.24,5.13c-0.91,1.42-1.65,2.63-2.22,3.63c-0.57,1-1,1.82-1.28,2.45
			c-0.28,0.64-0.42,1.16-0.42,1.56c0,0.32,0.06,0.59,0.18,0.79c0.12,0.2,0.3,0.3,0.54,0.3c0.53,0,1.29-0.31,2.26-0.93
			c0.97-0.62,2.19-1.69,3.66-3.2c0.59-0.62,1.16-1.24,1.72-1.84c0.56-0.61,1.09-1.2,1.58-1.76c0.49-0.57,0.93-1.08,1.32-1.54
			c0.39-0.46,0.7-0.82,0.94-1.09l0.36,0.24c-0.32,0.43-0.71,0.93-1.18,1.48c-0.47,0.55-0.97,1.14-1.5,1.74
			c-0.53,0.61-1.08,1.21-1.64,1.8c-0.56,0.59-1.11,1.16-1.64,1.7c-1.55,1.57-2.87,2.66-3.98,3.28c-1.11,0.62-2.13,0.93-3.06,0.93
			c-0.88,0-1.56-0.24-2.04-0.73c-0.48-0.49-0.72-1.12-0.72-1.9c0-0.54,0.1-1.1,0.3-1.68c0.2-0.58,0.54-1.3,1.02-2.17
			c0.48-0.86,1.12-1.94,1.92-3.22c0.8-1.28,1.8-2.87,3-4.76L428.42,80.08z M430.74,71.09c0.51,0,0.95,0.19,1.34,0.57
			c0.39,0.38,0.58,0.82,0.58,1.34c0,0.54-0.21,1.03-0.64,1.48c-0.43,0.45-0.91,0.67-1.44,0.67c-0.59,0-1.09-0.16-1.52-0.47
			c-0.43-0.31-0.64-0.78-0.64-1.4s0.23-1.14,0.7-1.56S430.13,71.09,430.74,71.09z"/>
		<path class="st1" d="M447.22,80.33l4.16-0.24c-0.24,0.49-0.59,1.07-1.04,1.76c-0.45,0.69-0.95,1.43-1.48,2.23
			c-0.53,0.8-1.07,1.62-1.62,2.47c-0.55,0.85-1.05,1.68-1.5,2.47c-0.45,0.8-0.82,1.54-1.1,2.23c-0.28,0.69-0.42,1.28-0.42,1.76
			c0,0.68,0.33,1.01,1,1.01c0.64,0,1.51-0.38,2.6-1.14c1.09-0.76,2.24-1.76,3.44-3c0.51-0.51,1.02-1.07,1.54-1.66
			c0.52-0.59,1.02-1.18,1.5-1.76c0.48-0.58,0.92-1.12,1.32-1.62c0.4-0.5,0.72-0.91,0.96-1.24l0.28,0.16
			c-0.69,0.95-1.49,1.99-2.4,3.14c-0.91,1.15-2,2.37-3.28,3.67c-1.28,1.3-2.54,2.36-3.78,3.18c-1.24,0.82-2.47,1.24-3.7,1.24
			c-0.85,0-1.51-0.22-1.98-0.67c-0.47-0.45-0.7-0.99-0.7-1.64c0-0.22,0.01-0.42,0.04-0.61c0.03-0.19,0.07-0.34,0.12-0.45h-0.08
			c-0.83,0.95-1.76,1.74-2.8,2.39c-1.04,0.65-2.16,0.97-3.36,0.97c-0.64,0-1.19-0.12-1.64-0.37c-0.45-0.24-0.82-0.57-1.1-0.99
			c-0.28-0.42-0.49-0.89-0.62-1.42c-0.13-0.53-0.2-1.07-0.2-1.64c0-1.32,0.36-2.65,1.08-3.97c0.72-1.32,1.63-2.52,2.72-3.59
			c1.09-1.07,2.31-1.93,3.66-2.59c1.35-0.66,2.63-0.99,3.86-0.99c0.93,0,1.67,0.2,2.2,0.61c0.53,0.4,0.97,1.04,1.32,1.9
			L447.22,80.33z M435.22,90.7c0,0.78,0.13,1.47,0.38,2.05c0.25,0.58,0.79,0.87,1.62,0.87c0.56-0.03,1.15-0.26,1.76-0.71
			c0.61-0.45,1.21-1.01,1.78-1.68c0.57-0.67,1.12-1.42,1.64-2.25c0.52-0.82,0.97-1.66,1.36-2.49c0.39-0.84,0.69-1.63,0.92-2.37
			c0.23-0.74,0.34-1.37,0.34-1.88c0-0.73-0.13-1.3-0.4-1.7c-0.27-0.4-0.79-0.61-1.56-0.61c-0.61,0-1.23,0.19-1.86,0.57
			c-0.63,0.38-1.23,0.88-1.8,1.5c-0.57,0.62-1.12,1.32-1.64,2.09c-0.52,0.77-0.97,1.56-1.34,2.37c-0.37,0.81-0.67,1.59-0.88,2.33
			C435.33,89.52,435.22,90.16,435.22,90.7z"/>
	</g>
</g>
</svg>
