<?xml version="1.0" encoding="utf-8"?>
<!-- Generator: Adobe Illustrator 24.0.0, SVG Export Plug-In . SVG Version: 6.00 Build 0)  -->
<svg version="1.1" id="Capa_1" xmlns="http://www.w3.org/2000/svg" xmlns:xlink="http://www.w3.org/1999/xlink" x="0px" y="0px"
	 viewBox="0 0 630 166" style="enable-background:new 0 0 630 166;" xml:space="preserve">
<style type="text/css">
	.st0{fill:#FF4B5B;}
	.st1{clip-path:url(#SVGID_2_);fill:#FF4B5B;}
	.st2{clip-path:url(#SVGID_4_);fill:#FF4B5B;}
	.st3{clip-path:url(#SVGID_6_);fill:#FF4B5B;}
	.st4{clip-path:url(#SVGID_8_);fill:#FF4B5B;}
	.st5{clip-path:url(#SVGID_10_);fill:#FF4B5B;}
	.st6{clip-path:url(#SVGID_12_);fill:#FF4B5B;}
	.st7{clip-path:url(#SVGID_14_);fill:#FF4B5B;}
	.st8{clip-path:url(#SVGID_16_);fill:#FF4B5B;}
	.st9{clip-path:url(#SVGID_18_);fill:#FF4B5B;}
	.st10{clip-path:url(#SVGID_20_);fill:#FF4B5B;}
	.st11{clip-path:url(#SVGID_22_);fill:#FF4B5B;}
	.st12{clip-path:url(#SVGID_24_);fill:#FF4B5B;}
	.st13{clip-path:url(#SVGID_26_);fill:#FF4B5B;}
	.st14{clip-path:url(#SVGID_28_);fill:#FF4B5B;}
	.st15{clip-path:url(#SVGID_30_);fill:#FF4B5B;}
	.st16{clip-path:url(#SVGID_32_);fill:#FF4B5B;}
	.st17{clip-path:url(#SVGID_34_);fill:#FF4B5B;}
	.st18{clip-path:url(#SVGID_36_);fill:#FF4B5B;}
	.st19{clip-path:url(#SVGID_38_);fill:#FF4B5B;}
	.st20{clip-path:url(#SVGID_40_);fill:#FF4B5B;}
	.st21{clip-path:url(#SVGID_42_);fill:#FF4B5B;}
	.st22{clip-path:url(#SVGID_44_);fill:#FF4B5B;}
	.st23{clip-path:url(#SVGID_46_);fill:#FF4B5B;}
	.st24{clip-path:url(#SVGID_48_);fill:#FF4B5B;}
	.st25{clip-path:url(#SVGID_50_);fill:#FF4B5B;}
	.st26{clip-path:url(#SVGID_52_);fill:#FF4B5B;}
	.st27{clip-path:url(#SVGID_54_);fill:#FF4B5B;}
	.st28{clip-path:url(#SVGID_56_);fill:#FF4B5B;}
	.st29{clip-path:url(#SVGID_58_);fill:#FF4B5B;}
</style>
<g>
	<g>
		<path class="st0" d="M99.35,143.6V82.65h25.45c2.97,0,5.63,0.43,7.98,1.3c2.35,0.87,4.35,2.07,6,3.61
			c1.65,1.54,2.9,3.38,3.77,5.51c0.86,2.14,1.3,4.45,1.3,6.93s-0.45,4.81-1.34,6.97c-0.89,2.16-2.16,4.01-3.81,5.55
			c-1.65,1.54-3.65,2.76-6,3.65c-2.35,0.89-4.98,1.34-7.9,1.34h-20.67v26.1H99.35z M104.05,112.56h21.08c2.11,0,4.02-0.31,5.75-0.93
			c1.73-0.62,3.2-1.5,4.42-2.63c1.22-1.13,2.16-2.47,2.84-4.01c0.67-1.54,1.01-3.2,1.01-4.98s-0.32-3.43-0.97-4.94
			c-0.65-1.51-1.58-2.82-2.8-3.93c-1.22-1.11-2.69-1.96-4.42-2.55c-1.73-0.59-3.65-0.89-5.75-0.89h-21.07L104.05,112.56z"/>
		<path class="st0" d="M139.55,143.6L165,82.65h7.29l25.29,60.95h-5.19l-8.19-19.21h-31.29l-8.19,19.21H139.55z M168.73,86.78
			l-13.54,32.66h26.83L168.73,86.78z"/>
		<path class="st0" d="M209.9,98.7c0,2.59,0.63,4.61,1.9,6.04c1.27,1.43,2.94,2.53,5.03,3.28c2.08,0.76,4.44,1.28,7.09,1.58
			c2.65,0.3,5.35,0.61,8.11,0.93c2.76,0.32,5.46,0.76,8.11,1.3c2.65,0.54,5.01,1.42,7.09,2.63c2.08,1.22,3.75,2.89,5.03,5.03
			c1.27,2.13,1.91,4.96,1.91,8.47c0,3.35-0.81,6.13-2.43,8.35c-1.62,2.22-3.69,3.99-6.2,5.31c-2.51,1.32-5.27,2.25-8.27,2.79
			c-3,0.54-5.88,0.81-8.63,0.81c-2.86,0-5.74-0.32-8.63-0.97c-2.89-0.65-5.54-1.68-7.94-3.08c-2.4-1.41-4.45-3.2-6.12-5.39
			c-1.68-2.19-2.76-4.85-3.24-7.98l4.94-1.13c0.32,2.54,1.18,4.69,2.55,6.44c1.38,1.76,3.05,3.19,5.03,4.3
			c1.97,1.11,4.13,1.92,6.48,2.43c2.35,0.51,4.66,0.77,6.93,0.77c2.11,0,4.36-0.19,6.77-0.57c2.4-0.38,4.62-1.06,6.65-2.03
			c2.03-0.97,3.7-2.32,5.03-4.05c1.32-1.73,1.99-3.92,1.99-6.57c0-2.7-0.64-4.83-1.9-6.4c-1.27-1.56-2.93-2.75-4.98-3.56
			c-2.06-0.81-4.4-1.39-7.05-1.74c-2.65-0.35-5.36-0.68-8.15-0.97c-2.78-0.3-5.5-0.69-8.15-1.18c-2.65-0.49-5-1.31-7.05-2.47
			c-2.06-1.16-3.72-2.75-4.99-4.78c-1.27-2.03-1.9-4.74-1.9-8.15c0-3.08,0.72-5.73,2.15-7.94c1.43-2.22,3.27-4.03,5.51-5.43
			c2.24-1.41,4.75-2.43,7.54-3.08c2.78-0.65,5.5-0.97,8.15-0.97c2.54,0,5.16,0.28,7.86,0.85c2.7,0.57,5.2,1.49,7.5,2.76
			c2.3,1.27,4.27,2.9,5.92,4.9c1.65,2,2.72,4.43,3.2,7.3l-4.94,1.05c-0.38-2.38-1.22-4.35-2.51-5.92c-1.3-1.57-2.85-2.81-4.66-3.73
			c-1.81-0.92-3.8-1.58-5.96-1.99c-2.16-0.41-4.32-0.61-6.49-0.61c-2,0-4.08,0.24-6.24,0.73c-2.16,0.49-4.13,1.26-5.92,2.31
			c-1.78,1.05-3.24,2.43-4.38,4.13C210.47,94.2,209.9,96.27,209.9,98.7z"/>
		<path class="st0" d="M258.86,143.6l25.45-60.95h7.3l25.29,60.95h-5.19l-8.19-19.21h-31.29l-8.19,19.21H258.86z M288.04,86.78
			l-13.54,32.66h26.83L288.04,86.78z"/>
		<path class="st0" d="M327.27,143.6V82.65h27.88c3.13,0,5.86,0.42,8.19,1.26c2.32,0.84,4.27,2.04,5.84,3.61
			c1.57,1.57,2.73,3.43,3.49,5.59c0.76,2.16,1.13,4.51,1.13,7.05c0,3.46-0.97,6.47-2.92,9.04c-1.95,2.57-4.62,4.55-8.03,5.96
			l14.43,28.45h-5.67l-13.37-26.91H332.3v26.91H327.27z M332.3,111.67h22.7c2.11,0,4.03-0.28,5.76-0.85
			c1.73-0.57,3.21-1.38,4.46-2.43c1.24-1.05,2.2-2.31,2.88-3.77c0.68-1.46,1.01-3.05,1.01-4.78c0-1.73-0.27-3.35-0.81-4.86
			c-0.54-1.51-1.39-2.84-2.55-3.97c-1.16-1.13-2.63-2.03-4.42-2.68c-1.78-0.65-3.89-0.97-6.32-0.97h-22.7V111.67z"/>
		<path class="st0" d="M439.61,132.66l-0.16,0.49c0,0.06-0.3,0.7-0.89,1.95c-0.6,1.24-1.76,2.65-3.48,4.21
			c-1.41,1.3-2.93,2.35-4.58,3.16c-1.65,0.81-3.32,1.45-5.03,1.9c-1.7,0.46-3.38,0.77-5.03,0.93c-1.65,0.16-3.18,0.25-4.58,0.25
			c-4.7,0-8.96-0.65-12.77-1.95c-3.81-1.3-7.09-3.24-9.85-5.84c-2.43-2.27-4.34-4.89-5.71-7.86c-1.38-2.97-2.15-6.13-2.31-9.49
			c0-1.62,0.07-3.08,0.2-4.38c0.13-1.3,0.38-2.79,0.73-4.5c0.35-1.7,0.9-3.43,1.66-5.19c0.76-1.75,1.73-3.49,2.92-5.19
			c1.19-1.7,2.67-3.23,4.46-4.58h5.51l-0.65,0.4c-2.05,2.06-3.67,4.01-4.86,5.88c-1.19,1.87-2.28,4.13-3.28,6.81
			c-1,2.68-1.5,5.72-1.5,9.12c0,3.51,0.68,6.8,2.03,9.85c1.35,3.06,3.17,5.7,5.47,7.94c2.3,2.24,5,4,8.11,5.27
			c3.11,1.27,6.39,1.9,9.85,1.9c2,0,3.78-0.18,5.35-0.53c1.57-0.35,2.96-0.78,4.17-1.3c1.22-0.51,2.27-1.09,3.16-1.74
			c0.89-0.65,1.63-1.27,2.23-1.87c1.35-1.35,2.27-2.58,2.76-3.69c0.49-1.11,0.73-1.69,0.73-1.74v-0.24H439.61z M404.84,91.97
			c0.05-0.97,0.16-1.83,0.32-2.55c0.16-0.73,0.45-1.51,0.85-2.35c0.41-0.84,0.99-1.66,1.74-2.47c2.38-2.43,5.89-3.65,10.54-3.65
			c0.11,0,0.22,0,0.32,0c3.78,0,6.8,1.04,9.04,3.12c2.24,2.08,3.36,5.01,3.36,8.8v0.24h-5.19v-0.24c0-1.19-0.1-2.39-0.28-3.61
			c-0.19-1.21-0.57-2.32-1.13-3.32c-0.57-1-1.35-1.82-2.35-2.47c-1-0.65-2.28-0.97-3.85-0.97c-1.51,0-2.78,0.27-3.81,0.81
			c-1.03,0.54-1.86,1.26-2.51,2.15c-0.65,0.89-1.12,1.94-1.42,3.16c-0.3,1.22-0.45,2.5-0.45,3.85v25.21c0,3.03-0.93,5.26-2.8,6.69
			c-1.86,1.43-4.23,2.15-7.09,2.15l-0.49-0.08h-0.49v-1.38h0.24c0.05,0,0.36-0.04,0.93-0.12c0.57-0.08,1.19-0.35,1.86-0.81
			c0.67-0.46,1.28-1.19,1.82-2.19c0.54-1,0.81-2.42,0.81-4.26V91.97z M427.05,111.5h-12.48l2.84-4.78h12.24L427.05,111.5z"/>
		<path class="st0" d="M489.87,138.58v5.02h-42.47V82.65h5.03v55.93H489.87z"/>
		<path class="st0" d="M492.05,143.6l25.45-60.95h7.29l25.29,60.95h-5.19l-8.19-19.21h-31.29l-8.19,19.21H492.05z M521.24,86.78
			l-13.54,32.66h26.83L521.24,86.78z"/>
	</g>
	<g>
		<path class="st0" d="M563.85,139.01c0,2.32-1.78,4.19-4.06,4.19c-2.3,0-4.1-1.86-4.1-4.19c0-2.3,1.81-4.16,4.1-4.16
			C562.07,134.85,563.85,136.71,563.85,139.01z M556.36,139.05c0,2.01,1.49,3.59,3.43,3.59c1.9,0,3.39-1.58,3.39-3.63
			c0-2.01-1.49-3.6-3.39-3.6C557.84,135.41,556.36,137,556.36,139.05z M561.43,137.47c-0.18-0.09-0.68-0.31-1.31-0.31
			c-1.27,0-1.89,0.81-1.89,1.89c0,1.05,0.66,1.9,1.9,1.9c0.54,0,1.05-0.15,1.36-0.35l0.16,0.51c-0.47,0.31-1.09,0.42-1.66,0.42
			c-1.57,0-2.47-1.08-2.47-2.44c0-1.54,1.22-2.51,2.58-2.51c0.7,0,1.31,0.2,1.48,0.36L561.43,137.47z"/>
	</g>
	<polygon class="st0" points="591.48,24.44 598.63,24.44 598.63,26.3 593.55,26.3 593.55,28.22 598.02,28.22 598.02,30.07 
		593.55,30.07 593.55,32.06 598.7,32.06 598.7,33.92 591.48,33.92 	"/>
	<g>
		<defs>
			<rect id="SVGID_1_" width="630" height="165.76"/>
		</defs>
		<clipPath id="SVGID_2_">
			<use xlink:href="#SVGID_1_"  style="overflow:visible;"/>
		</clipPath>
		<path class="st1" d="M600.56,24.44h3.7c2.98,0,5.04,2.05,5.04,4.71v0.03c0,2.67-2.06,4.74-5.04,4.74h-3.7V24.44z M604.25,32.04
			c1.71,0,2.86-1.15,2.86-2.83v-0.03c0-1.68-1.15-2.86-2.86-2.86h-1.61v5.71H604.25z"/>
		<path class="st1" d="M611.15,24.44h3.7c2.98,0,5.04,2.05,5.04,4.71v0.03c0,2.67-2.06,4.74-5.04,4.74h-3.7V24.44z M614.85,32.04
			c1.71,0,2.86-1.15,2.86-2.83v-0.03c0-1.68-1.15-2.86-2.86-2.86h-1.61v5.71H614.85z"/>
	</g>
	<path class="st0" d="M583.27,6.77h44.82v44.82h-44.82V6.77z M581.37,53.5H630V4.86h-48.63V53.5z"/>
	<g>
		<defs>
			<rect id="SVGID_3_" width="630" height="165.76"/>
		</defs>
		<clipPath id="SVGID_4_">
			<use xlink:href="#SVGID_3_"  style="overflow:visible;"/>
		</clipPath>
		<path class="st2" d="M6.6,47.68c0-0.26,0-0.31-0.38-0.39v-0.13h0.4c0.46,0,0.57-0.02,0.57-0.02l0.03,0.02c0,0-0.17,0.2-0.17,0.64
			v1.61c0,0.78,0.51,1.12,1.02,1.12c0.51,0,1.05-0.36,1.05-1.08V47.7c0-0.24-0.01-0.36-0.41-0.4v-0.15h0.99l0.03,0.07
			c0,0-0.35,0.1-0.35,0.54v1.66c0,0.87-0.64,1.34-1.41,1.34c-0.67,0-1.35-0.34-1.35-1.31V47.68z"/>
		<path class="st2" d="M10.1,50.57c0.21-0.02,0.33-0.12,0.33-0.3v-2.15c0-0.33-0.07-0.42-0.38-0.48v-0.12h0.14
			c0.22,0,0.46-0.02,0.46-0.02s0.06,0.11,0.17,0.25l1.65,2c0.06,0.08,0.13,0.18,0.18,0.25v-1.99c0-0.21,0-0.32-0.38-0.36v-0.13h0.87
			l0.02,0.07c0,0-0.32,0.09-0.32,0.49v2.65h-0.12l-1.94-2.4c-0.06-0.07-0.12-0.16-0.16-0.23v2.17c0,0.14-0.02,0.26-0.02,0.26
			l0.41,0.03L11,50.69l-0.9,0.03V50.57z"/>
		<path class="st2" d="M13.59,50.57c0.2-0.02,0.33-0.13,0.33-0.3v-2.28c0-0.23,0-0.28-0.34-0.35v-0.12h0.36
			c0.41,0,0.51-0.02,0.51-0.02l0.02,0.02c0,0-0.15,0.18-0.15,0.58v2.17c0,0.14-0.02,0.24-0.02,0.24l0.43,0.04l-0.02,0.13l-1.13,0.03
			V50.57z"/>
		<path class="st2" d="M15.12,47.9c-0.08-0.21-0.27-0.26-0.27-0.26v-0.12h0.28c0.29,0,0.47-0.02,0.47-0.02l0.02,0.02
			c-0.05,0.11-0.08,0.3-0.03,0.44l0.67,1.89c0.03,0.09,0.06,0.21,0.09,0.3l0.82-2.09c0.09-0.22,0.02-0.34-0.22-0.41v-0.12h0.7
			l0.02,0.07c0,0-0.13,0.09-0.3,0.51l-1.05,2.65l-0.15-0.06L15.12,47.9z"/>
		<path class="st2" d="M17.92,50.57c0.21-0.02,0.33-0.12,0.33-0.3v-2.28c0-0.23-0.02-0.28-0.38-0.35v-0.12h1.88
			c0.19,0,0.33-0.02,0.33-0.02l-0.14,0.8h-0.16c0.02-0.49-0.13-0.59-0.49-0.59h-0.6l-0.05,0.05V49h0.85l0.04-0.27l0.17-0.03v0.84
			h-0.22v-0.35H18.7l-0.05,0.05v1.02c0,0.14-0.02,0.27-0.02,0.27h0.72c0.39,0,0.45-0.09,0.68-0.59h0.16l-0.17,0.78h-1.43
			c-0.23,0-0.66,0.01-0.66,0.01V50.57z"/>
		<path class="st2" d="M21.7,49.12c0.27,0,0.59-0.23,0.59-0.69c0-0.36-0.2-0.7-0.76-0.7h-0.17l-0.04,0.05v1.34H21.7z M20.6,50.57
			c0.2-0.02,0.33-0.13,0.33-0.29V48c0-0.23-0.02-0.27-0.37-0.35v-0.12h1.06c0.82,0,1.13,0.35,1.13,0.76c0,0.45-0.38,0.75-0.6,0.87
			v0.06l0.66,1c0.19,0.29,0.29,0.3,0.4,0.31l0.05,0l-0.02,0.15h-0.66l-0.02-0.01c0,0-0.09-0.24-0.28-0.52L21.7,49.3h-0.33
			l-0.04,0.05v0.93c0,0.14-0.02,0.24-0.02,0.24l0.41,0.04l-0.02,0.13l-1.1,0.03V50.57z"/>
		<path class="st2" d="M23.51,49.85h0.15c0,0.58,0.35,0.73,0.66,0.73c0.29,0,0.58-0.13,0.58-0.5c0-0.83-1.42-0.81-1.42-1.78
			c0-0.47,0.34-0.83,1.01-0.83c0.32,0,0.65,0.08,0.75,0.09l-0.14,0.74h-0.15c0.05-0.36-0.13-0.65-0.51-0.65
			c-0.31,0-0.56,0.15-0.56,0.49c0,0.83,1.42,0.75,1.42,1.77c0,0.57-0.47,0.84-1.01,0.84c-0.4,0-0.88-0.14-0.88-0.49
			C23.41,50.2,23.42,50.14,23.51,49.85"/>
		<path class="st2" d="M25.75,50.57c0.2-0.02,0.33-0.13,0.33-0.29V48c0-0.23,0-0.27-0.34-0.35v-0.12h0.36
			c0.41,0,0.51-0.02,0.51-0.02l0.02,0.02c0,0-0.15,0.18-0.15,0.57v2.16c0,0.14-0.02,0.24-0.02,0.24l0.43,0.04l-0.02,0.13l-1.12,0.03
			V50.57z"/>
		<path class="st2" d="M28.29,50.52c1.06,0,1.45-0.62,1.45-1.4c0-0.84-0.45-1.39-1.3-1.39h-0.41l-0.04,0.05v2.48
			c0,0.14-0.02,0.27-0.02,0.27H28.29z M27.26,50.57c0.21-0.02,0.33-0.12,0.33-0.29V48c0-0.23-0.02-0.27-0.37-0.35v-0.12h1.25
			c0.88,0,1.73,0.35,1.73,1.47c0,1.07-0.77,1.7-1.9,1.7h-0.37c-0.23,0-0.66,0.01-0.66,0.01V50.57z"/>
		<path class="st2" d="M31.67,48.04l-0.51,1.37h0.99l-0.39-1.08C31.73,48.24,31.69,48.11,31.67,48.04 M30.3,50.57
			c0.19-0.02,0.27-0.12,0.31-0.21l1.08-2.8l0.19-0.04l1.01,2.7c0.12,0.32,0.2,0.35,0.35,0.37l-0.02,0.13h-0.2
			c-0.17,0-0.69,0.01-0.69,0.01v-0.16c0.13-0.01,0.24-0.04,0.19-0.19l-0.28-0.76h-1.09l-0.06,0.05l-0.31,0.85l0.39,0.06l-0.02,0.13
			H30.3V50.57z"/>
		<path class="st2" d="M34.46,50.52c1.06,0,1.45-0.62,1.45-1.4c0-0.84-0.45-1.39-1.3-1.39h-0.41l-0.04,0.05v2.48
			c0,0.14-0.02,0.27-0.02,0.27H34.46z M33.44,50.57c0.2-0.02,0.33-0.12,0.33-0.29V48c0-0.23-0.02-0.27-0.37-0.35v-0.12h1.25
			c0.88,0,1.73,0.35,1.73,1.47c0,1.07-0.77,1.7-1.9,1.7h-0.37c-0.23,0-0.66,0.01-0.66,0.01V50.57z"/>
		<path class="st2" d="M39.03,50.5c1.19,0,1.63-0.69,1.63-1.58c0-0.94-0.5-1.56-1.46-1.56h-0.46l-0.05,0.05v2.78
			c0,0.16-0.03,0.3-0.03,0.3H39.03z M37.88,50.55c0.23-0.03,0.37-0.14,0.37-0.33v-2.55c0-0.26-0.03-0.31-0.42-0.39v-0.13h1.4
			c0.99,0,1.94,0.39,1.94,1.65c0,1.2-0.86,1.9-2.14,1.9h-0.41c-0.25,0-0.74,0.02-0.74,0.02V50.55z"/>
		<path class="st2" d="M42.77,49.12c0.27,0,0.59-0.23,0.59-0.69c0-0.36-0.2-0.7-0.76-0.7h-0.17l-0.04,0.05v1.34H42.77z M41.66,50.57
			c0.2-0.02,0.33-0.13,0.33-0.29V48c0-0.23-0.02-0.27-0.37-0.35v-0.12h1.06c0.82,0,1.13,0.35,1.13,0.76c0,0.45-0.38,0.75-0.6,0.87
			v0.06l0.66,1c0.2,0.29,0.29,0.3,0.4,0.31l0.05,0l-0.02,0.15h-0.66l-0.02-0.01c0,0-0.09-0.24-0.28-0.52l-0.56-0.87h-0.33
			l-0.04,0.05v0.93c0,0.14-0.02,0.24-0.02,0.24l0.41,0.04l-0.02,0.13l-1.1,0.03V50.57z"/>
		<path class="st2" d="M44.8,50.19c0.15,0,0.27,0.13,0.27,0.29c0,0.16-0.12,0.29-0.27,0.29c-0.15,0-0.27-0.13-0.27-0.29
			C44.53,50.32,44.65,50.19,44.8,50.19"/>
		<path class="st2" d="M47.07,47.68c0-0.26,0-0.31-0.38-0.39v-0.13h0.4c0.46,0,0.57-0.02,0.57-0.02l0.03,0.02
			c0,0-0.17,0.2-0.17,0.64v2.36c0,0.89-0.36,1.41-0.93,1.41l-0.06-0.13c0.28-0.04,0.54-0.46,0.54-1.01V47.68z"/>
		<path class="st2" d="M49.88,50.57c0.71,0,1.13-0.75,1.13-1.44c0-0.71-0.43-1.46-1.18-1.46c-0.71,0-1.12,0.67-1.12,1.37
			C48.7,49.75,49.13,50.57,49.88,50.57 M49.9,47.48c0.95,0,1.55,0.67,1.55,1.53c0,0.91-0.66,1.75-1.67,1.75
			c-0.93,0-1.54-0.74-1.54-1.6C48.25,48.31,48.84,47.48,49.9,47.48"/>
		<path class="st2" d="M51.97,49.85h0.15c0,0.58,0.35,0.73,0.66,0.73c0.29,0,0.58-0.13,0.58-0.5c0-0.83-1.42-0.81-1.42-1.78
			c0-0.47,0.34-0.83,1.01-0.83c0.32,0,0.65,0.08,0.75,0.09l-0.14,0.74H53.4c0.04-0.36-0.13-0.65-0.51-0.65
			c-0.31,0-0.56,0.15-0.56,0.49c0,0.83,1.42,0.75,1.42,1.77c0,0.57-0.47,0.84-1.01,0.84c-0.4,0-0.88-0.14-0.88-0.49
			C51.86,50.2,51.88,50.14,51.97,49.85"/>
		<path class="st2" d="M55.77,46.62h0.02l0.15,0.25v0.12l-0.92,0.29l-0.06-0.16L55.77,46.62z M54.21,50.57
			c0.2-0.02,0.33-0.12,0.33-0.29V48c0-0.23-0.02-0.27-0.37-0.35v-0.12h1.87c0.19,0,0.33-0.02,0.33-0.02l-0.14,0.79h-0.15
			c0.02-0.49-0.13-0.59-0.49-0.59h-0.6l-0.04,0.05v1.23h0.84l0.04-0.27l0.17-0.03v0.83h-0.21v-0.35h-0.79l-0.04,0.05v1.02
			c0,0.14-0.02,0.27-0.02,0.27h0.71c0.39,0,0.45-0.09,0.67-0.59h0.15l-0.17,0.77h-1.42c-0.23,0-0.66,0.01-0.66,0.01V50.57z"/>
		<path class="st2" d="M0,58.03c0.37-0.04,0.58-0.21,0.6-0.51l0.16-3.97c0.02-0.4-0.03-0.48-0.67-0.61v-0.21h0.66
			c0.66,0,0.91-0.03,0.91-0.03l0.03,0.03c0,0,0.11,0.43,0.24,0.76l1.27,3.25c0.06,0.14,0.12,0.32,0.16,0.47l1.61-3.92
			c0.07-0.17,0.18-0.57,0.18-0.57h0.22c0.73,0,0.9-0.03,0.9-0.03l0.04,0.03c0,0-0.29,0.34-0.27,1.05l0.16,3.76
			c0.01,0.26-0.02,0.42-0.02,0.42l0.73,0.05l-0.03,0.23L4.89,58.3v-0.27c0.36-0.04,0.61-0.21,0.6-0.49L5.3,53.45l-1.99,4.82
			l-0.26-0.1l-1.92-4.71c0,0-0.02,0.17-0.02,0.32l-0.15,3.73c-0.01,0.23-0.06,0.45-0.06,0.45l0.76,0.05l-0.03,0.23L0,58.3V58.03z"/>
		<path class="st2" d="M9.36,54.1l-0.82,2.15h1.61l-0.64-1.69C9.45,54.41,9.39,54.21,9.36,54.1 M7.11,58.06
			c0.31-0.03,0.44-0.19,0.5-0.33l1.76-4.38l0.3-0.07l1.65,4.22c0.2,0.51,0.33,0.54,0.56,0.58l-0.03,0.2h-0.32
			c-0.27,0-1.13,0.02-1.13,0.02v-0.25c0.21-0.01,0.39-0.07,0.31-0.29l-0.45-1.19H8.49l-0.1,0.07l-0.51,1.34l0.63,0.09l-0.03,0.21
			H7.11V58.06z"/>
		<path class="st2" d="M12.88,58.06c0.33-0.04,0.53-0.21,0.53-0.48v-3.97h-0.73c-0.51,0-0.74,0.16-1.02,0.92h-0.25l0.23-1.25
			c0,0,0.19,0.04,0.5,0.04h3.48c0.3,0,0.53-0.04,0.53-0.04l-0.23,1.25h-0.25c0.04-0.76-0.21-0.92-0.79-0.92h-0.73l-0.07,0.07v3.89
			c0,0.22-0.04,0.4-0.04,0.4l0.74,0.07l-0.03,0.21l-1.86,0.04V58.06z"/>
		<path class="st2" d="M17.85,51.87h0.04l0.25,0.39v0.19l-1.5,0.45l-0.1-0.25L17.85,51.87z M16.36,58.06
			c0.33-0.04,0.53-0.21,0.53-0.46v-3.55c0-0.36,0-0.43-0.55-0.54v-0.19h0.58c0.67,0,0.83-0.03,0.83-0.03l0.04,0.03
			c0,0-0.24,0.28-0.24,0.9v3.38c0,0.22-0.04,0.38-0.04,0.38l0.71,0.07l-0.03,0.21l-1.83,0.04V58.06z"/>
		<path class="st2" d="M20.66,54.1l-0.82,2.15h1.61l-0.64-1.69C20.74,54.41,20.68,54.21,20.66,54.1 M18.4,58.06
			c0.31-0.03,0.44-0.19,0.5-0.33l1.76-4.38l0.3-0.07l1.65,4.22c0.2,0.51,0.33,0.54,0.56,0.58l-0.03,0.2h-0.32
			c-0.27,0-1.13,0.02-1.13,0.02v-0.25c0.21-0.01,0.39-0.07,0.31-0.29l-0.45-1.19h-1.78l-0.1,0.07l-0.51,1.34l0.63,0.09l-0.03,0.21
			H18.4V58.06z"/>
		<path class="st2" d="M23.59,56.93h0.25c0,0.91,0.57,1.14,1.08,1.14c0.48,0,0.94-0.21,0.94-0.78c0-1.29-2.32-1.27-2.32-2.78
			c0-0.73,0.56-1.29,1.66-1.29c0.53,0,1.06,0.12,1.23,0.14l-0.23,1.16h-0.25c0.07-0.56-0.21-1.02-0.83-1.02
			c-0.5,0-0.92,0.23-0.92,0.77c0,1.3,2.32,1.17,2.32,2.77c0,0.89-0.76,1.31-1.66,1.31c-0.65,0-1.43-0.22-1.43-0.77
			C23.42,57.48,23.45,57.38,23.59,56.93"/>
		<path class="st2" d="M30.47,57.95c1.94,0,2.65-1.08,2.65-2.46c0-1.47-0.82-2.43-2.37-2.43h-0.75l-0.08,0.08v4.34
			c0,0.25-0.04,0.46-0.04,0.46H30.47z M28.6,58.03c0.37-0.04,0.6-0.22,0.6-0.51v-3.97c0-0.4-0.04-0.48-0.68-0.61v-0.21h2.27
			c1.61,0,3.16,0.61,3.16,2.56c0,1.88-1.4,2.97-3.48,2.97H29.8c-0.42,0-1.2,0.03-1.2,0.03V58.03z"/>
		<path class="st2" d="M34.53,58.06c0.33-0.04,0.53-0.19,0.53-0.46v-3.55c0-0.36-0.04-0.43-0.61-0.54v-0.19h3.06
			c0.31,0,0.53-0.03,0.53-0.03l-0.23,1.24h-0.25c0.04-0.76-0.21-0.92-0.8-0.92H35.8l-0.07,0.07v1.93h1.37l0.06-0.42l0.27-0.04v1.31
			h-0.35V55.9H35.8l-0.07,0.07v1.59c0,0.22-0.04,0.42-0.04,0.42h1.17c0.64,0,0.73-0.14,1.1-0.92h0.25l-0.27,1.21h-2.32
			c-0.37,0-1.08,0.02-1.08,0.02V58.06z"/>
		<path class="st2" d="M38.71,58.06c0.33-0.04,0.5-0.19,0.5-0.46v-3.55c0-0.36,0-0.43-0.55-0.54v-0.19h0.58
			c0.67,0,0.83-0.03,0.83-0.03l0.04,0.03c0,0-0.25,0.28-0.25,0.9v3.36c0,0.22-0.04,0.41-0.04,0.41h1.24c0.64,0,0.76-0.23,1.13-1.07
			h0.25l-0.31,1.36h-2.39c-0.37,0-1.04,0.02-1.04,0.02V58.06z"/>
		<path class="st2" d="M45.4,53.23c0.63,0,1.42,0.14,1.66,0.16l-0.22,1.14h-0.25c-0.01-0.82-0.65-1.02-1.24-1.02
			c-1.3,0-1.98,1.04-1.98,2.21c0,1.34,0.91,2.32,2.28,2.32c0.24,0,0.48-0.03,0.74-0.09v-1.08c0-0.36-0.03-0.45-0.68-0.54v-0.19h1.58
			l0.04,0.1c0,0-0.29,0.13-0.29,0.71v1.21c-0.48,0.07-1.14,0.19-1.69,0.19c-1.49,0-2.71-0.87-2.71-2.47
			C42.64,54.56,43.49,53.23,45.4,53.23"/>
		<path class="st2" d="M49.55,54.1l-0.82,2.15h1.61l-0.64-1.69C49.64,54.41,49.58,54.21,49.55,54.1 M47.3,58.06
			c0.31-0.03,0.44-0.19,0.5-0.33l1.76-4.38l0.3-0.07l1.65,4.22c0.2,0.51,0.33,0.54,0.56,0.58l-0.03,0.2h-0.32
			c-0.27,0-1.13,0.02-1.13,0.02v-0.25c0.21-0.01,0.39-0.07,0.31-0.29l-0.45-1.19h-1.78l-0.1,0.07l-0.51,1.34l0.63,0.09l-0.03,0.21
			H47.3V58.06z"/>
		<path class="st2" d="M53.92,57.98c1.74,0,2.38-0.97,2.38-2.2c0-1.31-0.73-2.18-2.12-2.18h-0.67l-0.07,0.07v3.89
			c0,0.22-0.04,0.42-0.04,0.42H53.92z M52.24,58.06c0.33-0.04,0.53-0.19,0.53-0.46v-3.55c0-0.36-0.04-0.43-0.61-0.54v-0.19h2.04
			c1.44,0,2.83,0.54,2.83,2.3c0,1.68-1.26,2.66-3.11,2.66h-0.6c-0.37,0-1.08,0.02-1.08,0.02V58.06z"/>
		<path class="st2" d="M60.19,58.06c1.17,0,1.84-1.17,1.84-2.26c0-1.11-0.7-2.28-1.93-2.28c-1.16,0-1.83,1.05-1.83,2.14
			C58.27,56.77,58.97,58.06,60.19,58.06 M60.23,53.23c1.55,0,2.54,1.05,2.54,2.39c0,1.42-1.08,2.74-2.73,2.74
			c-1.52,0-2.51-1.15-2.51-2.5C57.53,54.52,58.49,53.23,60.23,53.23"/>
		<path class="st2" d="M31.39,42.63c-10.22,0-18.53-8.28-18.53-18.45l0.01-19.34c0-2.67,2.17-4.85,4.85-4.85h13.67v0.39H17.72
			c-2.45,0-4.45,2-4.45,4.45l-0.01,19.34c0,9.95,8.13,18.05,18.13,18.05V42.63z"/>
		<path class="st2" d="M31.29,42.63v-0.4c10,0,18.13-8.1,18.13-18.05L49.41,4.85c0-2.46-2-4.45-4.45-4.45H31.29V0h13.67
			c2.67,0,4.85,2.17,4.85,4.85l0.01,19.34C49.82,34.36,41.51,42.63,31.29,42.63"/>
		<path class="st2" d="M31.21,12.18c-6.76,0-12.26,5.5-12.26,12.26c0,6.76,5.5,12.26,12.26,12.26s12.26-5.5,12.26-12.26
			C43.47,17.68,37.97,12.18,31.21,12.18 M31.21,37.21c-7.04,0-12.77-5.73-12.77-12.77c0-7.04,5.73-12.77,12.77-12.77
			s12.77,5.73,12.77,12.77C43.99,31.48,38.26,37.21,31.21,37.21"/>
	</g>
	<rect x="18.7" y="24.18" class="st0" width="25.03" height="0.51"/>
	<rect x="30.95" y="11.92" class="st0" width="0.51" height="25.03"/>
	<polygon class="st0" points="32.34,21.69 36.56,16.89 36.96,17.13 37.43,16.56 42.18,21.69 	"/>
	<g>
		<defs>
			<rect id="SVGID_5_" width="630" height="165.76"/>
		</defs>
		<clipPath id="SVGID_6_">
			<use xlink:href="#SVGID_5_"  style="overflow:visible;"/>
		</clipPath>
		<path class="st3" d="M36.76,27.9c0,0,0.21,0.64,0.81,0.44c0,0,0.3-0.64-0.21-0.61c0,0-0.18-0.03-0.16,0.16c0,0-0.1,0.09-0.33,0.03
			L36.76,27.9z"/>
		<path class="st3" d="M37.28,31.31c0,0-0.44,0.08-0.5-0.19c0,0-0.73-0.94-0.42-1.19c0,0,1.26-0.27,1.51-0.53
			c0,0,0.18-0.14,0.2,0.13c0,0,0.08,0.05,0.27,0.02c0,0,0.1-0.08,0.02-0.21c0,0-0.11-0.11,0.36-0.16l0.75-0.05
			c0,0,0.14-0.25-0.2-0.14c0,0-1.11-0.27-0.94-0.67c0,0,0.08-0.08,0.29,0.03c0,0,0.42,0.42,1.3,0.18c0,0,0.35-0.1,0.15,0.49
			c0,0-0.34,0.64-0.11,0.57c0,0,0.84-0.3,0.73-1.28c0,0,0-0.96-1.17-0.86c0,0-0.63,0-1.12,0.34c0,0-0.43-0.02-0.16-0.44
			c0,0,0.47-0.61,1.48-0.59c0,0,1.94-0.12,1.74,1.82c0,0-0.24,2.12-1.2,2.76L37.28,31.31z"/>
		<path class="st3" d="M36.7,26.18c0,0-0.36-0.13-0.36,0.57c0,0.48,0.37,0.56,0.47,0.59c0.1,0.03,0.58,0.16,0.94-0.08
			c0.55-0.36,0.5-0.63,0.42-1.05C38.16,26.13,36.7,26.18,36.7,26.18"/>
		<path class="st3" d="M35.62,31.3c0,0-0.68,0.11-0.68-0.57c0,0,0.12-0.88,0.73-0.88s0.57,0.99,0.57,0.99s0.08,0.41-0.13,0.45
			C35.96,31.31,35.62,31.3,35.62,31.3"/>
		<path class="st3" d="M32.72,31.25c0,0-0.5,0.13-0.48-0.5c0.02-0.52,0.29-0.56,0.39-0.61c0.1-0.05,0.85-0.4,1.02-0.41
			c0.18-0.02,0.46,0.02,0.14,0.51c-0.19,0.3,0.51-0.22,0.51-0.22s0.63-0.3,0.63-0.01c0,0.29-0.08,1.24-0.52,1.26
			c-0.64,0.02-0.96,0.06-0.94,0.01c0.02-0.05-0.13-0.09-0.08-0.35c0.05-0.26,0.02,0.35-0.47,0.34
			C32.43,31.25,32.72,31.25,32.72,31.25"/>
		<path class="st3" d="M33.17,29.76c0,0-0.6,0.43-0.75-0.05s-0.05-0.78,0.24-0.94c0.47-0.26,1.05,0.07,1.15,0.21
			c0.1,0.14,0.36,0.22-0.36,0.61C33.29,29.69,33.17,29.76,33.17,29.76"/>
		<path class="st3" d="M32.9,28.52c0,0-0.6,0.21-0.57-0.42c0.03-0.62-0.06-0.72,0.29-0.78c0.36-0.06,0.94,0.4,1.2,0.54
			c0.26,0.14,0.19,0.55-0.34,0.6C32.95,28.52,32.9,28.52,32.9,28.52"/>
		<path class="st3" d="M33.17,27.36c0,0-0.89-0.26-0.83-0.7c0.06-0.45,0.35-0.8,0.81-0.43c0.46,0.37,0.98,0.96,0.7,1.11
			c-0.21,0.11-0.4,0.03-0.52,0.03C33.22,27.38,33.17,27.36,33.17,27.36"/>
		<path class="st3" d="M33.56,26.32c0,0-0.39-0.26,0.34-0.21c0.78,0.05,1.06-0.19,0.99,0.42c-0.06,0.49-0.24,0.48-0.45,0.49
			c-0.21,0.01-0.38-0.23-0.67-0.51C33.51,26.26,33.56,26.32,33.56,26.32"/>
		<path class="st3" d="M35.75,26.85c0,0-0.16,0.18-0.39,0.17c-0.49-0.01-0.29-0.59-0.29-0.59s-0.03-0.3,0.37-0.3
			c0.4,0,0.76-0.09,0.6,0.34C35.97,26.67,35.75,26.85,35.75,26.85"/>
	</g>
	<rect x="26.15" y="14.48" class="st0" width="0.63" height="8.73"/>
	<rect x="24.6" y="15.97" class="st0" width="3.68" height="0.63"/>
	<rect x="23.55" y="17.47" class="st0" width="5.69" height="0.63"/>
	<g>
		<defs>
			<rect id="SVGID_7_" width="630" height="165.76"/>
		</defs>
		<clipPath id="SVGID_8_">
			<use xlink:href="#SVGID_7_"  style="overflow:visible;"/>
		</clipPath>
		<path class="st4" d="M32.9,28.52c0,0-0.6,0.21-0.57-0.42c0.03-0.62-0.06-0.72,0.29-0.78c0.36-0.06,0.94,0.4,1.2,0.54
			c0.26,0.14,0.19,0.55-0.34,0.6C32.95,28.52,32.9,28.52,32.9,28.52"/>
		<path class="st4" d="M27.36,33.2h1.9l0.02-2.87l-1.31-0.83l-0.01-1.23l0.47-0.67v-1.6h-0.67v0.49h-0.9v-0.66h-0.84v0.7h-0.79
			l0-0.52l-0.77,0v1.58l0.6,0.69v1.23l-1.23,1.1v2.59h1.85v-1.92c0-0.96,0.69-0.99,0.77-0.99h0.01h0c0.26,0,0.47,0.08,0.63,0.24
			c0.28,0.29,0.26,0.73,0.26,0.75L27.36,33.2z M29.35,33.29h-2.08l0-2c0-0.01,0.01-0.42-0.24-0.69c-0.14-0.14-0.33-0.21-0.57-0.21
			h-0.01c-0.11,0-0.68,0.04-0.68,0.9v2h-2.02v-2.71l1.23-1.1v-1.16l-0.6-0.69v-1.7l0.95-0.01l0,0.52h0.62v-0.7h1.01v0.66h0.73v-0.49
			h0.84l0,1.71l-0.47,0.67l0.01,1.15l1.31,0.83L29.35,33.29z"/>
	</g>
	<rect x="24.47" y="27.03" class="st0" width="4.01" height="0.09"/>
	<rect x="25.05" y="28.4" class="st0" width="2.97" height="0.09"/>
	<polygon class="st0" points="24.99,29.58 28.13,29.59 28.13,29.51 24.99,29.49 	"/>
	<rect x="24.32" y="30.12" class="st0" width="4.79" height="0.09"/>
	<rect x="23.84" y="31.24" class="st0" width="1.86" height="0.09"/>
	<rect x="27.32" y="31.21" class="st0" width="2.01" height="0.09"/>
	<rect x="23.76" y="32.15" class="st0" width="1.97" height="0.09"/>
	<rect x="26.43" y="27.07" class="st0" width="0.09" height="1.34"/>
	<rect x="25.58" y="28.41" class="st0" width="0.09" height="1.09"/>
	<rect x="27.35" y="28.45" class="st0" width="0.09" height="1.05"/>
	<rect x="26.43" y="29.55" class="st0" width="0.09" height="0.61"/>
	<rect x="24.84" y="30.13" class="st0" width="0.09" height="1.13"/>
	<rect x="28.17" y="30.16" class="st0" width="0.09" height="1.09"/>
	<rect x="28.17" y="32.32" class="st0" width="0.09" height="0.97"/>
	<rect x="24.57" y="32.16" class="st0" width="0.09" height="1.09"/>
	<rect x="27.3" y="32.29" class="st0" width="2.01" height="0.09"/>
	<polygon class="st0" points="25.95,25.74 25.95,26.44 25.29,26.44 25.29,26.53 26.04,26.53 26.04,25.83 26.87,25.83 26.87,26.5 
		27.77,26.5 27.77,25.96 27.68,25.97 27.69,26.41 26.96,26.41 26.96,25.74 	"/>
	<g>
		<defs>
			<rect id="SVGID_9_" width="630" height="165.76"/>
		</defs>
		<clipPath id="SVGID_10_">
			<use xlink:href="#SVGID_9_"  style="overflow:visible;"/>
		</clipPath>
		<path class="st5" d="M17.23,5.89c0,0.48,0.18,0.76,0.73,0.76c0.59,0,0.73-0.38,0.73-0.81V4.3c0-0.48-0.18-0.76-0.73-0.76
			c-0.59,0-0.73,0.38-0.73,0.81V5.89z M17.66,4.31c0-0.3,0.1-0.44,0.3-0.44c0.2,0,0.3,0.14,0.3,0.44v1.61c0,0.26-0.12,0.4-0.3,0.4
			c-0.18,0-0.3-0.14-0.3-0.4V4.31z"/>
	</g>
	<polygon class="st0" points="19.12,6.63 19.5,6.63 19.5,3.87 19.51,3.87 19.99,6.63 20.42,6.63 20.87,3.87 20.87,3.87 20.87,6.63 
		21.28,6.63 21.28,3.56 20.61,3.56 20.21,5.9 20.2,5.9 19.81,3.56 19.12,3.56 	"/>
	<polygon class="st0" points="21.71,6.63 22.1,6.63 22.1,4.01 22.1,4.01 22.61,6.63 23.24,6.63 23.24,3.56 22.83,3.56 22.83,6.11 
		22.82,6.11 22.31,3.56 21.71,3.56 	"/>
	<rect x="23.66" y="3.56" class="st0" width="0.43" height="3.07"/>
	<path class="st0" d="M25.31,4.01L25.31,4.01l0.28,1.48h-0.55L25.31,4.01z M24.4,6.63h0.43l0.14-0.78h0.67l0.14,0.78h0.43
		l-0.64-3.07h-0.5L24.4,6.63z"/>
	<g>
		<defs>
			<rect id="SVGID_11_" width="630" height="165.76"/>
		</defs>
		<clipPath id="SVGID_12_">
			<use xlink:href="#SVGID_11_"  style="overflow:visible;"/>
		</clipPath>
		<path class="st6" d="M27.41,5.89c0,0.48,0.18,0.76,0.72,0.76c0.5,0,0.63-0.25,0.63-0.57V5.74h-0.41v0.21
			c0,0.26-0.1,0.36-0.26,0.36c-0.14,0-0.26-0.06-0.26-0.42v-1.5c0-0.37,0.04-0.53,0.27-0.53c0.18,0,0.25,0.12,0.25,0.32V4.4h0.41
			V4.09c0-0.34-0.2-0.56-0.63-0.56c-0.59,0-0.73,0.38-0.73,0.81V5.89z"/>
		<path class="st6" d="M30.55,3.56h-0.43v2.45c0,0.21-0.08,0.31-0.3,0.31c-0.22,0-0.3-0.11-0.3-0.31V3.56h-0.43v2.37
			c0,0.36,0.14,0.72,0.73,0.72c0.59,0,0.73-0.36,0.73-0.72V3.56z"/>
	</g>
	<polygon class="st0" points="30.97,6.63 31.35,6.63 31.35,3.87 31.36,3.87 31.84,6.63 32.28,6.63 32.72,3.87 32.73,3.87 
		32.73,6.63 33.13,6.63 33.13,3.56 32.46,3.56 32.06,5.9 32.05,5.9 31.66,3.56 30.97,3.56 	"/>
	<polygon class="st0" points="34.48,6.63 34.91,6.63 34.91,5.23 35.49,5.23 35.49,6.63 35.92,6.63 35.92,3.56 35.49,3.56 
		35.49,4.88 34.91,4.88 34.91,3.56 34.48,3.56 	"/>
	<g>
		<defs>
			<rect id="SVGID_13_" width="630" height="165.76"/>
		</defs>
		<clipPath id="SVGID_14_">
			<use xlink:href="#SVGID_13_"  style="overflow:visible;"/>
		</clipPath>
		<path class="st7" d="M36.34,5.89c0,0.48,0.18,0.76,0.73,0.76c0.59,0,0.73-0.38,0.73-0.81V4.3c0-0.48-0.18-0.76-0.73-0.76
			c-0.59,0-0.73,0.38-0.73,0.81V5.89z M36.78,4.31c0-0.3,0.1-0.44,0.3-0.44c0.2,0,0.3,0.14,0.3,0.44v1.61c0,0.26-0.12,0.4-0.3,0.4
			c-0.18,0-0.3-0.14-0.3-0.4V4.31z"/>
	</g>
	<polygon class="st0" points="38.23,6.63 38.61,6.63 38.61,4.01 38.62,4.01 39.13,6.63 39.75,6.63 39.75,3.56 39.35,3.56 
		39.35,6.11 39.34,6.11 38.83,3.56 38.23,3.56 	"/>
	<g>
		<defs>
			<rect id="SVGID_15_" width="630" height="165.76"/>
		</defs>
		<clipPath id="SVGID_16_">
			<use xlink:href="#SVGID_15_"  style="overflow:visible;"/>
		</clipPath>
		<path class="st8" d="M40.17,5.89c0,0.48,0.18,0.76,0.73,0.76c0.59,0,0.73-0.38,0.73-0.81V4.3c0-0.48-0.18-0.76-0.73-0.76
			c-0.59,0-0.73,0.38-0.73,0.81V5.89z M40.61,4.31c0-0.3,0.1-0.44,0.3-0.44c0.2,0,0.3,0.14,0.3,0.44v1.61c0,0.26-0.12,0.4-0.3,0.4
			c-0.18,0-0.3-0.14-0.3-0.4V4.31z"/>
		<path class="st8" d="M42.49,3.92h0.21c0.27,0,0.29,0.04,0.29,0.5c0,0.46-0.05,0.52-0.39,0.52h-0.11V3.92z M42.06,6.63h0.43V5.29
			h0.15c0.29,0,0.34,0.08,0.34,0.37v0.69c0,0.12,0.01,0.2,0.05,0.28h0.41c-0.03-0.13-0.03-0.28-0.03-0.39V5.57
			c0-0.29-0.1-0.44-0.39-0.47V5.09c0.36-0.11,0.41-0.29,0.41-0.7c0-0.67-0.06-0.84-0.7-0.84h-0.67V6.63z"/>
	</g>
	<polygon class="st0" points="43.85,3.56 43.85,6.63 45.03,6.63 45.03,6.27 44.29,6.27 44.29,5.23 44.99,5.23 44.99,4.88 
		44.29,4.88 44.29,3.92 45.03,3.92 45.03,3.56 	"/>
	<g>
		<defs>
			<rect id="SVGID_17_" width="630" height="165.76"/>
		</defs>
		<clipPath id="SVGID_18_">
			<use xlink:href="#SVGID_17_"  style="overflow:visible;"/>
		</clipPath>
		<path class="st9" d="M17.23,5.89c0,0.48,0.18,0.76,0.73,0.76c0.59,0,0.73-0.38,0.73-0.81V4.3c0-0.48-0.18-0.76-0.73-0.76
			c-0.59,0-0.73,0.38-0.73,0.81V5.89z M17.66,4.31c0-0.3,0.1-0.44,0.3-0.44c0.2,0,0.3,0.14,0.3,0.44v1.61c0,0.26-0.12,0.4-0.3,0.4
			c-0.18,0-0.3-0.14-0.3-0.4V4.31z"/>
	</g>
	<polygon class="st0" points="19.12,6.63 19.5,6.63 19.5,3.87 19.51,3.87 19.99,6.63 20.42,6.63 20.87,3.87 20.87,3.87 20.87,6.63 
		21.28,6.63 21.28,3.56 20.61,3.56 20.21,5.9 20.2,5.9 19.81,3.56 19.12,3.56 	"/>
	<polygon class="st0" points="21.71,6.63 22.1,6.63 22.1,4.01 22.1,4.01 22.61,6.63 23.24,6.63 23.24,3.56 22.83,3.56 22.83,6.11 
		22.82,6.11 22.31,3.56 21.71,3.56 	"/>
	<rect x="23.66" y="3.56" class="st0" width="0.43" height="3.07"/>
	<path class="st0" d="M25.31,4.01L25.31,4.01l0.28,1.48h-0.55L25.31,4.01z M24.4,6.63h0.43l0.14-0.78h0.67l0.14,0.78h0.43
		l-0.64-3.07h-0.5L24.4,6.63z"/>
	<g>
		<defs>
			<rect id="SVGID_19_" width="630" height="165.76"/>
		</defs>
		<clipPath id="SVGID_20_">
			<use xlink:href="#SVGID_19_"  style="overflow:visible;"/>
		</clipPath>
		<path class="st10" d="M27.41,5.89c0,0.48,0.18,0.76,0.72,0.76c0.5,0,0.63-0.25,0.63-0.57V5.74h-0.41v0.21
			c0,0.26-0.1,0.36-0.26,0.36c-0.14,0-0.26-0.06-0.26-0.42v-1.5c0-0.37,0.04-0.53,0.27-0.53c0.18,0,0.25,0.12,0.25,0.32V4.4h0.41
			V4.09c0-0.34-0.2-0.56-0.63-0.56c-0.59,0-0.73,0.38-0.73,0.81V5.89z"/>
		<path class="st10" d="M30.55,3.56h-0.43v2.45c0,0.21-0.08,0.31-0.3,0.31c-0.22,0-0.3-0.11-0.3-0.31V3.56h-0.43v2.37
			c0,0.36,0.14,0.72,0.73,0.72c0.59,0,0.73-0.36,0.73-0.72V3.56z"/>
	</g>
	<polygon class="st0" points="30.97,6.63 31.35,6.63 31.35,3.87 31.36,3.87 31.84,6.63 32.28,6.63 32.72,3.87 32.73,3.87 
		32.73,6.63 33.13,6.63 33.13,3.56 32.46,3.56 32.06,5.9 32.05,5.9 31.66,3.56 30.97,3.56 	"/>
	<polygon class="st0" points="34.48,6.63 34.91,6.63 34.91,5.23 35.49,5.23 35.49,6.63 35.92,6.63 35.92,3.56 35.49,3.56 
		35.49,4.88 34.91,4.88 34.91,3.56 34.48,3.56 	"/>
	<g>
		<defs>
			<rect id="SVGID_21_" width="630" height="165.76"/>
		</defs>
		<clipPath id="SVGID_22_">
			<use xlink:href="#SVGID_21_"  style="overflow:visible;"/>
		</clipPath>
		<path class="st11" d="M36.34,5.89c0,0.48,0.18,0.76,0.73,0.76c0.59,0,0.73-0.38,0.73-0.81V4.3c0-0.48-0.18-0.76-0.73-0.76
			c-0.59,0-0.73,0.38-0.73,0.81V5.89z M36.78,4.31c0-0.3,0.1-0.44,0.3-0.44c0.2,0,0.3,0.14,0.3,0.44v1.61c0,0.26-0.12,0.4-0.3,0.4
			c-0.18,0-0.3-0.14-0.3-0.4V4.31z"/>
	</g>
	<polygon class="st0" points="38.23,6.63 38.61,6.63 38.61,4.01 38.62,4.01 39.13,6.63 39.75,6.63 39.75,3.56 39.35,3.56 
		39.35,6.11 39.34,6.11 38.83,3.56 38.23,3.56 	"/>
	<g>
		<defs>
			<rect id="SVGID_23_" width="630" height="165.76"/>
		</defs>
		<clipPath id="SVGID_24_">
			<use xlink:href="#SVGID_23_"  style="overflow:visible;"/>
		</clipPath>
		<path class="st12" d="M40.17,5.89c0,0.48,0.18,0.76,0.73,0.76c0.59,0,0.73-0.38,0.73-0.81V4.3c0-0.48-0.18-0.76-0.73-0.76
			c-0.59,0-0.73,0.38-0.73,0.81V5.89z M40.61,4.31c0-0.3,0.1-0.44,0.3-0.44c0.2,0,0.3,0.14,0.3,0.44v1.61c0,0.26-0.12,0.4-0.3,0.4
			c-0.18,0-0.3-0.14-0.3-0.4V4.31z"/>
		<path class="st12" d="M42.49,3.92h0.21c0.27,0,0.29,0.04,0.29,0.5c0,0.46-0.05,0.52-0.39,0.52h-0.11V3.92z M42.06,6.63h0.43V5.29
			h0.15c0.29,0,0.34,0.08,0.34,0.37v0.69c0,0.12,0.01,0.2,0.05,0.28h0.41c-0.03-0.13-0.03-0.28-0.03-0.39V5.57
			c0-0.29-0.1-0.44-0.39-0.47V5.09c0.36-0.11,0.41-0.29,0.41-0.7c0-0.67-0.06-0.84-0.7-0.84h-0.67V6.63z"/>
	</g>
	<polygon class="st0" points="43.85,3.56 43.85,6.63 45.03,6.63 45.03,6.27 44.29,6.27 44.29,5.23 44.99,5.23 44.99,4.88 
		44.29,4.88 44.29,3.92 45.03,3.92 45.03,3.56 	"/>
	<g>
		<defs>
			<rect id="SVGID_25_" width="630" height="165.76"/>
		</defs>
		<clipPath id="SVGID_26_">
			<use xlink:href="#SVGID_25_"  style="overflow:visible;"/>
		</clipPath>
		<path class="st13" d="M15.93,22.76c-0.3-0.04-0.46,0.15-0.5,0.46c-0.05,0.39,0.15,0.56,0.53,0.61c0.29,0.03,0.42-0.01,0.8-0.29
			c0.36-0.26,0.46-0.28,0.63-0.26c0.19,0.02,0.26,0.09,0.24,0.23c-0.02,0.13-0.1,0.17-0.24,0.16l-0.19-0.02l-0.04,0.31l0.23,0.03
			c0.17,0.02,0.26-0.01,0.32-0.06c0.08-0.07,0.16-0.19,0.18-0.37c0.04-0.36-0.1-0.56-0.5-0.6c-0.33-0.04-0.54,0.11-0.79,0.29
			c-0.39,0.3-0.46,0.3-0.66,0.28c-0.16-0.02-0.27-0.08-0.25-0.25c0.02-0.13,0.12-0.18,0.29-0.16l0.2,0.02l0.04-0.33L15.93,22.76z"/>
	</g>
	<path class="st0" d="M17.48,24.71L17.48,24.71l-1.18,0.17l0.01-0.42L17.48,24.71z M15.42,23.94l-0.01,0.33l0.62,0.13l-0.02,0.51
		L15.38,25l-0.01,0.33l2.45-0.4l0.01-0.38L15.42,23.94z"/>
	<polygon class="st0" points="15.44,25.53 15.46,25.82 17.54,25.68 17.54,25.68 15.49,26.21 15.52,26.69 17.96,26.52 17.93,26.21 
		15.91,26.35 15.91,26.34 17.91,25.82 17.87,25.36 	"/>
	<g>
		<defs>
			<rect id="SVGID_27_" width="630" height="165.76"/>
		</defs>
		<clipPath id="SVGID_28_">
			<use xlink:href="#SVGID_27_"  style="overflow:visible;"/>
		</clipPath>
		<path class="st14" d="M16.05,27.48c-0.29,0.08-0.37,0.31-0.29,0.6c0.1,0.38,0.35,0.46,0.72,0.37c0.28-0.07,0.38-0.16,0.63-0.56
			c0.23-0.38,0.32-0.43,0.48-0.47c0.18-0.05,0.27-0.01,0.31,0.12c0.03,0.12-0.03,0.2-0.16,0.23l-0.19,0.05l0.08,0.3l0.22-0.06
			c0.17-0.04,0.24-0.1,0.28-0.17c0.05-0.09,0.07-0.23,0.03-0.41c-0.1-0.35-0.31-0.48-0.7-0.38c-0.32,0.08-0.46,0.3-0.61,0.56
			c-0.24,0.42-0.31,0.45-0.51,0.5c-0.15,0.04-0.28,0.03-0.33-0.14c-0.04-0.13,0.05-0.21,0.2-0.25l0.19-0.05l-0.09-0.32L16.05,27.48z
			"/>
	</g>
	<path class="st0" d="M18.1,28.76L18.1,28.76l-1.03,0.59l-0.15-0.39L18.1,28.76z M15.9,28.8l0.12,0.31l0.62-0.11l0.18,0.48
		l-0.55,0.31l0.12,0.31l2.12-1.27l-0.13-0.36L15.9,28.8z"/>
	<polygon class="st0" points="16.49,30.36 16.8,31.19 17.07,31.1 16.87,30.58 18.9,29.86 18.78,29.55 	"/>
	<polygon class="st0" points="16.95,31.42 17.13,31.76 19.52,31.11 19.37,30.82 17.48,31.37 17.48,31.37 19.05,30.2 18.89,29.91 	
		"/>
	<path class="st0" d="M19.48,31.68L19.48,31.68l-0.9,0.77l-0.22-0.36L19.48,31.68z M17.33,32.13l0.17,0.28l0.59-0.22l0.27,0.44
		l-0.48,0.41l0.17,0.28l1.83-1.64l-0.2-0.33L17.33,32.13z"/>
	<g>
		<defs>
			<rect id="SVGID_29_" width="630" height="165.76"/>
		</defs>
		<clipPath id="SVGID_30_">
			<use xlink:href="#SVGID_29_"  style="overflow:visible;"/>
		</clipPath>
		<path class="st15" d="M18.16,33.48l0.29,0.38c0.32,0.42,0.54,0.39,1.04,0.02l0.58-0.43c0.57-0.42,0.68-0.56,0.36-0.98l-0.33-0.42
			L18.16,33.48z M20.09,32.48l0.08,0.11c0.17,0.22,0.1,0.32-0.19,0.54l-0.67,0.49c-0.34,0.25-0.47,0.29-0.62,0.09l-0.1-0.13
			L20.09,32.48z"/>
		<path class="st15" d="M19.45,34.23c-0.28,0.25-0.36,0.49-0.07,0.81c0.31,0.34,0.61,0.22,0.86,0l0.92-0.81
			c0.28-0.25,0.36-0.49,0.06-0.81c-0.31-0.33-0.61-0.22-0.86,0.01L19.45,34.23z M20.61,33.65c0.18-0.16,0.31-0.17,0.42-0.06
			c0.1,0.11,0.07,0.24-0.1,0.4l-0.95,0.84c-0.16,0.14-0.3,0.14-0.4,0.04c-0.09-0.1-0.07-0.24,0.08-0.38L20.61,33.65z"/>
		<path class="st15" d="M21.64,34.31l0.12,0.11c0.16,0.14,0.15,0.17-0.09,0.44c-0.24,0.26-0.31,0.28-0.5,0.1L21.1,34.9L21.64,34.31z
			 M19.95,35.65l0.25,0.22l0.71-0.77L21,35.18c0.16,0.15,0.16,0.22,0,0.38l-0.37,0.4c-0.06,0.07-0.1,0.12-0.12,0.19l0.24,0.21
			c0.05-0.09,0.13-0.18,0.19-0.24l0.36-0.38c0.15-0.17,0.17-0.3,0.02-0.47l0-0.01c0.26,0.12,0.39,0.05,0.61-0.19
			c0.36-0.39,0.41-0.52,0.04-0.84l-0.39-0.34L19.95,35.65z"/>
	</g>
	<polygon class="st0" points="20.86,36.71 21.04,36.87 21.58,36.56 21.31,36.33 	"/>
	<g>
		<defs>
			<rect id="SVGID_31_" width="630" height="165.76"/>
		</defs>
		<clipPath id="SVGID_32_">
			<use xlink:href="#SVGID_31_"  style="overflow:visible;"/>
		</clipPath>
		<path class="st16" d="M22.31,36.84c-0.22,0.3-0.24,0.56,0.1,0.8c0.32,0.22,0.52,0.13,0.67-0.07l0.16-0.21l-0.26-0.18l-0.1,0.13
			c-0.12,0.16-0.24,0.18-0.34,0.11c-0.09-0.06-0.13-0.15,0.04-0.38l0.7-0.94c0.17-0.23,0.27-0.31,0.42-0.21
			c0.11,0.08,0.1,0.19,0.01,0.31l-0.1,0.13l0.26,0.18l0.14-0.19c0.16-0.21,0.13-0.44-0.14-0.63c-0.37-0.26-0.64-0.09-0.84,0.18
			L22.31,36.84z"/>
	</g>
	<polygon class="st0" points="23.02,38 23.36,38.2 23.57,37.86 23.22,37.66 	"/>
	<path class="st0" d="M25.05,36.77L25.05,36.77l-0.3,1.13l-0.39-0.18L25.05,36.77z M23.52,38.32l0.31,0.14l0.36-0.5l0.48,0.22
		l-0.16,0.6l0.31,0.14l0.58-2.36l-0.35-0.16L23.52,38.32z"/>
	<polygon class="st0" points="25.06,39.01 25.42,39.18 25.59,38.82 25.23,38.66 	"/>
	<polygon class="st0" points="26.14,39.43 26.46,39.53 27.09,38.82 27.11,39.75 27.45,39.87 27.38,38.57 28.23,37.61 27.91,37.51 
		27.33,38.2 27.31,37.3 26.97,37.19 27.05,38.43 	"/>
	<polygon class="st0" points="28.04,39.93 28.42,40.02 29.46,37.81 29.13,37.73 28.35,39.5 28.34,39.5 28.44,37.58 28.11,37.5 	"/>
	<g>
		<defs>
			<rect id="SVGID_33_" width="630" height="165.76"/>
		</defs>
		<clipPath id="SVGID_34_">
			<use xlink:href="#SVGID_33_"  style="overflow:visible;"/>
		</clipPath>
		<path class="st17" d="M29.76,39.81c-0.01,0.3,0.21,0.43,0.52,0.43c0.4,0.01,0.55-0.2,0.56-0.58c0.01-0.29-0.05-0.4-0.38-0.74
			c-0.31-0.32-0.34-0.42-0.34-0.58c0-0.19,0.07-0.26,0.21-0.26c0.13,0,0.19,0.08,0.19,0.22l0,0.19l0.32,0.01l0-0.22
			c0-0.17-0.04-0.25-0.09-0.31c-0.08-0.07-0.21-0.14-0.39-0.14c-0.37-0.01-0.56,0.16-0.56,0.55c-0.01,0.32,0.17,0.52,0.38,0.73
			c0.34,0.35,0.35,0.41,0.35,0.61c0,0.15-0.05,0.27-0.23,0.27c-0.13,0-0.19-0.1-0.19-0.26l0-0.19l-0.34-0.01L29.76,39.81z"/>
	</g>
	<polygon class="st0" points="31.15,40.25 32.07,40.27 32.08,39.99 31.5,39.98 31.51,39.18 32.06,39.19 32.06,38.91 31.52,38.9 
		31.53,38.16 32.11,38.17 32.11,37.89 31.2,37.88 	"/>
	<g>
		<defs>
			<rect id="SVGID_35_" width="630" height="165.76"/>
		</defs>
		<clipPath id="SVGID_36_">
			<use xlink:href="#SVGID_35_"  style="overflow:visible;"/>
		</clipPath>
		<path class="st18" d="M32.27,40.21l0.34-0.02l-0.07-1.03l0.22-0.01c0.46-0.03,0.54-0.16,0.5-0.71c-0.04-0.55-0.14-0.66-0.59-0.63
			l-0.56,0.04L32.27,40.21z M32.46,38.09l0.18-0.01c0.23-0.02,0.26,0.02,0.28,0.38c0.03,0.36,0,0.4-0.22,0.41l-0.18,0.01
			L32.46,38.09z"/>
	</g>
	<polygon class="st0" points="33.04,37.8 33.09,38.07 33.49,38 33.9,40.06 34.23,40 33.82,37.93 34.22,37.86 34.17,37.59 	"/>
	<polygon class="st0" points="34.15,37.58 34.82,39.87 35.15,39.77 34.48,37.49 	"/>
	<polygon class="st0" points="35.49,39.68 36.38,39.43 36.3,39.17 35.74,39.32 35.51,38.55 36.04,38.4 35.96,38.14 35.43,38.29 
		35.23,37.57 35.78,37.41 35.7,37.15 34.82,37.39 	"/>
	<polygon class="st0" points="36.58,39.35 36.86,39.24 36.07,37.24 36.07,37.24 37.21,39.11 37.53,38.99 37.06,36.87 37.07,36.87 
		37.86,38.87 38.15,38.76 37.28,36.53 36.79,36.72 37.17,38.52 37.16,38.52 36.21,36.94 35.7,37.13 	"/>
	<g>
		<defs>
			<rect id="SVGID_37_" width="630" height="165.76"/>
		</defs>
		<clipPath id="SVGID_38_">
			<use xlink:href="#SVGID_37_"  style="overflow:visible;"/>
		</clipPath>
		<path class="st19" d="M37.71,36.53l0.14-0.07c0.19-0.09,0.26-0.06,0.39,0.19c0.18,0.35,0.18,0.39,0,0.48l-0.17,0.09L37.71,36.53z
			 M38.18,37.44l0.19-0.1c0.17-0.08,0.22-0.05,0.39,0.27c0.17,0.34,0.17,0.4,0,0.48l-0.19,0.09L38.18,37.44z M38.39,38.57l0.47-0.24
			c0.44-0.22,0.42-0.39,0.19-0.85c-0.19-0.36-0.28-0.42-0.54-0.34l0-0.01c0.19-0.13,0.22-0.23,0.01-0.65
			c-0.2-0.39-0.33-0.48-0.7-0.3l-0.52,0.26L38.39,38.57z"/>
		<path class="st19" d="M38.73,35.95l0.14-0.08c0.18-0.11,0.21-0.09,0.4,0.21c0.19,0.3,0.19,0.36-0.04,0.5l-0.07,0.04L38.73,35.95z
			 M39.59,37.91l0.29-0.17l-0.56-0.88l0.1-0.06c0.19-0.11,0.26-0.09,0.38,0.1l0.29,0.46c0.05,0.08,0.09,0.13,0.15,0.16l0.27-0.16
			c-0.07-0.07-0.14-0.17-0.18-0.25l-0.28-0.44c-0.12-0.19-0.25-0.25-0.46-0.15l0-0.01c0.19-0.21,0.15-0.35-0.02-0.62
			c-0.28-0.44-0.39-0.53-0.81-0.27l-0.44,0.27L39.59,37.91z"/>
	</g>
	<polygon class="st0" points="40.71,37.17 41.44,36.62 41.26,36.4 40.8,36.75 40.29,36.12 40.73,35.79 40.55,35.57 40.12,35.9 
		39.65,35.31 40.11,34.97 39.93,34.75 39.21,35.3 	"/>
	<g>
		<defs>
			<rect id="SVGID_39_" width="630" height="165.76"/>
		</defs>
		<clipPath id="SVGID_40_">
			<use xlink:href="#SVGID_39_"  style="overflow:visible;"/>
		</clipPath>
		<path class="st20" d="M42.13,36.01l0.36-0.33c0.39-0.36,0.34-0.57-0.09-1.01l-0.5-0.52c-0.48-0.51-0.64-0.61-1.04-0.24l-0.4,0.36
			L42.13,36.01z M40.91,34.24l0.1-0.09c0.21-0.19,0.32-0.13,0.57,0.13l0.57,0.6c0.29,0.3,0.34,0.42,0.16,0.59l-0.12,0.11
			L40.91,34.24z"/>
	</g>
	<polygon class="st0" points="43.13,35.03 43.73,34.36 43.52,34.17 43.14,34.6 42.52,34.07 42.88,33.67 42.66,33.49 42.3,33.89 
		41.73,33.4 42.11,32.97 41.89,32.79 41.29,33.47 	"/>
	<polygon class="st0" points="44.31,33.69 44.46,33.43 42.56,32.36 42.56,32.36 44.65,33.11 44.82,32.82 43.09,31.46 43.09,31.46 
		44.99,32.53 45.15,32.26 43.04,31.07 42.78,31.51 44.23,32.68 44.23,32.69 42.47,32.04 42.2,32.5 	"/>
	<g>
		<defs>
			<rect id="SVGID_41_" width="630" height="165.76"/>
		</defs>
		<clipPath id="SVGID_42_">
			<use xlink:href="#SVGID_41_"  style="overflow:visible;"/>
		</clipPath>
		<path class="st21" d="M44.78,31.8c0.34,0.16,0.61,0.13,0.79-0.25c0.17-0.35,0.03-0.52-0.2-0.63l-0.24-0.11l-0.14,0.28l0.15,0.07
			c0.19,0.08,0.23,0.19,0.18,0.3c-0.05,0.09-0.13,0.16-0.39,0.04l-1.08-0.49c-0.27-0.12-0.36-0.2-0.29-0.36
			c0.06-0.13,0.17-0.13,0.31-0.07l0.15,0.07l0.13-0.28l-0.22-0.1c-0.25-0.11-0.47-0.05-0.61,0.25c-0.19,0.41,0.03,0.63,0.34,0.77
			L44.78,31.8z"/>
	</g>
	<polygon class="st0" points="45.92,30.93 46.02,30.65 43.94,29.96 43.95,29.95 46.14,30.3 46.26,29.99 44.29,28.97 44.29,28.97 
		46.37,29.66 46.47,29.37 44.17,28.59 44,29.08 45.65,29.96 45.65,29.96 43.79,29.66 43.62,30.15 	"/>
	<polygon class="st0" points="46.38,28.73 44.29,28.26 44.21,28.58 46.58,29.11 46.79,28.25 46.51,28.19 	"/>
	<polygon class="st0" points="46.83,28.08 46.91,27.76 46.12,27.22 47.06,27.1 47.14,26.77 45.83,26.97 44.76,26.25 44.69,26.57 
		45.45,27.06 44.54,27.17 44.46,27.51 45.72,27.3 	"/>
	<polygon class="st0" points="47.12,26.66 47.16,26.33 46.32,25.88 47.24,25.66 47.29,25.31 46,25.66 44.87,25.04 44.83,25.37 
		45.64,25.78 44.75,25.98 44.7,26.33 45.93,26 	"/>
	<polygon class="st0" points="44.87,24.09 46.79,24.5 46.79,24.51 44.84,24.78 44.83,25.11 47.28,24.71 47.3,24.33 44.88,23.76 	"/>
	<polygon class="st0" points="44.81,23.5 44.83,23.83 47.26,23.67 47.24,23.34 	"/>
	<polygon class="st0" points="44.76,22.84 44.78,23.17 47.22,23 47.19,22.67 	"/>
	<polygon class="st0" points="17.33,21.07 17.55,21.14 17.77,20.46 17.55,20.39 	"/>
	<g>
		<defs>
			<rect id="SVGID_43_" width="630" height="165.76"/>
		</defs>
		<clipPath id="SVGID_44_">
			<use xlink:href="#SVGID_43_"  style="overflow:visible;"/>
		</clipPath>
		<path class="st22" d="M16.86,18.48l-0.09,0.28l1.59,0.52c0.13,0.04,0.19,0.12,0.14,0.26c-0.05,0.14-0.13,0.17-0.27,0.13
			l-1.59-0.52l-0.09,0.28l1.54,0.51c0.23,0.08,0.5,0.06,0.62-0.32c0.12-0.38-0.08-0.55-0.31-0.62L16.86,18.48z"/>
	</g>
	<polygon class="st0" points="18.9,18.9 19.02,18.67 17.43,17.85 17.43,17.84 19.18,18.35 19.37,17.98 17.5,17.02 17.38,17.26 
		18.93,18.06 18.92,18.07 17.22,17.58 17.04,17.94 	"/>
	<polygon class="st0" points="17.61,16.81 19.47,17.77 19.61,17.51 17.74,16.54 	"/>
	<polygon class="st0" points="19.91,17.04 20.1,16.76 18.57,15.24 18.41,15.49 19.65,16.66 19.64,16.67 18.08,16.01 17.92,16.25 	
		"/>
	<polygon class="st0" points="20.33,16.38 20.84,15.78 20.66,15.62 20.33,16 19.8,15.53 20.11,15.17 19.92,15.01 19.61,15.37 
		19.12,14.93 19.45,14.55 19.26,14.39 18.74,14.99 	"/>
	<g>
		<defs>
			<rect id="SVGID_45_" width="630" height="165.76"/>
		</defs>
		<clipPath id="SVGID_46_">
			<use xlink:href="#SVGID_45_"  style="overflow:visible;"/>
		</clipPath>
		<path class="st23" d="M19.86,14.07l0.09-0.11c0.12-0.14,0.15-0.13,0.39,0.08c0.24,0.21,0.25,0.26,0.1,0.43l-0.05,0.06L19.86,14.07
			z M21.07,15.52l0.19-0.22l-0.69-0.6l0.06-0.08c0.13-0.15,0.19-0.14,0.34-0.01l0.36,0.31c0.06,0.06,0.11,0.09,0.17,0.1l0.18-0.21
			c-0.08-0.04-0.16-0.11-0.21-0.16l-0.34-0.3c-0.15-0.13-0.27-0.15-0.41-0.01l-0.01,0c0.1-0.23,0.03-0.34-0.18-0.53
			c-0.35-0.3-0.46-0.35-0.74-0.02l-0.29,0.34L21.07,15.52z"/>
		<path class="st23" d="M21.41,14.55c0.16,0.21,0.37,0.18,0.58,0.02c0.27-0.21,0.26-0.45,0.05-0.71c-0.16-0.2-0.26-0.25-0.66-0.31
			c-0.38-0.06-0.46-0.11-0.55-0.22c-0.1-0.13-0.1-0.22,0-0.29c0.09-0.07,0.17-0.05,0.24,0.05l0.1,0.13l0.21-0.17l-0.12-0.16
			c-0.09-0.12-0.16-0.15-0.23-0.16c-0.09-0.01-0.21,0.02-0.34,0.12c-0.25,0.2-0.29,0.41-0.07,0.69c0.18,0.23,0.4,0.26,0.66,0.3
			c0.42,0.05,0.46,0.09,0.57,0.23c0.08,0.11,0.12,0.21,0,0.31c-0.09,0.07-0.19,0.04-0.27-0.08l-0.11-0.14l-0.23,0.18L21.41,14.55z"
			/>
	</g>
	<polygon class="st0" points="22.52,14.14 22.75,13.96 21.46,12.29 21.23,12.47 	"/>
	<g>
		<defs>
			<rect id="SVGID_47_" width="630" height="165.76"/>
		</defs>
		<clipPath id="SVGID_48_">
			<use xlink:href="#SVGID_47_"  style="overflow:visible;"/>
		</clipPath>
		<path class="st24" d="M23.02,13.72l0.33-0.26c0.36-0.29,0.33-0.48,0-0.91l-0.38-0.5c-0.38-0.48-0.5-0.59-0.87-0.29l-0.37,0.29
			L23.02,13.72z M22.11,12.07l0.09-0.07c0.19-0.15,0.28-0.09,0.47,0.16l0.44,0.57c0.22,0.29,0.26,0.4,0.09,0.53l-0.11,0.09
			L22.11,12.07z"/>
	</g>
	<path class="st0" d="M23.54,11.23L23.54,11.23l0.62,0.82l-0.33,0.17L23.54,11.23z M23.8,13.12l0.26-0.13l-0.16-0.53l0.4-0.21
		l0.33,0.44l0.26-0.13l-1.33-1.69l-0.3,0.15L23.8,13.12z"/>
	<g>
		<defs>
			<rect id="SVGID_49_" width="630" height="165.76"/>
		</defs>
		<clipPath id="SVGID_50_">
			<use xlink:href="#SVGID_49_"  style="overflow:visible;"/>
		</clipPath>
		<path class="st25" d="M24.97,12.52l0.37-0.19c0.41-0.21,0.42-0.41,0.17-0.89l-0.28-0.56c-0.28-0.55-0.38-0.67-0.8-0.46l-0.42,0.21
			L24.97,12.52z M24.38,10.72l0.1-0.05c0.22-0.11,0.29-0.03,0.44,0.24l0.33,0.65c0.16,0.32,0.18,0.44-0.01,0.54l-0.12,0.06
			L24.38,10.72z"/>
		<path class="st25" d="M26.52,11.8l0.41-0.12c0.44-0.13,0.49-0.32,0.34-0.84l-0.17-0.61c-0.17-0.59-0.25-0.73-0.7-0.6l-0.45,0.13
			L26.52,11.8z M26.29,9.93l0.11-0.03c0.24-0.07,0.3,0.02,0.38,0.33l0.2,0.7c0.1,0.35,0.09,0.47-0.11,0.53l-0.13,0.04L26.29,9.93z"
			/>
		<path class="st25" d="M27.59,11.49l0.26-0.08l-0.28-0.98c-0.04-0.15,0.04-0.21,0.17-0.25l-0.07-0.26
			c-0.13,0.04-0.16,0.08-0.19,0.23l-0.01,0L27.44,10l-0.25,0.07L27.59,11.49z"/>
	</g>
	<polygon class="st0" points="27.86,11.05 27.95,11.38 28.28,11.29 28.19,10.95 	"/>
	<g>
		<defs>
			<rect id="SVGID_51_" width="630" height="165.76"/>
		</defs>
		<clipPath id="SVGID_52_">
			<use xlink:href="#SVGID_51_"  style="overflow:visible;"/>
		</clipPath>
		<path class="st26" d="M28.73,10.83c0.02,0.29,0.17,0.35,0.41,0.33c0.29-0.02,0.39-0.19,0.37-0.44l-0.15-1.72l-0.29,0.02l0.15,1.69
			c0.01,0.11,0.01,0.21-0.1,0.22c-0.1,0.01-0.12-0.11-0.13-0.19l-0.02-0.21l-0.27,0.02L28.73,10.83z"/>
		<path class="st26" d="M29.65,10.58c0.03,0.33,0.16,0.51,0.53,0.48c0.4-0.04,0.47-0.3,0.44-0.6l-0.09-1.06
			c-0.03-0.33-0.16-0.51-0.54-0.48c-0.39,0.03-0.47,0.3-0.44,0.6L29.65,10.58z M29.84,9.46c-0.02-0.21,0.04-0.31,0.17-0.32
			c0.13-0.01,0.21,0.08,0.23,0.29l0.1,1.11c0.02,0.18-0.06,0.29-0.18,0.3c-0.12,0.01-0.21-0.08-0.22-0.26L29.84,9.46z"/>
		<path class="st26" d="M30.92,10.53c-0.02,0.26,0.15,0.39,0.42,0.42c0.34,0.03,0.49-0.15,0.52-0.48c0.02-0.25-0.02-0.36-0.28-0.68
			c-0.24-0.3-0.26-0.39-0.25-0.54c0.01-0.16,0.07-0.23,0.19-0.21c0.11,0.01,0.16,0.08,0.15,0.2L31.64,9.4l0.27,0.02l0.02-0.2
			c0.01-0.15-0.02-0.23-0.06-0.28c-0.06-0.07-0.17-0.13-0.33-0.15c-0.31-0.03-0.49,0.11-0.52,0.45C31,9.54,31.14,9.73,31.31,9.93
			c0.27,0.33,0.28,0.39,0.26,0.56c-0.01,0.14-0.06,0.24-0.21,0.23c-0.12-0.01-0.16-0.1-0.15-0.24l0.01-0.17l-0.29-0.03L30.92,10.53z
			"/>
	</g>
	<polygon class="st0" points="31.93,10.99 32.71,11.06 32.73,10.81 32.24,10.77 32.3,10.06 32.77,10.1 32.79,9.85 32.32,9.81 
		32.38,9.15 32.87,9.2 32.89,8.95 32.11,8.88 	"/>
	<polygon class="st0" points="33.39,11.01 33.64,11.09 34.16,9.25 34.16,9.26 33.95,11.18 34.23,11.26 35.04,9.51 35.04,9.51 
		34.52,11.34 34.78,11.42 35.36,9.38 34.93,9.26 34.23,10.73 34.23,10.73 34.41,9.11 33.97,8.98 	"/>
	<path class="st0" d="M35.94,9.88L35.94,9.88l-0.1,1.03l-0.35-0.1L35.94,9.88z M34.83,11.43l0.28,0.09l0.26-0.48l0.43,0.14
		l-0.07,0.54L36,11.81l0.24-2.15l-0.32-0.1L34.83,11.43z"/>
	<polygon class="st0" points="36.51,10.03 36.85,10.14 36.27,11.92 36.55,12.01 37.12,10.23 37.45,10.34 37.53,10.11 36.59,9.8 	"/>
	<polygon class="st0" points="36.91,12.16 37.17,12.28 38.06,10.36 37.8,10.24 	"/>
	<path class="st0" d="M38.67,11.09L38.67,11.09l-0.29,0.99l-0.33-0.17L38.67,11.09z M37.32,12.36l0.26,0.13l0.33-0.44l0.4,0.21
		l-0.16,0.52l0.26,0.13l0.57-2.08l-0.3-0.15L37.32,12.36z"/>
	<g>
		<defs>
			<rect id="SVGID_53_" width="630" height="165.76"/>
		</defs>
		<clipPath id="SVGID_54_">
			<use xlink:href="#SVGID_53_"  style="overflow:visible;"/>
		</clipPath>
		<path class="st27" d="M38.7,12.63c-0.15,0.21-0.07,0.41,0.14,0.57c0.28,0.21,0.49,0.13,0.69-0.14c0.15-0.21,0.17-0.32,0.11-0.73
			c-0.05-0.39-0.02-0.47,0.06-0.59c0.1-0.13,0.18-0.16,0.28-0.08c0.09,0.07,0.09,0.15,0.02,0.25l-0.1,0.14l0.22,0.16l0.12-0.16
			c0.09-0.12,0.1-0.2,0.09-0.27c-0.02-0.09-0.08-0.2-0.21-0.3c-0.26-0.19-0.47-0.16-0.67,0.12c-0.17,0.23-0.14,0.46-0.1,0.72
			c0.07,0.42,0.04,0.48-0.06,0.62c-0.08,0.11-0.17,0.18-0.3,0.08c-0.09-0.07-0.09-0.17,0-0.29l0.1-0.14l-0.23-0.17L38.7,12.63z"/>
		<path class="st27" d="M39.68,13.84l0.33,0.26c0.36,0.29,0.54,0.21,0.87-0.22l0.38-0.5c0.38-0.48,0.44-0.63,0.07-0.93l-0.37-0.29
			L39.68,13.84z M41.05,12.54l0.09,0.07c0.19,0.15,0.16,0.26-0.04,0.5l-0.44,0.57c-0.22,0.29-0.32,0.35-0.49,0.22l-0.11-0.09
			L41.05,12.54z"/>
	</g>
	<polygon class="st0" points="40.57,14.59 41.12,15.16 41.29,14.99 40.95,14.63 41.46,14.13 41.78,14.48 41.96,14.3 41.63,13.96 
		42.1,13.5 42.45,13.86 42.63,13.69 42.08,13.12 	"/>
	<polygon class="st0" points="41.23,15.24 41.74,15.84 41.92,15.67 41.6,15.3 43,14.08 42.81,13.85 	"/>
	<g>
		<defs>
			<rect id="SVGID_55_" width="630" height="165.76"/>
		</defs>
		<clipPath id="SVGID_56_">
			<use xlink:href="#SVGID_55_"  style="overflow:visible;"/>
		</clipPath>
		<path class="st28" d="M43.59,15.61l0.14-0.13c0.2-0.18,0.18-0.38-0.02-0.61c-0.25-0.29-0.44-0.27-0.74-0.01l-0.8,0.7
			c-0.24,0.22-0.31,0.43-0.07,0.72c0.11,0.13,0.26,0.26,0.35,0.33l0.79-0.7l-0.32-0.37l-0.18,0.16l0.13,0.15l-0.46,0.41
			c-0.03-0.02-0.08-0.07-0.14-0.13c-0.08-0.09-0.05-0.22,0.08-0.34l0.8-0.7c0.17-0.15,0.31-0.18,0.39-0.08
			c0.07,0.09,0.05,0.2-0.06,0.3l-0.08,0.07L43.59,15.61z"/>
	</g>
	<path class="st0" d="M44.36,16.44L44.36,16.44l-0.78,0.67l-0.18-0.32L44.36,16.44z M42.5,16.81l0.15,0.25l0.51-0.19l0.23,0.4
		l-0.41,0.35l0.14,0.25l1.6-1.43l-0.17-0.29L42.5,16.81z"/>
	<g>
		<defs>
			<rect id="SVGID_57_" width="630" height="165.76"/>
		</defs>
		<clipPath id="SVGID_58_">
			<use xlink:href="#SVGID_57_"  style="overflow:visible;"/>
		</clipPath>
		<path class="st29" d="M43.21,18.07l0.21,0.37c0.23,0.4,0.42,0.4,0.89,0.13l0.54-0.31c0.53-0.31,0.64-0.42,0.41-0.83l-0.23-0.41
			L43.21,18.07z M44.96,17.39l0.06,0.1c0.12,0.22,0.05,0.3-0.22,0.45l-0.62,0.36c-0.31,0.18-0.43,0.2-0.54,0.01l-0.07-0.12
			L44.96,17.39z"/>
		<path class="st29" d="M44.18,18.91c-0.31,0.1-0.46,0.28-0.34,0.63c0.12,0.38,0.4,0.39,0.68,0.3l1.01-0.33
			c0.31-0.1,0.46-0.28,0.34-0.64c-0.12-0.38-0.4-0.39-0.68-0.3L44.18,18.91z M45.3,18.85c0.2-0.06,0.31-0.03,0.35,0.1
			c0.04,0.13-0.03,0.22-0.22,0.29l-1.05,0.34c-0.17,0.06-0.29,0.01-0.33-0.11c-0.04-0.11,0.03-0.22,0.2-0.28L45.3,18.85z"/>
	</g>
	
		<rect x="44.89" y="20.34" transform="matrix(0.9522 -0.3053 0.3053 0.9522 -4.1702 14.7285)" class="st0" width="0.22" height="0.71"/>
</g>
</svg>
