<?xml version="1.0" encoding="utf-8"?>
<!-- Generator: Adobe Illustrator 24.0.0, SVG Export Plug-In . SVG Version: 6.00 Build 0)  -->
<svg version="1.1" id="Capa_1" xmlns="http://www.w3.org/2000/svg" xmlns:xlink="http://www.w3.org/1999/xlink" x="0px" y="0px"
	 viewBox="0 0 498 85" style="enable-background:new 0 0 498 85;" xml:space="preserve">
<style type="text/css">
	.st0{fill:#5EADC7;}
</style>
<g>
	<rect y="82" class="st0" width="498" height="3"/>
</g>
<g>
	<path class="st0" d="M14.15,1.8h23.47c10.65,0,16.42,5.92,16.42,15.82c0,9.9-5.77,15.9-16.42,15.82H21.28v21.9h-7.13V1.8z
		 M21.28,27.45h13.95c8.02,0.08,11.7-3.45,11.7-9.82S43.25,7.8,35.23,7.8H21.28V27.45z"/>
	<path class="st0" d="M89.98,15.15c0.05,0.5,0.1,1.03,0.15,1.58c0.05,0.55,0.07,1.1,0.07,1.65c0,2.55-0.4,5.03-1.2,7.43
		c-0.8,2.4-1.96,4.54-3.49,6.41c-1.53,1.88-3.39,3.38-5.59,4.5c-2.2,1.13-4.68,1.69-7.42,1.69c-1.7,0-3.29-0.25-4.76-0.75
		c-1.48-0.5-2.77-1.24-3.9-2.21c-1.13-0.97-2.01-2.16-2.66-3.56c-0.65-1.4-0.98-2.97-0.98-4.72c0-2.85,0.64-5.5,1.91-7.95
		c1.27-2.45,2.97-4.69,5.1-6.71c2.12-2.03,4.56-3.81,7.31-5.36c2.75-1.55,5.59-2.85,8.51-3.9c2.92-1.05,5.86-1.85,8.81-2.4
		C94.8,0.28,97.5,0,99.95,0c1.75,0,3.4,0.03,4.95,0.08c1.55,0.05,3.08,0.18,4.58,0.38c1.5,0.2,3,0.49,4.5,0.86s3.1,0.86,4.8,1.46
		c1.65-0.6,3.3-1.11,4.95-1.54c1.65-0.42,3.2-0.64,4.65-0.64v0.6c-1.35,0.2-2.69,0.49-4.01,0.86c-1.33,0.38-2.59,0.89-3.79,1.54
		c1.85,1.1,3.44,2.53,4.76,4.27c1.32,1.75,1.99,3.75,1.99,6c0,2.5-0.6,4.63-1.8,6.38c-1.2,1.75-2.74,3.18-4.61,4.28
		c-1.88,1.1-3.94,1.91-6.19,2.44s-4.43,0.84-6.53,0.94v0.15c1.5,0.65,2.84,1.6,4.01,2.85c1.17,1.25,1.76,2.83,1.76,4.72
		c0,1.55-0.24,3.1-0.71,4.65c-0.48,1.55-0.99,3.06-1.54,4.54c-0.55,1.48-1.06,2.89-1.54,4.24c-0.48,1.35-0.71,2.63-0.71,3.82
		c0,1.55,0.57,2.33,1.72,2.33c1.45,0,3.17-0.62,5.18-1.88c2-1.25,4.13-3,6.38-5.25c1.1-1.1,2.16-2.25,3.19-3.45
		c1.02-1.2,2-2.36,2.92-3.49c0.92-1.13,1.75-2.19,2.48-3.19c0.72-1,1.34-1.82,1.84-2.47l0.6,0.52c-1.25,1.75-2.73,3.7-4.42,5.85
		c-1.7,2.15-3.5,4.23-5.4,6.22c-2.5,2.55-4.95,4.6-7.35,6.15c-2.4,1.55-4.93,2.33-7.58,2.33c-1.9,0-3.4-0.53-4.5-1.58
		c-1.1-1.05-1.65-2.45-1.65-4.2c0-1.6,0.31-3.27,0.94-5.03c0.62-1.75,1.31-3.47,2.06-5.17c0.75-1.7,1.44-3.27,2.06-4.72
		c0.62-1.45,0.94-2.63,0.94-3.53c0-0.95-0.13-1.69-0.38-2.21c-0.25-0.53-0.61-0.94-1.09-1.24c-0.48-0.3-1.04-0.51-1.69-0.64
		c-0.65-0.13-1.38-0.24-2.18-0.34l0.15-0.6c0.75,0.05,1.5,0.05,2.25,0s1.67-0.15,2.78-0.3c2.1-0.3,3.91-1.01,5.44-2.14
		c1.52-1.13,2.77-2.4,3.75-3.83c0.97-1.42,1.69-2.9,2.14-4.42c0.45-1.53,0.68-2.84,0.68-3.94c0-1.6-0.23-2.95-0.68-4.05
		c-0.45-1.1-1.25-2.2-2.4-3.3c-3.25,2.35-6.08,5.24-8.48,8.66c-2.4,3.43-4.66,7.03-6.79,10.8c-2.13,3.78-4.25,7.53-6.38,11.25
		c-2.13,3.73-4.56,7.08-7.31,10.05c-2.75,2.98-5.94,5.39-9.56,7.24c-3.63,1.85-8.01,2.78-13.16,2.78c-1.4,0-2.88-0.18-4.43-0.53
		c-1.55-0.35-2.96-0.91-4.24-1.69c-1.27-0.77-2.33-1.77-3.15-3c-0.83-1.22-1.24-2.69-1.24-4.39c0-1.4,0.39-2.64,1.16-3.71
		c0.78-1.08,1.76-1.61,2.96-1.61c1,0,1.9,0.3,2.7,0.9c0.8,0.6,1.2,1.42,1.2,2.48c0,1-0.25,1.79-0.75,2.36
		c-0.5,0.58-1.23,0.91-2.17,1.01c0,2.65,0.71,4.53,2.14,5.63c1.42,1.1,3.36,1.65,5.81,1.65c2.8,0,5.3-0.6,7.5-1.8
		c2.2-1.2,4.25-2.81,6.15-4.84c1.9-2.02,3.67-4.36,5.32-7.01c1.65-2.65,3.3-5.42,4.95-8.33c1.65-2.9,3.35-5.82,5.1-8.78
		c1.75-2.95,3.65-5.75,5.7-8.4c2.05-2.65,4.31-5.04,6.79-7.16c2.48-2.12,5.26-3.81,8.36-5.06c-1.25-0.65-2.59-1.17-4.01-1.58
		c-1.42-0.4-2.83-0.7-4.2-0.9c-1.38-0.2-2.68-0.32-3.9-0.38c-1.23-0.05-2.29-0.08-3.19-0.08c-3.9,0-7.9,0.65-12,1.95
		c-4.1,1.3-7.83,3.14-11.17,5.51c-3.35,2.38-6.1,5.23-8.25,8.55c-2.15,3.33-3.23,7.01-3.23,11.06c0,2.7,0.77,4.89,2.33,6.56
		c1.55,1.68,3.7,2.51,6.45,2.51c2.15,0,4.11-0.57,5.89-1.73c1.77-1.15,3.31-2.61,4.61-4.39c1.3-1.77,2.31-3.72,3.04-5.85
		c0.72-2.13,1.09-4.19,1.09-6.19c0-0.45-0.01-1-0.04-1.65c-0.03-0.65-0.06-1.32-0.11-2.02L89.98,15.15z"/>
	<path class="st0" d="M153.43,0.53c17.02,0,25.65,13.5,25.65,28.05c0,14.55-8.63,28.05-25.65,28.05c-17.02,0-25.65-13.5-25.65-28.05
		C127.78,14.03,136.4,0.53,153.43,0.53z M153.43,50.63c13.05,0,18.52-11.25,18.52-22.05c0-10.8-5.47-22.05-18.52-22.05
		c-13.05,0-18.52,11.25-18.52,22.05C134.9,39.38,140.38,50.63,153.43,50.63z"/>
	<path class="st0" d="M209.9,33.45v21.9h-7.12v-21.9L182.08,1.8h8.47l16.05,25.5l15.67-25.5h8.1L209.9,33.45z"/>
	<path class="st0" d="M268.03,18.9c1.1,0.4,2.25,0.6,3.45,0.6c3.15,0,5.64-0.82,7.46-2.47s2.74-4.13,2.74-7.43
		c0-2.35-0.63-4.19-1.88-5.51c-1.25-1.32-3.07-1.99-5.47-1.99c-1.45,0-2.76,0.29-3.94,0.86c-1.18,0.58-2.19,1.34-3.04,2.29
		c-0.85,0.95-1.54,2.05-2.06,3.3c-0.53,1.25-0.89,2.53-1.09,3.82c-0.3,1.75-0.59,3.28-0.86,4.58c-0.28,1.3-0.7,2.46-1.27,3.49
		c-0.58,1.03-1.36,1.95-2.36,2.78c-1,0.83-2.38,1.66-4.13,2.51c-2,0.95-3.83,1.91-5.47,2.89c-1.65,0.97-3.05,2.1-4.2,3.38
		c-1.15,1.27-2.05,2.79-2.7,4.54c-0.65,1.75-0.97,3.88-0.97,6.38c0,2,0.41,3.76,1.24,5.29c0.83,1.53,1.91,2.81,3.26,3.86
		c1.35,1.05,2.89,1.84,4.61,2.36c1.73,0.52,3.51,0.79,5.36,0.79c1.95,0,3.8-0.29,5.55-0.86c1.75-0.57,3.3-1.42,4.65-2.55
		c1.35-1.13,2.43-2.51,3.23-4.16c0.8-1.65,1.2-3.52,1.2-5.63c0-2.1-0.54-3.75-1.61-4.95c-1.08-1.2-2.66-1.8-4.76-1.8
		c-1.85,0-3.51,0.48-4.99,1.43c-1.47,0.95-2.81,2.08-4.01,3.38l-0.53-0.38c1.8-1.85,3.69-3.27,5.66-4.28c1.97-1,4.29-1.5,6.94-1.5
		c1.35,0,2.6,0.19,3.75,0.56s2.16,0.93,3.04,1.65c0.87,0.72,1.56,1.63,2.06,2.7c0.5,1.08,0.75,2.29,0.75,3.64c0,2.6-0.9,4.8-2.7,6.6
		c-1.8,1.8-4.01,3.26-6.64,4.39s-5.39,1.92-8.29,2.4c-2.9,0.47-5.45,0.71-7.65,0.71c-2.05,0-4.14-0.21-6.26-0.64
		c-2.13-0.43-4.04-1.14-5.74-2.14c-1.7-1-3.09-2.33-4.16-3.97c-1.08-1.65-1.61-3.72-1.61-6.23c0-2.45,0.5-4.49,1.5-6.11
		c1-1.62,2.26-3.01,3.79-4.16c1.52-1.15,3.17-2.15,4.95-3c1.77-0.85,3.44-1.73,4.99-2.63c1.55-0.9,2.85-1.9,3.9-3
		c1.05-1.1,1.62-2.48,1.72-4.13c0.2-3.6,0.84-6.64,1.91-9.11s2.49-4.46,4.24-5.96c1.75-1.5,3.77-2.59,6.07-3.26
		c2.3-0.67,4.73-1.01,7.28-1.01c1.35,0,2.75,0.13,4.2,0.38c1.45,0.25,2.76,0.7,3.94,1.35c1.17,0.65,2.14,1.53,2.89,2.63
		c0.75,1.1,1.13,2.47,1.13,4.13c0,1.8-0.41,3.36-1.24,4.69c-0.82,1.33-1.89,2.44-3.19,3.34c-1.3,0.9-2.75,1.58-4.35,2.03
		c-1.6,0.45-3.2,0.67-4.8,0.67c-0.95,0-1.89-0.06-2.81-0.19c-0.93-0.12-1.84-0.34-2.74-0.64L268.03,18.9z"/>
	<path class="st0" d="M325.4,17.93c-1.5-7.57-7.57-11.4-15-11.4c-12.75,0-18.15,10.5-18.15,21.67c0,12.22,5.4,22.42,18.22,22.42
		c9.38,0,14.77-6.6,15.45-15.45h7.13c-1.35,13.35-9.67,21.45-23.17,21.45c-16.65,0-24.75-12.3-24.75-27.9
		c0-15.52,8.85-28.2,25.35-28.2c11.17,0,20.4,6,22.05,17.4H325.4z"/>
	<path class="st0" d="M354.05,7.8H336.2v-6h42.82v6h-17.85v47.55h-7.13V7.8z"/>
	<path class="st0" d="M407.6,0.53c17.02,0,25.65,13.5,25.65,28.05c0,14.55-8.63,28.05-25.65,28.05c-17.02,0-25.65-13.5-25.65-28.05
		C381.95,14.03,390.57,0.53,407.6,0.53z M407.6,50.63c13.05,0,18.52-11.25,18.52-22.05c0-10.8-5.47-22.05-18.52-22.05
		c-13.05,0-18.52,11.25-18.52,22.05C389.07,39.38,394.55,50.63,407.6,50.63z"/>
	<path class="st0" d="M472.92,17.48C472.1,9.83,467,6.53,459.65,6.53c-6,0-12,2.18-12,9.15c0,6.6,8.55,7.58,17.17,9.52
		c8.55,1.95,17.1,4.95,17.1,15.45c0,11.4-11.17,15.97-20.92,15.97c-12,0-22.13-5.85-22.13-18.9h6.75c0,9,7.5,12.9,15.6,12.9
		c6.45,0,13.57-2.03,13.57-9.75c0-7.35-8.55-8.63-17.1-10.5c-8.55-1.88-17.17-4.35-17.17-14.17c0-10.88,9.67-15.67,19.42-15.67
		c10.95,0,19.27,5.17,19.72,16.95H472.92z"/>
</g>
</svg>
