<?xml version="1.0" encoding="utf-8"?>
<!-- Generator: Adobe Illustrator 24.0.0, SVG Export Plug-In . SVG Version: 6.00 Build 0)  -->
<svg version="1.1" id="Capa_1" xmlns="http://www.w3.org/2000/svg" xmlns:xlink="http://www.w3.org/1999/xlink" x="0px" y="0px"
	 viewBox="0 0 307 78" style="enable-background:new 0 0 307 78;" xml:space="preserve">
<style type="text/css">
	.st0{fill:#D9BEFB;}
</style>
<g>
	<path class="st0" d="M0.35,8.2V7.6h25.1c6.4,0,11.68,0.55,15.85,1.65c4.17,1.1,7.45,2.67,9.85,4.7c2.4,2.04,4.08,4.5,5.05,7.4
		s1.45,6.15,1.45,9.75c0,3.2-0.47,6.18-1.4,8.95c-0.93,2.77-2.37,5.15-4.3,7.15s-4.42,3.58-7.45,4.75
		c-3.04,1.17-6.65,1.75-10.85,1.75c-4.33,0-7.62-1-9.85-3c-2.23-2-3.75-4.4-4.55-7.2v25.4c0,2.6,0.63,4.6,1.9,6
		c1.27,1.4,3.2,2.1,5.8,2.1v0.6H0.35V77c0.8,0,1.65-0.18,2.55-0.55c0.9-0.37,1.73-0.88,2.5-1.55c0.77-0.67,1.4-1.52,1.9-2.55
		c0.5-1.03,0.75-2.18,0.75-3.45V16.3c0-2.93-0.7-5.02-2.1-6.25C4.55,8.82,2.68,8.2,0.35,8.2z M19.25,8.4v28
		c0,3.2,0.42,5.85,1.25,7.95c0.83,2.1,1.92,3.78,3.25,5.05c1.33,1.27,2.85,2.15,4.55,2.65s3.45,0.75,5.25,0.75
		c4.33,0,7.52-1.83,9.55-5.5c2.03-3.67,3.05-9.3,3.05-16.9c0-3.53-0.35-6.65-1.05-9.35c-0.7-2.7-1.87-5-3.5-6.9
		c-1.63-1.9-3.77-3.33-6.4-4.3c-2.63-0.97-5.88-1.45-9.75-1.45H19.25z"/>
	<path class="st0" d="M62.05,8.2V7.6h26.6v0.6c-2.6,0-4.53,0.7-5.8,2.1c-1.27,1.4-1.9,3.4-1.9,6v41c0,6.53,1.53,11.32,4.6,14.35
		c3.07,3.03,7.1,4.55,12.1,4.55c2.27,0,4.4-0.48,6.4-1.45c2-0.97,3.73-2.3,5.2-4c1.47-1.7,2.62-3.7,3.45-6
		c0.83-2.3,1.25-4.78,1.25-7.45v-41c0-2.6-0.63-4.6-1.9-6c-1.27-1.4-3.2-2.1-5.8-2.1V7.6h16v0.6c-2.6,0-4.53,0.7-5.8,2.1
		c-1.27,1.4-1.9,3.4-1.9,6v41c0,2.67-0.42,5.23-1.25,7.7c-0.83,2.47-2.1,4.65-3.8,6.55c-1.7,1.9-3.88,3.4-6.55,4.5
		c-2.67,1.1-5.83,1.65-9.5,1.65c-8.07,0-14.04-1.85-17.9-5.55c-3.87-3.7-5.8-9.38-5.8-17.05V16.3c0-2.6-0.63-4.6-1.9-6
		C66.58,8.9,64.65,8.2,62.05,8.2z"/>
	<path class="st0" d="M126.75,7.8h26.6v0.6c-2.6,0-4.53,0.7-5.8,2.1c-1.27,1.4-1.9,3.4-1.9,6v52.6c0,2.6,0.63,4.6,1.9,6
		c1.27,1.4,3.2,2.1,5.8,2.1h3.6c4.53,0,8.43-0.93,11.7-2.8c3.27-1.87,6.12-4.17,8.55-6.9c2.43-2.73,4.5-5.67,6.2-8.8
		c1.7-3.13,3.18-5.96,4.45-8.5h1.1c-2.13,5.13-4.03,9.73-5.7,13.8c-0.73,1.67-1.43,3.33-2.1,5c-0.67,1.67-1.29,3.15-1.85,4.45
		c-0.57,1.3-1.18,2.75-1.85,4.35h-50.7v-0.6c2.6,0,4.53-0.7,5.8-2.1c1.27-1.4,1.9-3.4,1.9-6V16.5c0-2.6-0.63-4.6-1.9-6
		c-1.27-1.4-3.2-2.1-5.8-2.1V7.8z"/>
	<path class="st0" d="M216.85,7.1c1.73,0,3.68,0.15,5.85,0.45c2.17,0.3,4.05,0.78,5.65,1.45c1.6,0.6,2.95,1.15,4.05,1.65
		s2.02,0.72,2.75,0.65c1.13,0,2.13-0.3,3-0.9c0.87-0.6,1.3-1.53,1.3-2.8h0.6l-0.5,20.6h-0.6c0-2.87-0.69-5.53-2.05-8
		c-1.37-2.46-3.12-4.62-5.25-6.45c-2.13-1.83-4.5-3.27-7.1-4.3c-2.6-1.03-5.17-1.55-7.7-1.55c-1.87,0-3.82,0.18-5.85,0.55
		c-2.03,0.37-3.88,0.98-5.55,1.85c-1.67,0.87-3.05,2.03-4.15,3.5c-1.1,1.47-1.65,3.3-1.65,5.5s0.57,4.08,1.7,5.65
		c1.13,1.57,2.63,2.93,4.5,4.1c1.87,1.17,3.98,2.22,6.35,3.15c2.37,0.93,4.78,1.88,7.25,2.85c2.46,0.97,4.88,2,7.25,3.1
		c2.37,1.1,4.48,2.45,6.35,4.05c1.87,1.6,3.37,3.48,4.5,5.65c1.13,2.17,1.7,4.78,1.7,7.85c0,3.13-0.58,6.05-1.75,8.75
		c-1.17,2.7-2.8,5.04-4.9,7c-2.1,1.97-4.57,3.52-7.4,4.65c-2.83,1.13-5.92,1.7-9.25,1.7c-2.27,0-4.44-0.23-6.5-0.7
		c-1.47-0.33-2.77-0.7-3.9-1.1c-1.13-0.4-2.15-0.78-3.05-1.15c-0.9-0.37-1.68-0.67-2.35-0.9c-0.67-0.23-1.27-0.35-1.8-0.35
		c-1.13,0-2.13,0.3-3,0.9c-0.87,0.6-1.3,1.53-1.3,2.8l-0.6-0.1l0.5-20.5h0.6c0,2.79,0.65,5.38,1.95,7.76c1.3,2.39,2.97,4.49,5,6.32
		c2.03,1.82,4.32,3.27,6.85,4.33c2.53,1.06,5.03,1.66,7.5,1.79c2.2,0,4.32-0.3,6.35-0.9c2.03-0.6,3.85-1.5,5.45-2.7
		s2.87-2.68,3.8-4.44c0.93-1.76,1.4-3.78,1.4-6.04c0-2.93-0.97-5.38-2.9-7.34c-1.94-1.96-4.37-3.71-7.3-5.24s-6.1-3-9.5-4.39
		s-6.57-3.05-9.5-4.94c-2.93-1.9-5.37-4.19-7.3-6.89c-1.93-2.7-2.9-6.07-2.9-10.14c0-3,0.68-5.58,2.05-7.74
		c1.37-2.16,3.17-3.91,5.4-5.24c2.23-1.33,4.75-2.3,7.55-2.9C211.25,7.4,214.05,7.1,216.85,7.1z"/>
	<path class="st0" d="M244.45,77.8v-0.6c2.6,0,4.53-0.7,5.8-2.1c1.27-1.4,1.9-3.4,1.9-6V16.5c0-2.6-0.63-4.6-1.9-6
		c-1.27-1.4-3.2-2.1-5.8-2.1V7.8h41.9c2.4,0,4.4-0.12,6-0.35c1.6-0.23,2.97-0.63,4.1-1.2c1.13-0.57,2.12-1.35,2.95-2.35
		c0.83-1,1.65-2.23,2.45-3.7h1.1c-0.54,1.2-1.04,2.3-1.5,3.3c-0.33,0.87-0.7,1.72-1.1,2.55c-0.4,0.83-0.67,1.42-0.8,1.75
		c-0.6,1.27-1.32,2.88-2.15,4.85c-0.83,1.97-1.72,4.03-2.65,6.2c-0.93,2.17-1.85,4.3-2.75,6.4c-0.9,2.1-1.72,3.95-2.45,5.55h-0.9
		c1.27-2.93,2.23-5.75,2.9-8.45c0.67-2.7,0.73-5.08,0.2-7.15c-0.53-2.07-1.85-3.71-3.95-4.95c-2.1-1.23-5.29-1.85-9.55-1.85h-7.2
		c-2.6,0-4.54,0.7-5.8,2.1c-1.27,1.4-1.9,3.4-1.9,6v21.8h4.8c1.93,0,3.65-0.03,5.15-0.1c1.5-0.07,2.88-0.33,4.15-0.8
		c1.27-0.47,2.45-1.2,3.55-2.2c1.1-1,2.22-2.46,3.35-4.4h0.8l-11.6,26.1h-0.7c0.93-2.33,1.57-4.57,1.9-6.7
		c0.33-2.13,0.23-4.03-0.3-5.7c-0.54-1.67-1.58-3-3.15-4c-1.57-1-3.75-1.5-6.55-1.5h-1.4v30.1c0,2.6,0.63,4.6,1.9,6
		c1.27,1.4,3.2,2.1,5.8,2.1h3.6c4.53,0,8.43-0.93,11.7-2.8c3.27-1.87,6.12-4.17,8.55-6.9c2.43-2.73,4.5-5.67,6.2-8.8
		c1.7-3.13,3.18-5.96,4.45-8.5h1.1c-2.13,5.13-4.03,9.73-5.7,13.8c-0.73,1.67-1.44,3.33-2.1,5c-0.67,1.67-1.28,3.15-1.85,4.45
		c-0.57,1.3-1.18,2.75-1.85,4.35H244.45z"/>
</g>
</svg>
