<?xml version="1.0" encoding="utf-8"?>
<!-- Generator: Adobe Illustrator 24.0.0, SVG Export Plug-In . SVG Version: 6.00 Build 0)  -->
<svg version="1.1" id="Capa_1" xmlns="http://www.w3.org/2000/svg" xmlns:xlink="http://www.w3.org/1999/xlink" x="0px" y="0px"
	 viewBox="0 0 660 160" style="enable-background:new 0 0 660 160;" xml:space="preserve">
<style type="text/css">
	.st0{fill:#5EADC7;}
	.st1{fill:#FF857B;}
</style>
<g>
	<g>
		<path class="st0" d="M13.99,25.15c0-1.11-0.4-2.04-1.19-2.79c-0.8-0.75-2.2-1.39-4.2-1.92c-2.49-0.62-4.43-1.52-5.83-2.72
			c-1.4-1.2-2.09-2.71-2.09-4.52c0-1.92,0.75-3.51,2.25-4.79s3.45-1.92,5.85-1.92c2.58,0,4.63,0.73,6.16,2.19
			c1.53,1.46,2.27,3.17,2.23,5.12l-0.05,0.1h-3.16c0-1.39-0.49-2.54-1.45-3.45S10.29,9.1,8.78,9.1c-1.55,0-2.73,0.38-3.56,1.13
			c-0.82,0.75-1.24,1.73-1.24,2.93c0,1.06,0.45,1.95,1.35,2.66c0.9,0.71,2.37,1.34,4.4,1.87c2.47,0.64,4.34,1.58,5.63,2.82
			s1.93,2.78,1.93,4.61c0,1.97-0.78,3.56-2.33,4.76c-1.55,1.2-3.58,1.8-6.08,1.8c-2.37,0-4.45-0.66-6.26-1.98
			C0.82,28.37-0.05,26.6,0,24.38l0.03-0.1H3.2c0,1.54,0.58,2.72,1.75,3.56c1.17,0.83,2.48,1.25,3.95,1.25
			c1.57,0,2.81-0.35,3.72-1.06S13.99,26.36,13.99,25.15z"/>
		<path class="st0" d="M40.69,21.27c0,2.99-0.93,5.48-2.78,7.45c-1.86,1.97-4.26,2.96-7.22,2.96c-2.86,0-5.18-0.99-6.97-2.96
			c-1.79-1.97-2.68-4.46-2.68-7.45v-4.35c0-2.98,0.89-5.46,2.68-7.45c1.79-1.98,4.11-2.98,6.97-2.98c2.96,0,5.37,0.99,7.22,2.97
			c1.86,1.98,2.78,4.46,2.78,7.46V21.27z M37.38,16.88c0-2.24-0.61-4.08-1.82-5.51c-1.21-1.43-2.84-2.15-4.88-2.15
			c-1.93,0-3.47,0.72-4.62,2.15c-1.15,1.43-1.72,3.27-1.72,5.51v4.39c0,2.26,0.57,4.11,1.72,5.55c1.15,1.43,2.69,2.15,4.62,2.15
			c2.05,0,3.68-0.71,4.88-2.14c1.2-1.43,1.81-3.28,1.81-5.56V16.88z"/>
		<path class="st0" d="M45.46,31.32V6.84h7.99c2.56,0,4.56,0.55,6,1.66c1.45,1.1,2.17,2.76,2.17,4.97c0,1.05-0.33,2-0.98,2.83
			c-0.65,0.83-1.51,1.47-2.59,1.91c1.6,0.22,2.87,0.92,3.81,2.08c0.94,1.17,1.4,2.54,1.4,4.12c0,2.24-0.73,3.95-2.19,5.14
			c-1.46,1.18-3.43,1.77-5.92,1.77H45.46z M48.78,17.25h5.36c1.23,0,2.24-0.34,3.01-1.02c0.77-0.68,1.16-1.62,1.16-2.83
			c0-1.32-0.42-2.31-1.25-2.97c-0.83-0.66-2.04-0.98-3.61-0.98h-4.67V17.25z M48.78,19.84v8.89h6.39c1.51,0,2.69-0.37,3.52-1.12
			c0.83-0.75,1.25-1.8,1.25-3.17c0-1.36-0.43-2.45-1.28-3.28c-0.85-0.83-2-1.27-3.45-1.33H55H48.78z"/>
		<path class="st0" d="M70.67,20.71v10.61h-3.31V6.86h8.37c2.68,0,4.72,0.59,6.14,1.78c1.41,1.19,2.12,2.91,2.12,5.18
			c0,1.26-0.33,2.35-0.98,3.28c-0.66,0.93-1.61,1.67-2.87,2.22c1.34,0.44,2.31,1.15,2.9,2.13c0.59,0.98,0.88,2.19,0.88,3.64v2.3
			c0,0.76,0.08,1.45,0.25,2.05c0.17,0.61,0.46,1.1,0.87,1.48v0.4h-3.41c-0.44-0.38-0.72-0.94-0.84-1.68
			c-0.12-0.74-0.19-1.5-0.19-2.29v-2.24c0-1.32-0.39-2.39-1.16-3.19s-1.81-1.21-3.11-1.21H70.67z M70.67,18.11h4.72
			c1.87,0,3.22-0.36,4.04-1.07c0.82-0.71,1.24-1.8,1.24-3.25c0-1.38-0.4-2.45-1.2-3.2c-0.8-0.76-2.05-1.14-3.74-1.14h-5.06V18.11z"
			/>
		<path class="st0" d="M102.63,19.97H92.57v8.76h11.77v2.59H89.26V6.84h14.9v2.61H92.57v7.92h10.05V19.97z"/>
		<path class="st0" d="M128.95,26.73h0.1l7.82-19.89h4.12v24.48h-3.31V12.98l-0.1-0.02l-7.41,18.36h-2.3l-7.63-18.96l-0.1,0.02
			v18.95h-3.31V6.84h4.35L128.95,26.73z"/>
		<path class="st0" d="M150.39,31.32h-3.33V6.84h3.33V31.32z M150.32,0h3.87l0.03,0.1l-4.52,4.37h-2.49L150.32,0z"/>
		<path class="st0" d="M167.91,35.86h-3.31V6.84h3.31V35.86z"/>
		<path class="st0" d="M194.74,25.02h-9.21l-2.19,6.3h-3.38l8.83-24.48h2.84l8.64,24.48h-3.38L194.74,25.02z M186.49,22.24h7.31
			l-3.56-10.51h-0.1L186.49,22.24z"/>
		<path class="st0" d="M203.87,31.32V6.84h7.99c2.56,0,4.56,0.55,6,1.66s2.17,2.76,2.17,4.97c0,1.05-0.33,2-0.98,2.83
			c-0.65,0.83-1.51,1.47-2.59,1.91c1.6,0.22,2.87,0.92,3.81,2.08c0.94,1.17,1.4,2.54,1.4,4.12c0,2.24-0.73,3.95-2.19,5.14
			c-1.46,1.18-3.43,1.77-5.92,1.77H203.87z M207.18,17.25h5.36c1.23,0,2.24-0.34,3.01-1.02c0.77-0.68,1.16-1.62,1.16-2.83
			c0-1.32-0.42-2.31-1.25-2.97c-0.83-0.66-2.04-0.98-3.61-0.98h-4.67V17.25z M207.18,19.84v8.89h6.39c1.51,0,2.69-0.37,3.52-1.12
			c0.83-0.75,1.25-1.8,1.25-3.17c0-1.36-0.43-2.45-1.28-3.28c-0.85-0.83-2-1.27-3.45-1.33h-0.22H207.18z"/>
		<path class="st0" d="M244.45,21.27c0,2.99-0.93,5.48-2.78,7.45c-1.86,1.97-4.26,2.96-7.22,2.96c-2.86,0-5.18-0.99-6.97-2.96
			c-1.79-1.97-2.68-4.46-2.68-7.45v-4.35c0-2.98,0.89-5.46,2.68-7.45s4.11-2.98,6.97-2.98c2.96,0,5.37,0.99,7.22,2.97
			c1.86,1.98,2.78,4.46,2.78,7.46V21.27z M241.14,16.88c0-2.24-0.61-4.08-1.82-5.51c-1.21-1.43-2.84-2.15-4.88-2.15
			c-1.93,0-3.47,0.72-4.62,2.15c-1.15,1.43-1.72,3.27-1.72,5.51v4.39c0,2.26,0.57,4.11,1.72,5.55c1.15,1.43,2.69,2.15,4.62,2.15
			c2.05,0,3.68-0.71,4.88-2.14c1.2-1.43,1.81-3.28,1.81-5.56V16.88z"/>
		<path class="st0" d="M267.29,6.84V23.1c0,2.69-0.87,4.79-2.62,6.3c-1.75,1.51-4,2.27-6.76,2.27c-2.66,0-4.83-0.76-6.52-2.28
			c-1.69-1.52-2.54-3.62-2.54-6.3V6.84h3.31V23.1c0,1.87,0.54,3.34,1.61,4.4c1.07,1.06,2.45,1.59,4.14,1.59
			c1.79,0,3.25-0.53,4.38-1.59c1.13-1.06,1.69-2.52,1.69-4.4V6.84H267.29z"/>
		<path class="st0" d="M289.65,9.45h-8.07v21.87h-3.31V9.45h-7.97V6.84h19.35V9.45z"/>
		<path class="st0" d="M313.82,26.73h0.1l7.82-19.89h4.12v24.48h-3.31V12.98l-0.1-0.02l-7.41,18.36h-2.3l-7.63-18.96l-0.1,0.02
			v18.95h-3.31V6.84h4.35L313.82,26.73z"/>
		<path class="st0" d="M344.96,19.97H334.9v8.76h11.77v2.59h-15.08V6.84h14.9v2.61H334.9v7.92h10.05V19.97z"/>
	</g>
	<g>
		<path class="st1" d="M32.91,122.89c1.08,0.39,2.21,0.59,3.39,0.59c3.1,0,5.55-0.81,7.34-2.43c1.79-1.62,2.69-4.06,2.69-7.31
			c0-2.31-0.62-4.12-1.84-5.42c-1.23-1.3-3.03-1.96-5.39-1.96c-1.43,0-2.72,0.28-3.87,0.85c-1.16,0.57-2.15,1.32-2.99,2.25
			c-0.84,0.94-1.51,2.02-2.03,3.25c-0.52,1.23-0.87,2.48-1.07,3.76c-0.29,1.72-0.58,3.22-0.85,4.5c-0.27,1.28-0.69,2.42-1.25,3.43
			c-0.57,1.01-1.34,1.92-2.32,2.73c-0.98,0.81-2.34,1.64-4.06,2.47c-1.97,0.94-3.76,1.88-5.39,2.84c-1.62,0.96-3,2.07-4.13,3.32
			c-1.13,1.25-2.02,2.74-2.66,4.46c-0.64,1.72-0.96,3.81-0.96,6.27c0,1.97,0.41,3.7,1.22,5.2c0.81,1.5,1.88,2.77,3.21,3.8
			c1.33,1.03,2.84,1.81,4.54,2.32c1.7,0.52,3.46,0.78,5.28,0.78c1.92,0,3.74-0.28,5.46-0.85c1.72-0.56,3.25-1.4,4.57-2.51
			c1.33-1.11,2.39-2.47,3.17-4.09c0.79-1.62,1.18-3.47,1.18-5.53s-0.53-3.69-1.59-4.87c-1.06-1.18-2.62-1.77-4.69-1.77
			c-1.82,0-3.46,0.47-4.91,1.4c-1.45,0.93-2.77,2.04-3.95,3.32l-0.52-0.37c1.77-1.82,3.63-3.22,5.57-4.21
			c1.94-0.98,4.22-1.48,6.82-1.48c1.33,0,2.56,0.18,3.69,0.55c1.13,0.37,2.13,0.91,2.99,1.62c0.86,0.71,1.54,1.6,2.03,2.66
			c0.49,1.06,0.74,2.25,0.74,3.58c0,2.56-0.89,4.72-2.66,6.49c-1.77,1.77-3.95,3.21-6.53,4.32c-2.58,1.11-5.3,1.89-8.15,2.36
			c-2.85,0.47-5.36,0.7-7.53,0.7c-2.02,0-4.07-0.21-6.16-0.63c-2.09-0.42-3.97-1.12-5.64-2.1c-1.67-0.98-3.04-2.29-4.09-3.91
			C0.53,151.66,0,149.62,0,147.16c0-2.41,0.49-4.41,1.48-6.01s2.22-2.96,3.73-4.09c1.5-1.13,3.12-2.12,4.87-2.95
			c1.74-0.84,3.38-1.7,4.91-2.58c1.52-0.89,2.8-1.87,3.84-2.95c1.03-1.08,1.6-2.44,1.7-4.06c0.2-3.54,0.82-6.53,1.88-8.97
			c1.06-2.43,2.45-4.39,4.17-5.87c1.72-1.48,3.71-2.54,5.98-3.21c2.26-0.66,4.65-1,7.16-1c1.33,0,2.7,0.12,4.13,0.37
			c1.43,0.25,2.72,0.69,3.87,1.33c1.15,0.64,2.1,1.5,2.84,2.58s1.11,2.43,1.11,4.06c0,1.77-0.41,3.31-1.22,4.61s-1.86,2.4-3.14,3.28
			c-1.28,0.88-2.71,1.55-4.28,1.99c-1.57,0.44-3.15,0.66-4.72,0.66c-0.94,0-1.86-0.06-2.77-0.18c-0.91-0.12-1.81-0.33-2.69-0.63
			L32.91,122.89z"/>
		<path class="st1" d="M56.74,106.07h7.01v46.77h27.89v5.9h-34.9V106.07z"/>
		<path class="st1" d="M102.48,106.07h7.01v52.68h-7.01V106.07z"/>
		<path class="st1" d="M156.2,121.49c-0.81-7.53-5.83-10.77-13.06-10.77c-5.9,0-11.8,2.14-11.8,9c0,6.49,8.41,7.45,16.89,9.37
			c8.41,1.92,16.82,4.87,16.82,15.2c0,11.22-10.99,15.72-20.58,15.72c-11.81,0-21.76-5.75-21.76-18.59h6.64
			c0,8.85,7.38,12.69,15.35,12.69c6.35,0,13.35-1.99,13.35-9.59c0-7.23-8.41-8.48-16.82-10.33c-8.41-1.84-16.9-4.28-16.9-13.94
			c0-10.7,9.52-15.42,19.11-15.42c10.77,0,18.96,5.09,19.4,16.67H156.2z"/>
		<path class="st1" d="M192.27,106.07h7.75l20.58,52.68h-7.75l-5.75-15.86h-22.28l-5.9,15.86h-7.23L192.27,106.07z M187.04,136.98
			h17.85l-8.78-24.57h-0.15L187.04,136.98z"/>
		<path class="st1" d="M269.45,106.07h7.75l20.58,52.68h-7.75l-5.75-15.86H262l-5.9,15.86h-7.23L269.45,106.07z M264.21,136.98
			h17.85l-8.78-24.57h-0.15L264.21,136.98z"/>
		<path class="st1" d="M334.16,119.2c0.05,0.49,0.1,1.01,0.15,1.55c0.05,0.54,0.07,1.08,0.07,1.62c0,2.51-0.39,4.94-1.18,7.31
			c-0.79,2.36-1.93,4.46-3.43,6.31c-1.5,1.84-3.33,3.32-5.5,4.43c-2.16,1.11-4.6,1.66-7.3,1.66c-1.67,0-3.23-0.25-4.69-0.74
			c-1.45-0.49-2.73-1.22-3.84-2.18c-1.11-0.96-1.98-2.13-2.62-3.5c-0.64-1.38-0.96-2.93-0.96-4.65c0-2.8,0.63-5.41,1.88-7.82
			c1.25-2.41,2.93-4.61,5.02-6.6c2.09-1.99,4.49-3.75,7.19-5.28c2.7-1.52,5.5-2.8,8.37-3.84c2.88-1.03,5.77-1.82,8.67-2.36
			c2.9-0.54,5.56-0.81,7.97-0.81c1.72,0,3.34,0.02,4.87,0.07c1.52,0.05,3.03,0.17,4.5,0.37c1.48,0.2,2.95,0.48,4.43,0.85
			s3.05,0.85,4.72,1.44c1.62-0.59,3.25-1.09,4.87-1.51c1.62-0.42,3.15-0.63,4.57-0.63v0.59c-1.33,0.2-2.64,0.48-3.95,0.85
			c-1.3,0.37-2.54,0.87-3.73,1.51c1.82,1.08,3.38,2.48,4.69,4.21c1.3,1.72,1.96,3.69,1.96,5.9c0,2.46-0.59,4.55-1.77,6.27
			c-1.18,1.72-2.69,3.12-4.54,4.21c-1.84,1.08-3.87,1.88-6.09,2.4s-4.35,0.82-6.42,0.92v0.15c1.48,0.64,2.79,1.57,3.95,2.8
			c1.15,1.23,1.73,2.78,1.73,4.65c0,1.53-0.23,3.05-0.7,4.57c-0.47,1.53-0.97,3.01-1.51,4.46c-0.54,1.45-1.05,2.84-1.51,4.17
			c-0.47,1.33-0.7,2.58-0.7,3.76c0,1.53,0.56,2.29,1.7,2.29c1.43,0,3.12-0.61,5.09-1.84c1.97-1.23,4.06-2.95,6.27-5.16
			c1.08-1.08,2.13-2.21,3.14-3.39c1.01-1.18,1.97-2.32,2.88-3.43c0.91-1.11,1.72-2.15,2.44-3.14c0.71-0.98,1.32-1.8,1.81-2.44
			l0.59,0.52c-1.23,1.72-2.68,3.64-4.35,5.75c-1.67,2.12-3.44,4.16-5.31,6.12c-2.46,2.51-4.87,4.53-7.23,6.05
			c-2.36,1.52-4.85,2.29-7.45,2.29c-1.87,0-3.35-0.52-4.43-1.55c-1.08-1.03-1.62-2.41-1.62-4.13c0-1.57,0.31-3.22,0.92-4.94
			c0.61-1.72,1.29-3.42,2.03-5.09c0.74-1.67,1.41-3.22,2.03-4.65c0.61-1.43,0.92-2.58,0.92-3.47c0-0.93-0.12-1.66-0.37-2.18
			c-0.25-0.52-0.6-0.92-1.07-1.22c-0.47-0.29-1.02-0.5-1.66-0.63c-0.64-0.12-1.35-0.23-2.14-0.33l0.15-0.59
			c0.74,0.05,1.48,0.05,2.21,0s1.65-0.15,2.73-0.3c2.07-0.29,3.85-1,5.35-2.1c1.5-1.11,2.73-2.36,3.69-3.76
			c0.96-1.4,1.66-2.85,2.1-4.35c0.44-1.5,0.66-2.79,0.66-3.87c0-1.57-0.22-2.9-0.66-3.99c-0.44-1.08-1.23-2.16-2.36-3.25
			c-3.2,2.31-5.98,5.15-8.34,8.52c-2.36,3.37-4.59,6.91-6.68,10.62c-2.09,3.72-4.18,7.4-6.27,11.07c-2.09,3.67-4.49,6.96-7.19,9.89
			c-2.71,2.93-5.84,5.3-9.41,7.12c-3.57,1.82-7.88,2.73-12.95,2.73c-1.38,0-2.83-0.17-4.35-0.52c-1.52-0.34-2.91-0.9-4.17-1.66
			c-1.25-0.76-2.29-1.75-3.1-2.95c-0.81-1.2-1.22-2.64-1.22-4.32c0-1.38,0.38-2.59,1.14-3.65c0.76-1.06,1.73-1.59,2.91-1.59
			c0.98,0,1.87,0.29,2.66,0.88c0.79,0.59,1.18,1.4,1.18,2.44c0,0.98-0.25,1.76-0.74,2.32c-0.49,0.57-1.21,0.9-2.14,1
			c0,2.61,0.7,4.45,2.1,5.53c1.4,1.08,3.31,1.62,5.72,1.62c2.75,0,5.21-0.59,7.38-1.77c2.16-1.18,4.18-2.77,6.05-4.76
			c1.87-1.99,3.62-4.29,5.24-6.9c1.62-2.61,3.25-5.34,4.87-8.19c1.62-2.85,3.29-5.73,5.02-8.63c1.72-2.9,3.59-5.66,5.61-8.26
			c2.02-2.61,4.24-4.96,6.68-7.05c2.44-2.09,5.18-3.75,8.23-4.98c-1.23-0.64-2.55-1.16-3.95-1.55c-1.4-0.39-2.78-0.69-4.13-0.89
			c-1.35-0.2-2.63-0.32-3.84-0.37c-1.21-0.05-2.25-0.07-3.14-0.07c-3.84,0-7.77,0.64-11.81,1.92c-4.03,1.28-7.7,3.09-10.99,5.42
			c-3.3,2.34-6,5.14-8.12,8.41c-2.12,3.27-3.17,6.9-3.17,10.88c0,2.66,0.76,4.81,2.29,6.46c1.52,1.65,3.64,2.47,6.34,2.47
			c2.11,0,4.05-0.56,5.79-1.7c1.75-1.13,3.26-2.57,4.54-4.32c1.28-1.74,2.27-3.66,2.99-5.75c0.71-2.09,1.07-4.12,1.07-6.09
			c0-0.44-0.01-0.98-0.04-1.62c-0.02-0.64-0.06-1.3-0.11-1.99L334.16,119.2z"/>
		<path class="st1" d="M390.67,111.97h-17.56v-5.9h42.13v5.9h-17.56v46.77h-7.01V111.97z"/>
		<path class="st1" d="M425.5,106.07h36.37v5.9h-29.36v16.75h27.37v5.9h-27.37v18.22h29.58v5.9H425.5V106.07z"/>
		<path class="st1" d="M489.32,106.07h7.75l20.58,52.68h-7.75l-5.75-15.86h-22.28l-5.9,15.86h-7.23L489.32,106.07z M484.08,136.98
			h17.85l-8.78-24.57h-0.15L484.08,136.98z"/>
		<path class="st1" d="M566.64,152.18c-4.06,5.53-10.7,7.82-16.9,7.82c-15.72,0-25.09-12.84-25.09-26.56
			c0-15.35,8.41-28.63,25.09-28.63c11.51,0,20.66,5.16,22.65,17.49h-7.01c-1.4-7.97-7.82-11.58-15.64-11.58
			c-12.76,0-18.08,11.07-18.08,22.35c0,10.99,6.34,21.03,18.08,21.03c10.85,0,17.34-7.6,16.9-17.19h-16.82V131h23.09v27.74h-4.43
			L566.64,152.18z"/>
		<path class="st1" d="M658.43,104.96c-3.74,4.23-7.32,8.55-10.73,12.95c-3.42,4.4-6.42,8.74-9,13.02c-2.58,4.28-4.65,8.4-6.2,12.36
			c-1.55,3.96-2.32,7.64-2.32,11.03c0,1.28,0.22,2.19,0.66,2.73c0.44,0.54,1.03,0.81,1.77,0.81c1.43,0,3.3-0.79,5.61-2.36
			c2.31-1.57,4.7-3.62,7.16-6.12c0.79-0.84,1.61-1.73,2.47-2.69c0.86-0.96,1.7-1.92,2.51-2.88c0.81-0.96,1.55-1.86,2.21-2.69
			c0.66-0.84,1.22-1.52,1.66-2.07l0.59,0.37c-1.13,1.48-2.42,3.14-3.87,4.98c-1.45,1.84-3.36,3.95-5.72,6.31
			c-2.51,2.51-5.01,4.6-7.49,6.27c-2.48,1.67-4.98,2.51-7.49,2.51c-1.23,0-2.25-0.2-3.06-0.59c-0.81-0.39-1.45-0.92-1.92-1.59
			c-0.47-0.66-0.8-1.41-1-2.25c-0.2-0.84-0.29-1.72-0.29-2.66c0-3,0.49-5.89,1.48-8.67c0.98-2.78,2.14-5.42,3.47-7.93h-10.33
			c-2.02,2.36-4.27,4.89-6.75,7.6c-2.48,2.71-5.15,5.2-8.01,7.49c-2.85,2.29-5.85,4.19-9,5.72c-3.15,1.52-6.42,2.29-9.81,2.29
			c-1.48,0-2.89-0.17-4.24-0.52c-1.35-0.34-2.57-0.87-3.65-1.59c-1.08-0.71-1.94-1.61-2.58-2.69c-0.64-1.08-0.96-2.38-0.96-3.91
			c0-1.43,0.39-2.73,1.18-3.91c0.79-1.18,1.97-1.77,3.54-1.77c0.98,0,1.82,0.31,2.51,0.92c0.69,0.62,1.03,1.37,1.03,2.25
			c0,1.33-0.39,2.29-1.18,2.88c-0.79,0.59-1.82,0.89-3.1,0.89c0,1.03,0.25,1.97,0.74,2.8c0.49,0.84,1.11,1.53,1.84,2.07
			c0.74,0.54,1.57,0.96,2.51,1.25c0.93,0.29,1.84,0.44,2.73,0.44c2.21,0,4.39-0.38,6.53-1.14c2.14-0.76,4.24-1.78,6.31-3.06
			c2.07-1.28,4.06-2.75,5.98-4.43c1.92-1.67,3.76-3.39,5.53-5.16c1.77-1.77,3.44-3.55,5.02-5.35c1.57-1.8,3.03-3.43,4.35-4.91
			c2.7-3.05,5.52-6.06,8.45-9.04c2.93-2.98,5.99-5.78,9.19-8.41c3.2-2.63,6.55-4.99,10.07-7.08c3.52-2.09,7.22-3.73,11.1-4.91
			L658.43,104.96z M629.36,134.91c2.75-4.87,5.88-9.49,9.37-13.87c3.49-4.38,7.3-8.48,11.44-12.32l-0.15-0.15
			c-5.8,3.05-11.15,6.84-16.05,11.36c-4.89,4.53-9.75,9.52-14.57,14.98H629.36z"/>
	</g>
</g>
</svg>
