<?xml version="1.0" encoding="utf-8"?>
<!-- Generator: Adobe Illustrator 24.0.0, SVG Export Plug-In . SVG Version: 6.00 Build 0)  -->
<svg version="1.1" id="Capa_1" xmlns="http://www.w3.org/2000/svg" xmlns:xlink="http://www.w3.org/1999/xlink" x="0px" y="0px"
	 viewBox="0 0 403 131" style="enable-background:new 0 0 403 131;" xml:space="preserve">
<style type="text/css">
	.st0{fill:#FF857B;}
	.st1{fill:#333333;}
</style>
<g>
	<g>
		<path class="st0" d="M11.26,73.76c-3.35,0-5.65,0.43-6.9,1.28c-0.5,0.4-0.99,1-1.46,1.8c-0.48,0.8-0.86,1.8-1.16,3
			c-0.25,0.85-0.41,1.76-0.49,2.74c-0.07,0.98-0.16,1.99-0.26,3.04l-0.23,2.4H0l0.45-15.53h41.27l0.45,15.53h-0.83
			c0-3.3-0.22-5.87-0.68-7.69s-1.25-3.21-2.4-4.17c-0.55-0.5-1.15-0.91-1.8-1.24c-0.65-0.32-1.41-0.57-2.29-0.75
			c-0.88-0.17-1.91-0.29-3.11-0.34c-1.2-0.05-2.63-0.07-4.28-0.07h-0.38v49.45h3.45v1.13H13.28v-1.13h2.93V73.76H11.26z"/>
		<path class="st0" d="M74.14,108.66v15.68H39.4v-1.13h3.53V73.76H39.4v-1.28h17.41v1.28h-4.28v49.45h6.9c1.45,0,2.8-0.02,4.05-0.07
			c1.25-0.05,2.35-0.13,3.3-0.22c2.2-0.25,3.85-2.08,4.95-5.48c0.4-1.6,0.72-3.14,0.98-4.62c0.25-1.48,0.38-2.86,0.38-4.16H74.14z"
			/>
		<path class="st0" d="M115.72,124.34H98.68v-1.13h3.45v-0.45l-5.63-15.01v-0.3H80v0.3l-5.25,15.01v0.45h3.9v1.13h-8.33v-1.2
			l2.4,0.07h0.38v-0.3l18.16-50.43h2.7l19.06,50.43v0.3h2.7V124.34z M95.76,105.65l-7.2-19.89H87.8c-1.2,3.3-2.4,6.62-3.6,9.94
			c-1.2,3.33-2.33,6.64-3.38,9.94v0.52h14.93V105.65z"/>
		<path class="st0" d="M144.38,108.66v15.68h-34.75v-1.13h3.53V73.76h-3.53v-1.28h17.41v1.28h-4.28v49.45h6.9
			c1.45,0,2.8-0.02,4.05-0.07c1.25-0.05,2.35-0.13,3.3-0.22c2.2-0.25,3.85-2.08,4.95-5.48c0.4-1.6,0.72-3.14,0.98-4.62
			c0.25-1.48,0.38-2.86,0.38-4.16H144.38z"/>
		<path class="st0" d="M145.96,76.99c1.9-1.6,3.91-2.74,6.04-3.41c2.13-0.68,4.32-1.01,6.57-1.01c2.1,0,4.19,0.26,6.27,0.79
			c2.08,0.52,4.09,1.26,6.04,2.21c1.95,0.95,3.79,2.09,5.52,3.42c1.73,1.33,3.26,2.81,4.62,4.46c2.05,2.7,3.63,5.65,4.73,8.86
			c1.1,3.2,1.65,6.55,1.65,10.06c0,3.35-0.6,6.53-1.8,9.53c-1.2,3-3.15,5.68-5.85,8.03c-1.85,1.5-3.9,2.59-6.15,3.26
			c-2.25,0.68-4.58,1.01-6.98,1.01c-4.25,0-8.38-1-12.38-3c-1.9-0.95-3.69-2.14-5.37-3.56c-1.68-1.43-3.16-3.01-4.47-4.77
			c-1.9-2.35-3.38-5.1-4.43-8.25c-1.05-3.15-1.58-6.43-1.58-9.83c0-3.5,0.6-6.82,1.8-9.94C141.38,81.7,143.31,79.09,145.96,76.99z
			 M146.63,77.89c-1.4,1.2-2.41,2.49-3.04,3.86c-0.63,1.38-0.94,2.86-0.94,4.47c0,1.75,0.32,3.59,0.98,5.52
			c0.65,1.93,1.45,3.82,2.4,5.67c0.95,1.85,1.99,3.6,3.11,5.25c1.13,1.65,2.19,3.08,3.19,4.28c1.05,1.4,2.33,2.93,3.83,4.58
			c1.5,1.65,3.13,3.19,4.88,4.62c1.75,1.43,3.59,2.61,5.52,3.56c1.93,0.95,3.84,1.43,5.74,1.43c1.15,0,2.28-0.21,3.38-0.64
			c1.1-0.43,2.2-1.04,3.3-1.84c2.5-2.1,3.75-4.75,3.75-7.95c0-2.2-0.5-4.38-1.5-6.53c-0.95-2.35-2.14-4.62-3.56-6.79
			c-1.43-2.18-2.81-4.11-4.17-5.82l-0.98-1.65l-1.73-1.88c-1.3-1.4-2.77-2.91-4.39-4.54c-1.63-1.62-3.41-3.09-5.37-4.39
			c-1.4-1-2.83-1.8-4.28-2.4c-1.45-0.6-2.95-0.9-4.5-0.9C150.36,75.79,148.49,76.49,146.63,77.89z"/>
		<path class="st0" d="M233.99,129.67c-1.85,0.65-3.5,0.94-4.95,0.86c-1.45-0.07-2.75-0.45-3.9-1.13c-1.15-0.67-2.15-1.59-3-2.74
			c-0.85-1.15-1.58-2.5-2.18-4.05c-1.35,0.45-2.65,0.8-3.9,1.05c-1.25,0.25-2.53,0.4-3.83,0.45c-2.25,0.1-4.53-0.19-6.83-0.86
			c-2.3-0.68-4.5-1.62-6.6-2.85c-2.1-1.23-4.06-2.68-5.89-4.35c-1.83-1.67-3.41-3.46-4.77-5.37c-1.35-1.9-2.46-4.04-3.34-6.42
			c-0.88-2.37-1.39-4.74-1.54-7.09c-0.15-2.1-0.05-4.19,0.3-6.27c0.35-2.08,0.9-4.05,1.65-5.93c0.75-1.88,1.73-3.59,2.93-5.14
			c1.2-1.55,2.6-2.85,4.2-3.9c3.2-2.05,6.6-3.15,10.21-3.3c2.3-0.05,4.59,0.22,6.87,0.82c2.28,0.6,4.47,1.46,6.57,2.59
			c2.1,1.13,4.09,2.5,5.97,4.13c1.88,1.63,3.54,3.41,4.99,5.37c1.5,2.25,2.66,4.59,3.49,7.02c0.83,2.43,1.31,4.92,1.46,7.47
			c0.05,0.35,0.08,0.73,0.08,1.13s0,0.78,0,1.13c0,3.15-0.58,6.18-1.73,9.08c-1.15,2.9-2.88,5.53-5.18,7.88
			c0.25,0.55,0.46,1.38,0.64,2.48c0.17,1.1,0.53,2.18,1.05,3.23c0.53,1.05,1.3,1.9,2.33,2.55c1.03,0.65,2.51,0.83,4.47,0.53
			L233.99,129.67z M193.01,76.84c-1.85,1.25-3.11,2.75-3.79,4.5c-0.68,1.75-0.94,3.58-0.79,5.48c0.1,1.45,0.41,2.98,0.94,4.58
			c0.53,1.6,1.16,3.18,1.91,4.73c0.75,1.55,1.54,3.05,2.36,4.5c0.83,1.45,1.61,2.78,2.36,3.98c1.1,1.6,2.21,3.16,3.34,4.69
			c1.13,1.53,2.34,3.02,3.64,4.47c0.35-1.1,0.72-2.06,1.13-2.89c0.4-0.83,0.86-1.54,1.39-2.14c0.53-0.6,1.16-1.09,1.91-1.46
			c0.75-0.38,1.65-0.66,2.7-0.86c3.4-0.35,6.22,0.45,8.44,2.4c2.23,1.95,4.19,4.88,5.89,8.78c1.45-2.7,2.06-5.6,1.84-8.7
			c-0.23-3.1-1.01-6.17-2.36-9.19c-1.35-3.03-3.11-5.95-5.29-8.78c-2.18-2.83-4.49-5.35-6.94-7.58c-2.45-2.23-4.92-4.05-7.39-5.48
			c-2.48-1.43-4.67-2.26-6.57-2.51C196.04,75.34,194.46,75.84,193.01,76.84z M203.97,114.81c0.85,0.95,1.95,1.93,3.3,2.93
			c1.35,1,2.63,1.8,3.83,2.4c1.1,0.5,2.35,0.9,3.75,1.2c1.4,0.3,2.73,0.18,3.98-0.38h0.22c-0.75-2.05-1.56-3.83-2.44-5.33
			c-0.88-1.5-1.74-2.74-2.59-3.72c-0.85-0.98-1.66-1.7-2.44-2.18c-0.78-0.47-1.46-0.71-2.06-0.71c-0.95-0.05-1.74,0.09-2.36,0.41
			c-0.63,0.33-1.14,0.75-1.54,1.28c-0.4,0.52-0.71,1.1-0.94,1.73c-0.23,0.63-0.41,1.19-0.56,1.69c-0.15,0.1-0.23,0.25-0.23,0.45
			L203.97,114.81z"/>
		<path class="st0" d="M276.01,72.48v1.35h-3.68v13.73c0,2.25,0.01,4.47,0.04,6.64c0.02,2.18,0.04,4.39,0.04,6.64
			c0,1.4-0.04,2.99-0.11,4.77c-0.08,1.78-0.31,3.58-0.71,5.4c-0.4,1.83-1,3.6-1.8,5.33c-0.8,1.73-1.9,3.26-3.3,4.61
			c-1.4,1.35-3.18,2.44-5.33,3.27c-2.15,0.82-4.75,1.24-7.8,1.24c-3.25,0-6.22-0.33-8.89-0.98c-2.68-0.65-4.97-1.75-6.87-3.3
			c-1.9-1.55-3.4-3.64-4.5-6.27c-1.1-2.63-1.7-5.92-1.8-9.87V73.83h-3.45v-1.35h17.94v1.35h-3.53v30.99c0,2.4,0.19,4.72,0.56,6.94
			c0.38,2.23,1.04,4.2,1.99,5.93c0.95,1.73,2.26,3.11,3.94,4.16c1.68,1.05,3.84,1.58,6.49,1.58c3.05,0,5.62-0.62,7.69-1.88
			c2.08-1.25,3.71-2.94,4.92-5.07c1.2-2.13,2.04-4.58,2.51-7.35c0.47-2.78,0.66-5.67,0.56-8.67l0.23-26.27v-0.38h-3.23v-1.35H276.01
			z"/>
		<path class="st0" d="M270.83,72.48h15.61v1.28h-3.3v49.45h3.3v1.13h-15.61v-1.13h3.08V73.76h-3.08V72.48z"/>
		<path class="st0" d="M322.46,124.34l-32.42-45.7h-0.68v44.58h3.6v1.13h-8.4v-1.13h3.38V73.76h-3.38v-1.28h13.73l25.89,36.85h0.68
			v-35.5h-3.38v-1.35h8.63v1.35h-3.53v50.5H322.46z"/>
		<path class="st0" d="M349.7,122.99c6.55,0,10.58-0.6,12.08-1.8c1.65-1.2,2.78-2.68,3.38-4.43c0.75-1.95,1.13-4.5,1.13-7.65h1.43
			v15.23h-39.47v-1.13h3.15V73.76h-3.15v-1.28h38.12l1.2,12.76h-0.83c-0.6-7.3-3.05-11.03-7.35-11.18c-3.85-0.15-7.1-0.22-9.76-0.22
			h-7.95V97.1h3c2,0,3.74-0.06,5.22-0.19c1.48-0.12,2.71-0.47,3.71-1.05c1-0.57,1.75-1.47,2.25-2.7c0.5-1.23,0.75-2.94,0.75-5.14
			h0.83v19.66h-0.83c0-2-0.21-3.59-0.64-4.77c-0.43-1.17-1.03-2.06-1.8-2.66c-0.78-0.6-1.71-0.99-2.81-1.16
			c-1.1-0.18-2.33-0.26-3.68-0.26h-6v24.16H349.7z"/>
		<path class="st0" d="M402.98,108.81c0.1,2.45-0.28,4.67-1.13,6.64c-0.85,1.98-2.04,3.67-3.56,5.07c-1.53,1.4-3.37,2.48-5.52,3.23
			c-2.15,0.75-4.5,1.13-7.05,1.13c-1.95,0-3.73-0.19-5.33-0.56c-1.6-0.38-3.1-0.87-4.5-1.5c-1.4-0.63-2.7-1.33-3.9-2.1
			c-1.2-0.78-2.38-1.56-3.53-2.36h-0.6v6h-1.58l0.07-19.06h1.28c0.15,2.55,0.61,4.92,1.39,7.09c0.78,2.18,1.9,4.05,3.38,5.63
			c1.48,1.58,3.33,2.8,5.55,3.68c2.23,0.88,4.89,1.31,7.99,1.31c1.65,0,3.16-0.17,4.54-0.53c1.38-0.35,2.58-0.86,3.6-1.54
			c1.02-0.68,1.83-1.46,2.4-2.36c0.57-0.9,0.86-1.93,0.86-3.08c0-0.8-0.15-1.55-0.45-2.25c-0.2-0.6-0.63-1.19-1.28-1.76
			c-0.65-0.57-1.46-1.11-2.44-1.61c-0.98-0.5-2.06-0.99-3.26-1.46c-1.2-0.47-2.45-0.94-3.75-1.39l-1.88-0.83
			c-2.1-0.8-4.24-1.7-6.42-2.7c-2.18-1-4.13-2.23-5.85-3.68c-1.73-1.45-3.14-3.18-4.24-5.18c-1.1-2-1.65-4.43-1.65-7.28
			c0-2.35,0.44-4.49,1.31-6.42c0.87-1.92,2.08-3.58,3.6-4.95c1.53-1.37,3.31-2.45,5.37-3.23c2.05-0.77,4.28-1.21,6.68-1.31
			c2.35-0.05,4.73,0.38,7.13,1.28c2.4,0.9,5.1,2.58,8.1,5.03h0.6v-3.45h1.35v13.88h-1.35c-0.45-2.25-1.05-4.3-1.8-6.15
			s-1.75-3.45-3-4.8c-1.25-1.35-2.8-2.39-4.65-3.11c-1.85-0.72-4.08-1.09-6.68-1.09c-1.7,0-3.3,0.21-4.8,0.64
			c-1.5,0.43-2.81,1.04-3.94,1.84c-1.13,0.8-2.01,1.79-2.66,2.96c-0.65,1.18-1,2.54-1.05,4.09c0.3,1.15,0.83,2.18,1.58,3.08
			c0.75,0.9,1.69,1.71,2.81,2.44c1.13,0.73,2.38,1.38,3.75,1.95c1.38,0.58,2.84,1.14,4.39,1.69l1.13,0.45
			c1.85,0.7,3.83,1.53,5.93,2.48c2.1,0.95,4.08,2.09,5.93,3.41c1.85,1.33,3.43,2.88,4.73,4.65
			C401.88,104.47,402.68,106.5,402.98,108.81z"/>
	</g>
	<g>
		<path class="st1" d="M224.49,14.67l-0.21,2.88c0,0.55-0.14,1.1-0.14,1.65l-0.21,2.33c-0.14,1.03-0.14,2.06-0.27,3.09
			c-0.07,0.68-0.21,1.37-0.41,2.06c-0.21,0.82-0.41,1.58-0.82,2.33c-0.48,1.1-1.17,2.06-2.06,2.81c-0.21,0.14-0.34,0.34-0.48,0.48
			c-0.82,0.96-1.85,1.65-3.02,2.26c-0.89,0.55-1.85,0.82-2.81,1.17c-0.55,0.14-1.17,0.21-1.78,0.27c-1.03,0.14-2.06,0.14-3.09,0.07
			c-0.21,0-0.41,0.07-0.69,0.07c0,0.21,0,0.41-0.07,0.62c0,0.62-0.07,1.23,0,1.85c0.07,0.41,0.07,0.82,0.07,1.24
			c0,1.1,0,2.19-0.07,3.29c0,0.21,0,0.34-0.07,0.48c0,0.62-0.07,1.23-0.07,1.85c-0.07,1.85-0.07,3.63-0.14,5.48
			c0,0.55,0.07,1.17,0.07,1.71c0,0.62,0,1.51-0.07,2.12c0,0.34-0.14,0.48-0.48,0.48h-3.36c-1.1,0-2.13-0.07-3.22,0h-2.26
			c-0.62,0-1.3,0-1.92,0h-1.71c-0.34,0-0.48-0.14-0.55-0.41c-0.07-0.14-0.07-0.34-0.07-0.48v-3.98v-3.15c0-0.27,0-0.48,0-0.75
			c-0.07-0.21-0.07-0.27-0.27-0.27c-0.41,0-0.89,0-1.3,0.07c-0.48,0.07-1.03,0-1.51-0.07c-0.75-0.07-1.44-0.21-2.19-0.27
			c-0.75-0.07-1.51-0.27-2.26-0.55c-0.41-0.07-0.82-0.21-1.17-0.34c-0.41-0.14-0.82-0.34-1.17-0.55c-0.69-0.41-1.37-0.89-1.99-1.44
			c-0.62-0.62-1.1-1.3-1.58-1.99c-0.27-0.41-0.48-0.82-0.62-1.3c-0.14-0.41-0.41-0.76-0.48-1.24c-0.14-0.96-0.27-1.85-0.34-2.81
			c-0.07-0.96-0.07-1.99-0.14-2.95c0-0.62,0.07-1.23,0.14-1.85c0-0.21,0.14-0.41,0.21-0.62c0-0.14,0.07-0.27,0.07-0.41
			c0.14-0.55,0.48-1.1,0.69-1.65l0.07-0.07c0.34-0.27,0.69-0.55,1.03-0.82c0.21-0.14,0.48-0.21,0.82-0.21c0.27,0.07,0.55,0,0.89,0
			c0.82,0,1.51,0.34,2.13,0.89l0.14,0.14c0.41,0.34,0.75,0.82,0.89,1.37c0.21,0.55,0.34,1.17,0.41,1.78c0,0.82,0,1.65,0.07,2.47
			c0.07,0.96,0.07,1.99,0.48,2.95c0.07,0.27,0.27,0.62,0.48,0.82c0.34,0.41,0.75,0.76,1.1,1.1c0.21,0.21,0.48,0.27,0.69,0.41
			c0.62,0.27,1.3,0.34,1.92,0.48c0.55,0.14,1.17,0.07,1.71,0c0.34-0.07,0.62-0.07,0.89-0.14c0.27-0.07,0.27-0.07,0.27-0.34
			c0-0.82,0.07-1.65-0.07-2.47v-1.44c0-0.96,0-1.92,0-2.88c0-0.34,0.07-0.69,0.07-0.96c0-0.34-0.07-0.68-0.07-0.96v-1.23
			c0-0.21-0.07-0.21-0.21-0.21c-0.89,0.14-1.78,0.14-2.61-0.07c-0.75-0.21-1.51-0.48-2.13-0.96l-0.69-0.41
			c-0.55-0.34-1.03-0.89-1.51-1.37c-0.07-0.14-0.21-0.27-0.34-0.41c-0.34-0.41-0.55-0.82-0.82-1.37c-0.48-1.03-0.89-2.12-1.23-3.22
			c-0.14-0.48-0.34-0.96-0.48-1.37c-0.07-0.41-0.21-0.82-0.14-1.3c0.07-0.62-0.07-1.37,0.21-1.99c0.27-0.76,0.62-1.58,1.37-2.06
			c0.21-0.07,0.41-0.21,0.62-0.27c0.55-0.21,1.1-0.27,1.71-0.34c0.14,0,0.27,0,0.41,0.07c0.48,0.07,0.89,0.27,1.3,0.48
			c0.27,0.21,0.48,0.41,0.62,0.62c0.48,0.62,0.89,1.23,1.1,1.99c0.14,0.27,0.14,0.62,0.21,0.89c0.07,0.14,0.07,0.27,0.07,0.34
			c0.34,0.76,0.48,1.51,0.89,2.26c0.34,0.55,0.75,0.96,1.44,1.23c0.07,0,0.14,0,0.14-0.14v-0.48c0.07-0.41,0.07-0.75,0-1.1v-0.48
			c0-0.2-0.07-0.41-0.07-0.62v-2.47c0-0.14,0-0.27,0.07-0.34c0.14-0.27,0.14-0.62,0.14-0.96c0.07-0.82,0.34-1.58,0.75-2.26
			c0.27-0.48,0.62-0.96,1.03-1.37c0.21-0.34,0.21-0.34,0-0.76c-0.27-0.48-0.55-1.03-0.89-1.51c-0.62-1.24-1.03-2.54-1.17-3.91
			c-0.07-0.41,0.07-0.75,0.21-1.1c0.14-0.27,0.34-0.34,0.62-0.34c0.34,0.14,0.75,0.21,1.1,0.34c0.34,0.07,0.62,0.21,0.89,0.34
			c0.41,0.14,0.75,0.34,1.1,0.55c0.07,0.07,0.07,0.14,0.14,0.14c0.14,0.07,0.27,0.07,0.27-0.07c0.14-0.34,0.27-0.62,0.34-0.96
			c0.21-0.41,0.34-0.82,0.55-1.23l0.62-1.3c0.21-0.34,0.48-0.69,0.69-0.96c0.27-0.27,0.34-0.27,0.69-0.14
			c0.41,0.21,0.69,0.41,0.89,0.82c0.07,0,0.07,0.07,0.14,0.07c0.41,0.41,0.62,0.89,0.89,1.37c0.14,0.27,0.34,0.48,0.41,0.68
			c0.21,0.27,0.34,0.62,0.48,0.96c0.07,0.14,0.14,0.14,0.21,0.07l1.23-0.89c0.48-0.21,0.96-0.48,1.44-0.62
			c0.55-0.14,0.82,0.07,0.89,0.68c0.07,0.82,0,1.65-0.14,2.47c-0.21,0.96-0.41,1.85-0.75,2.74c-0.14,0.21-0.27,0.48-0.34,0.68
			l-0.62,1.17c-0.07,0.14-0.07,0.21,0,0.34l0.34,0.41c0.62,0.68,0.96,1.51,1.3,2.33c0.14,0.48,0.34,0.96,0.41,1.44v0.34
			c0.07,1.03,0.14,2.06,0.14,3.09c0,1.17-0.07,2.33-0.07,3.5c0,0.55,0,1.1,0.07,1.64c0,1.17-0.07,2.4-0.07,3.63
			c0,0.55,0,0.62,0.55,0.41c0.48-0.14,0.96-0.34,1.37-0.55c0.75-0.34,1.37-0.75,1.92-1.37c0.55-0.75,1.03-1.51,1.23-2.47
			c0.14-0.76,0.21-1.51,0.14-2.26v-2.88c0-1.3,0.07-2.54,0.07-3.84c0.07-0.14,0-0.34,0-0.55c0-0.48,0.07-0.89,0.07-1.37v-0.34
			c-0.14-0.89-0.07-1.78-0.07-2.74c0.07-0.75,0.14-1.51,0.34-2.26c0.14-0.34,0.34-0.76,0.62-1.03c0.34-0.41,0.69-0.89,1.17-1.24
			c0.82-0.75,1.78-1.3,3.02-1.3c0.07,0,0.14,0.07,0.21,0c0.82-0.21,1.58,0.07,2.4,0.21c0.27,0.07,0.48,0.21,0.69,0.41
			c0.21,0.21,0.41,0.41,0.69,0.55c0.27,0.27,0.48,0.62,0.62,0.96l0.21,0.48c0.41,0.69,0.62,1.44,0.75,2.19
			c0.14,0.55,0.14,1.1,0.14,1.65C224.7,11.65,224.56,13.16,224.49,14.67z M194.6,43.53c0-0.14-0.07-0.14-0.21-0.14h-1.17
			c-0.82,0-1.58-0.14-2.33-0.27c-0.69-0.07-1.3-0.34-1.92-0.55c-0.62-0.21-1.23-0.41-1.85-0.69c-0.41-0.27-0.82-0.48-1.23-0.82
			c-0.89-0.96-1.65-1.92-2.06-3.15c-0.27-0.69-0.48-1.37-0.62-2.13c-0.07-0.82-0.27-1.65-0.27-2.47v-0.69
			c0-0.41-0.07-0.89-0.07-1.37c0-0.41,0-0.82,0.07-1.3c0-0.55,0-1.17,0.07-1.71c0.07-0.41,0-0.48-0.48-0.41l-0.55,0.21
			c-0.14,0.07-0.27,0.2-0.41,0.27c-0.21,0.21-0.34,0.34-0.48,0.62c-0.21,0.41-0.34,0.89-0.48,1.37c-0.27,0.69-0.34,1.37-0.34,2.13
			c0,0.75,0,1.51,0.07,2.26l0.21,1.92c0,0.07,0,0.14,0,0.21c-0.07,0.2,0,0.41,0,0.62c0.07,0.21,0.14,0.48,0.14,0.76
			c0.21,0.75,0.48,1.44,0.82,2.19c0.14,0.21,0.34,0.48,0.48,0.76c0.34,0.48,0.69,1.03,1.23,1.37c0.27,0.21,0.55,0.41,0.82,0.68
			c0.55,0.55,1.17,0.82,1.85,1.1c0.62,0.27,1.23,0.48,1.92,0.62c0.55,0.14,1.17,0.34,1.78,0.34l1.3,0.21
			c0.75,0.14,1.58,0.21,2.33,0.07h1.1c0.14,0,0.27-0.07,0.27-0.14V43.53z M194.6,40.52c0.07-0.34,0-0.41-0.27-0.34
			c-0.41,0-0.82,0.07-1.23,0.14c-0.27,0.07-0.62,0.07-0.96,0l-1.1-0.21c-0.48-0.07-0.96-0.21-1.37-0.41
			c-0.62-0.27-1.03-0.62-1.51-1.03c-0.69-0.68-1.23-1.37-1.44-2.33c-0.07-0.27-0.14-0.48-0.14-0.76c-0.07-0.34-0.07-0.75-0.14-1.17
			c0-0.27,0-0.55-0.07-0.89c0-0.48,0.14-0.96,0-1.44c-0.07-0.14-0.07-0.27-0.07-0.34c0.07-0.68-0.07-1.3-0.27-1.92
			c-0.14-0.34-0.27-0.68-0.62-1.03c-0.41-0.48-0.89-0.68-1.44-0.89c-0.21,0-0.27,0-0.27,0.21c0,0.41-0.07,0.82-0.07,1.23l-0.07,3.09
			c0,1.37,0.14,2.81,0.55,4.11c0.14,0.48,0.27,0.96,0.48,1.37c0.41,0.96,1.03,1.85,1.78,2.54c0.14,0.21,0.34,0.41,0.55,0.55
			c0.62,0.34,1.23,0.62,1.85,0.82l0.62,0.21c0.21,0.07,0.41,0.21,0.62,0.21c0.69,0.07,1.23,0.34,1.92,0.27
			c0.75,0.21,1.58,0.21,2.33,0.21c0.27,0,0.34-0.07,0.34-0.34V40.52z M194.6,26.87v-0.96c0-0.21-0.07-0.27-0.27-0.34
			c-0.34-0.07-0.75-0.21-1.17-0.27c-0.62-0.07-1.17-0.34-1.65-0.68c-0.55-0.34-1.1-0.69-1.51-1.3c-0.14-0.27-0.41-0.55-0.55-0.82
			c-0.82-1.3-1.44-2.67-1.78-4.18l-0.21-1.23c-0.21-0.62-0.27-1.3-0.34-1.99c-0.07-0.07,0-0.2-0.07-0.2c0-0.07-0.14-0.14-0.14-0.14
			c-0.41,0.21-0.82,0.34-1.03,0.75c-0.55,0.82-0.75,1.71-0.75,2.67c0.07,0.62,0.07,1.24,0.34,1.78c0.07,0.07,0,0.07,0.07,0.14
			c0.14,0.69,0.41,1.44,0.69,2.06c0.21,0.41,0.27,0.75,0.41,1.1c0.07,0.21,0.14,0.41,0.27,0.62c0.27,0.55,0.48,1.03,0.89,1.51
			c0.48,0.62,0.96,1.24,1.65,1.65c0.75,0.48,1.58,0.89,2.4,1.17c0.07,0,0.14,0.07,0.21,0.07c0.62,0,1.17,0.07,1.78,0.07
			c0.21,0.07,0.34-0.07,0.55-0.14c0.14,0,0.21-0.14,0.21-0.34V26.87z M187.74,14.81c0.07,0.68,0.14,1.3,0.34,1.99
			c0,0.14,0.07,0.34,0.14,0.48c0.14,0.96,0.34,1.92,0.75,2.81l0.62,1.37c0.55,0.89,1.1,1.78,1.99,2.4c0.27,0.14,0.41,0.34,0.62,0.41
			c0.75,0.21,1.51,0.48,2.19,0.69c0.14,0,0.21,0,0.21-0.14v-1.03c0-0.21-0.07-0.48,0-0.76c0.07-0.41-0.14-0.62-0.55-0.82
			c-0.82-0.27-1.44-0.82-1.78-1.65c-0.34-0.69-0.55-1.44-0.82-2.13c-0.07-0.41-0.14-0.75-0.27-1.17c-0.14-0.48-0.41-0.96-0.69-1.44
			c-0.34-0.55-0.75-0.96-1.37-1.17l-0.82-0.21c-0.14,0-0.21,0.07-0.34,0.07C187.81,14.53,187.74,14.67,187.74,14.81z M199.19,9.46
			c0-0.07-0.07-0.14-0.14-0.21c-0.55-0.68-1.17-1.3-1.85-1.78l-0.41-0.34c-0.14-0.07-0.14-0.21-0.14-0.34
			c0.07-0.14,0.21-0.14,0.34-0.14h0.27c0.27,0.21,0.55,0.34,0.75,0.55c0.62,0.55,1.17,1.03,1.58,1.71c0.14,0.14,0.21,0.27,0.34,0.34
			c0,0.07,0.14,0.07,0.14,0.07c0.34,0,0.69-0.07,1.03-0.14c0.07,0,0.07-0.14,0.07-0.14c0-0.14,0-0.21-0.07-0.27
			c-0.41-0.48-0.75-1.03-1.17-1.44c-0.62-0.62-1.23-1.17-1.99-1.65s-1.58-0.76-2.33-1.03c-0.14-0.07-0.21-0.07-0.27-0.07
			c-0.21,0-0.27,0.07-0.27,0.2v0.34c0.07,0.27,0.14,0.55,0.14,0.82c0.14,0.89,0.41,1.65,0.75,2.47c0.34,0.62,0.69,1.23,1.03,1.92
			c0.07,0.07,0.14,0.14,0.21,0.27h0.14c0.41-0.21,0.75-0.48,1.17-0.69c0.21-0.14,0.41-0.21,0.62-0.27
			C199.26,9.6,199.26,9.53,199.19,9.46z M198.99,28.38c0-1.44,0-2.88-0.07-4.32v-0.21c0-0.48-0.07-0.89-0.07-1.37
			c0-0.75,0.07-1.44,0.07-2.19c-0.07-1.23-0.14-2.54-0.14-3.77v-2.54c0-1.03,0.07-2.12-0.07-3.15c0-0.2-0.07-0.2-0.21-0.14
			c-0.62,0.34-1.23,0.69-1.71,1.3c-0.48,0.62-0.96,1.3-1.17,2.06c-0.14,0.55-0.21,1.1-0.27,1.65c-0.07,0.14,0,0.27-0.07,0.41
			c-0.14,0.27-0.14,0.48-0.14,0.75c0.07,0.34,0.07,0.69,0.14,1.03c0,1.1-0.07,2.12,0.07,3.22v0.76c-0.07,0.75-0.07,1.51-0.07,2.26
			v2.74c0,0.55,0,1.1,0,1.58c0,0.48,0,0.96,0.07,1.37c0.07,1.03-0.07,2.06,0,3.02c0,0.89-0.07,1.78-0.07,2.68
			c0,0.75,0.07,1.44,0.07,2.12v2.67c0,0.07,0,0.14,0,0.21c0,0.34,0,0.69-0.07,1.03v2.47c0,1.51-0.07,3.02,0,4.53v1.51
			c-0.07,1.37-0.07,2.95,0.07,4.32c0,0.27,0,0.27,0.34,0.27c0.69-0.07,1.37-0.07,2.13-0.07h0.62c0.14,0,0.21-0.07,0.21-0.2
			l0.07-2.54c0-0.89,0.07-1.78,0.07-2.6c0-0.75,0.07-1.51,0.07-2.26v-1.37c0-1.65,0-3.22,0-4.87c0-1.44,0-4.39,0.07-4.39v-1.03
			c0-0.96,0-1.92,0-2.88C198.99,31.06,198.99,29.75,198.99,28.38z M203.38,24.47c0-1.03-0.07-2.06-0.07-3.09
			c-0.07-0.96,0-1.85-0.07-2.81c0-1.17,0-2.26-0.07-3.36c0-1.17-0.07-2.4-0.07-3.56c-0.07-0.48-0.07-0.96-0.07-1.44
			c0-0.34,0-0.34-0.34-0.41c-0.62-0.07-1.23,0-1.85,0.07c-0.41,0.07-0.82,0.14-1.23,0.34c-0.14,0.07-0.21,0.14-0.21,0.34
			c0.07,0.55,0.07,1.17,0.07,1.78v1.99c0,0.69-0.07,1.37,0,2.06c0,0.68,0.14,1.44,0.14,2.12v0.76c0,0.41,0,0.82,0,1.17v1.3
			c0,0.96,0,1.85,0,2.81v3.22c0,0.41,0,0.82,0,1.23v5.28c0,0.96-0.07,1.92-0.07,2.88v3.91c0,0.27-0.07,0.55-0.07,0.89
			c0.07,1.23,0.07,2.47,0.07,3.7c0,0.96-0.07,1.99-0.07,2.95c-0.07,0.55,0,1.1-0.07,1.64c0,0.96,0,1.85-0.07,2.81v1.37
			c0,0.14,0.07,0.2,0.14,0.2h0.21c1.1-0.07,2.19,0,3.36-0.07c0.14,0,0.21-0.07,0.21-0.2l0.07-0.55c0-1.23,0-2.67-0.07-3.91V47.3
			c0-1.44,0-2.95,0-4.46c0-0.89,0.07-1.78,0.07-2.74c0-1.23-0.07-2.4-0.07-3.63c0-1.58,0.07-3.15,0.07-4.73
			C203.38,29.27,203.38,26.87,203.38,24.47z M199.6,6.1l1.23,1.23c0.07,0.14,0.21,0.21,0.34,0.34c0.07-0.21,0.07-0.34,0.14-0.48
			V6.85c-0.07-0.48-0.07-1.44-0.07-1.44c-0.07-0.34-0.07-0.68-0.07-1.03V4.18c0.07-0.14,0.14-0.27,0.34-0.27
			c0.14,0,0.27,0.07,0.27,0.21c0.07,0.14,0.07,0.27,0.07,0.41c0.07,0.62,0.07,1.17,0.07,1.78c0,0.34,0,0.69,0.07,1.03v0.14
			c0.07,0,0.07,0,0.14-0.07c0.48-0.76,1.03-1.44,1.58-2.06c0.14-0.14,0.14-0.21,0.14-0.34c-0.14-0.41-0.27-0.82-0.55-1.17
			c-0.21-0.34-0.41-0.68-0.55-1.03c-0.34-0.62-0.82-1.03-1.23-1.51c-0.07-0.14-0.14-0.07-0.27,0c-0.21,0.34-0.55,0.68-0.69,1.03
			c-0.14,0.41-0.34,0.82-0.55,1.17c-0.14,0.34-0.21,0.62-0.27,0.89c-0.14,0.41-0.14,0.82-0.27,1.17C199.4,5.76,199.47,5.9,199.6,6.1
			z M203.58,9.05l0.41-0.76c0.41-0.68,0.89-1.23,1.44-1.78l0.14-0.14c0.14-0.14,0.27-0.14,0.48,0.07c0.14,0.14,0.14,0.21,0,0.34
			c-0.07,0.14-0.14,0.21-0.27,0.27c-0.55,0.62-1.1,1.23-1.44,2.06c-0.14,0.34-0.14,0.34,0.21,0.55l0.82,0.41
			c0.14,0.07,0.27,0.34,0.41,0.27c0.14-0.07,0.21-0.34,0.27-0.48l0.21-0.34c0.21-0.48,0.41-0.96,0.62-1.44l0.41-1.85
			c0.14-0.69,0.21-1.3,0.21-1.71c0.07-0.89,0-0.89-0.55-0.69l-0.41,0.21c-0.62,0.41-1.3,0.69-1.78,1.3
			c-0.55,0.34-0.89,0.89-1.3,1.37c-0.48,0.48-0.82,1.1-1.03,1.78c-0.27,0.62-0.14,0.62,0.34,0.69h0.48
			C203.44,9.25,203.51,9.19,203.58,9.05z M207.83,30.23c-0.07-0.89-0.07-1.78-0.07-2.67c0-0.21,0.07-0.48,0.07-0.76v-1.58
			c0-0.62,0-1.17,0-1.78c-0.07-1.03-0.07-2.06-0.07-3.02v-3.84c-0.07-1.03-0.27-1.99-0.62-2.95c-0.21-0.75-0.75-1.37-1.23-1.99
			c-0.41-0.69-1.1-1.1-1.78-1.44c-0.07-0.07-0.21-0.07-0.27-0.14c-0.07,0-0.14,0.07-0.14,0.07v0.21c0,0.96,0,1.92,0,2.88
			c0.07,0.68,0.07,1.37,0.14,2.06c0.07,1.51,0.14,3.02,0.14,4.59c0,1.92,0.07,3.91,0.07,5.83c0,1.03-0.07,2.06-0.07,3.09v4.11
			c0,1.03-0.07,1.99-0.07,2.95c0,0.96,0.07,1.85,0.07,2.74c0,1.58,0,3.22-0.07,4.8v2.54c0,0.69,0.07,1.3,0.07,1.99v2.95
			c0,0,0,0.75,0,1.1v2.26c0,0.27,0.07,0.34,0.34,0.34h1.23c0.55,0,1.17,0,1.71,0c0.14,0,0.27-0.07,0.27-0.2v-1.85
			c0-0.62-0.07-1.23-0.07-1.78c0-0.62,0-1.17,0.07-1.78c0-2.06,0.07-4.11,0.21-6.24c0.07-0.82,0.14-1.71,0.07-2.61
			c-0.07-0.62-0.07-1.3-0.07-1.99v-3.43c0-0.75,0.07-1.51,0.07-2.26C207.83,31.67,207.9,30.99,207.83,30.23z M223.94,12.27
			c0-0.89-0.07-1.85-0.07-2.88c0-0.62-0.21-1.23-0.34-1.85c-0.14-0.48-0.41-0.82-0.62-1.24c-0.14-0.41-0.41-0.75-0.69-1.03
			c-0.48-0.48-0.89-0.82-1.58-0.82c-0.21,0.07-0.41-0.07-0.62-0.07c-0.14-0.07-0.21,0-0.21,0.21v0.2c0,0.82,0.07,1.65,0.07,2.47
			v2.19c0,0.21,0,0.48,0,0.69c0,0.62,0,1.17,0.07,1.78c0.07,0.89,0.07,1.78,0,2.74c0,1.23,0,2.47-0.07,3.63
			c-0.07,0.89-0.07,1.78-0.27,2.6c-0.14,0.76-0.21,1.58-0.34,2.33c-0.14,0.82-0.34,1.65-0.82,2.4l-0.62,1.23
			c-0.14,0.21-0.21,0.41-0.41,0.62c-0.27,0.41-0.55,0.75-0.89,1.17c-0.27,0.34-0.62,0.69-0.96,1.03l-0.14,0.14
			c-0.48,0.41-1.17,0.69-1.71,1.03l-1.3,0.62c-0.27,0.14-0.62,0.34-0.96,0.41c-0.55,0.21-1.03,0.27-1.51,0.48
			c-0.41,0.07-0.75,0.27-1.17,0.41c-0.27,0.07-0.27,0.07-0.27,0.34c0,0.62,0,1.17-0.07,1.78c0,0.48,0,0.55,0.55,0.48
			c1.03,0,2.06,0,3.15-0.07c1.51-0.07,2.88-0.55,4.25-1.24c0.96-0.41,1.78-1.03,2.54-1.78c0.21-0.14,0.41-0.34,0.55-0.48
			c0.21-0.21,0.41-0.48,0.62-0.62c0.62-0.62,1.17-1.3,1.58-2.06c0.27-0.62,0.55-1.23,0.69-1.92c0.27-0.89,0.55-1.71,0.62-2.6
			c0.14-0.96,0.21-1.92,0.27-2.81c0.07-0.82,0.07-1.58,0.14-2.4c0.14-1.24,0.27-2.47,0.34-3.7
			C223.87,14.6,223.87,13.51,223.94,12.27z M208.45,29.34c0,0.48,0.07,0.96,0.07,1.44v0.96c0,0.27,0.14,0.34,0.34,0.27l1.99-0.62
			c0.89-0.27,1.71-0.68,2.54-1.17c0.69-0.34,1.37-0.68,1.85-1.3l0.14-0.14c0.34-0.21,0.62-0.55,0.89-0.89
			c0.62-0.62,0.96-1.44,1.44-2.19c0.55-0.89,0.75-1.85,0.96-2.81c0.14-0.75,0.21-1.51,0.34-2.19l0.21-2.81
			c0-1.03,0.07-2.13,0.07-3.15c0.07-1.03,0.07-2.13,0-3.15c-0.07-0.48-0.07-0.96-0.07-1.44V8.02c0,0,0-1.78-0.07-2.6
			c0-0.34-0.07-0.62-0.07-0.96c-0.34,0-0.69,0.07-1.03,0.07c-0.14,0-0.27,0.07-0.34,0.14c-0.41,0.2-0.82,0.41-1.17,0.68
			c-0.48,0.34-0.89,0.69-1.23,1.17c-0.27,0.34-0.48,0.76-0.62,1.23c0,0.34-0.07,0.69-0.14,0.96c-0.14,0.82-0.21,1.71-0.14,2.54
			c0.21,1.3,0.07,2.67,0.07,3.98c-0.07,1.65-0.14,3.29-0.14,5.01v0.55c0.14,1.1,0,2.19-0.27,3.22c-0.14,0.62-0.34,1.17-0.75,1.65
			c-0.07,0.07-0.21,0.21-0.27,0.34c-0.14,0.41-0.48,0.69-0.82,0.96c-0.75,0.62-1.51,1.1-2.4,1.37c-0.34,0.07-0.69,0.21-1.03,0.34
			c-0.21,0.07-0.34,0.21-0.34,0.48V29.34z"/>
	</g>
</g>
</svg>
