<?xml version="1.0" encoding="utf-8"?>
<!-- Generator: Adobe Illustrator 24.0.0, SVG Export Plug-In . SVG Version: 6.00 Build 0)  -->
<svg version="1.1" id="Capa_1" xmlns="http://www.w3.org/2000/svg" xmlns:xlink="http://www.w3.org/1999/xlink" x="0px" y="0px"
	 viewBox="0 0 1609 35" style="enable-background:new 0 0 1609 35;" xml:space="preserve">
<style type="text/css">
	.st0{fill:none;stroke:#B5D9EA;stroke-width:3;stroke-miterlimit:10;}
	.st1{fill:#B5D9EA;}
</style>
<g>
	<line class="st0" x1="0.31" y1="20" x2="1329.31" y2="20"/>
	<g>
		<path class="st1" d="M1376.74,1.38c-1.98,0-3.35,0.25-4.09,0.76c-0.3,0.24-0.59,0.59-0.87,1.07c-0.28,0.47-0.51,1.07-0.69,1.78
			c-0.15,0.5-0.24,1.04-0.29,1.62c-0.04,0.58-0.1,1.18-0.16,1.8l-0.13,1.42h-0.44l0.27-9.2h24.44l0.27,9.2h-0.49
			c0-1.96-0.13-3.47-0.4-4.55s-0.74-1.9-1.42-2.47c-0.33-0.3-0.68-0.54-1.07-0.73c-0.39-0.19-0.84-0.34-1.35-0.44
			c-0.52-0.1-1.13-0.17-1.84-0.2c-0.71-0.03-1.56-0.04-2.53-0.04h-0.22v29.28h2.04v0.67h-9.82v-0.67h1.73V1.38H1376.74z"/>
		<path class="st1" d="M1413.97,22.04v9.29h-20.57v-0.67h2.09V1.38h-2.09V0.62h10.31v0.76h-2.53v29.28h4.09
			c0.86,0,1.66-0.01,2.4-0.04c0.74-0.03,1.39-0.07,1.96-0.13c1.3-0.15,2.28-1.23,2.93-3.24c0.24-0.95,0.43-1.86,0.58-2.73
			c0.15-0.87,0.22-1.7,0.22-2.47H1413.97z"/>
		<path class="st1" d="M1438.59,31.33h-10.09v-0.67h2.04v-0.27l-3.33-8.89v-0.18h-9.78v0.18l-3.11,8.89v0.27h2.31v0.67h-4.93v-0.71
			l1.42,0.04h0.22v-0.18l10.75-29.86h1.6l11.29,29.86v0.18h1.6V31.33z M1426.77,20.26l-4.27-11.77h-0.44
			c-0.71,1.95-1.42,3.92-2.13,5.89s-1.38,3.93-2,5.89v0.31h8.84V20.26z"/>
		<path class="st1" d="M1455.56,22.04v9.29h-20.57v-0.67h2.09V1.38h-2.09V0.62h10.31v0.76h-2.53v29.28h4.09
			c0.86,0,1.66-0.01,2.4-0.04c0.74-0.03,1.39-0.07,1.96-0.13c1.3-0.15,2.28-1.23,2.93-3.24c0.24-0.95,0.43-1.86,0.58-2.73
			c0.15-0.87,0.22-1.7,0.22-2.47H1455.56z"/>
		<path class="st1" d="M1456.5,3.29c1.13-0.95,2.32-1.62,3.58-2.02c1.26-0.4,2.55-0.6,3.89-0.6c1.24,0,2.48,0.16,3.71,0.47
			c1.23,0.31,2.42,0.75,3.58,1.31c1.16,0.56,2.24,1.24,3.27,2.02c1.02,0.79,1.93,1.67,2.73,2.64c1.21,1.6,2.15,3.35,2.8,5.24
			c0.65,1.9,0.98,3.88,0.98,5.95c0,1.99-0.36,3.87-1.07,5.64c-0.71,1.78-1.87,3.36-3.47,4.75c-1.1,0.89-2.31,1.53-3.64,1.93
			c-1.33,0.4-2.71,0.6-4.13,0.6c-2.52,0-4.96-0.59-7.33-1.78c-1.13-0.56-2.18-1.27-3.18-2.11c-0.99-0.84-1.87-1.78-2.64-2.82
			c-1.13-1.39-2-3.02-2.62-4.89s-0.93-3.81-0.93-5.82c0-2.07,0.36-4.04,1.07-5.89C1453.78,6.08,1454.93,4.53,1456.5,3.29z
			 M1456.9,3.82c-0.83,0.71-1.43,1.47-1.8,2.29c-0.37,0.82-0.56,1.7-0.56,2.64c0,1.04,0.19,2.13,0.58,3.27
			c0.38,1.14,0.86,2.26,1.42,3.36c0.56,1.1,1.18,2.13,1.84,3.11c0.67,0.98,1.3,1.82,1.89,2.53c0.62,0.83,1.38,1.73,2.27,2.71
			s1.85,1.89,2.89,2.73c1.04,0.84,2.13,1.55,3.27,2.11c1.14,0.56,2.27,0.84,3.4,0.84c0.68,0,1.35-0.13,2-0.38
			c0.65-0.25,1.3-0.61,1.95-1.09c1.48-1.24,2.22-2.81,2.22-4.71c0-1.3-0.3-2.59-0.89-3.87c-0.56-1.39-1.27-2.73-2.11-4.02
			s-1.67-2.44-2.47-3.44l-0.58-0.98l-1.02-1.11c-0.77-0.83-1.64-1.73-2.6-2.69c-0.96-0.96-2.02-1.83-3.18-2.6
			c-0.83-0.59-1.67-1.07-2.53-1.42c-0.86-0.36-1.75-0.53-2.67-0.53C1459.1,2.58,1457.99,2.99,1456.9,3.82z"/>
		<path class="st1" d="M1508.61,34.48c-1.1,0.38-2.07,0.56-2.93,0.51c-0.86-0.04-1.63-0.27-2.31-0.67c-0.68-0.4-1.27-0.94-1.78-1.62
			c-0.5-0.68-0.93-1.48-1.29-2.4c-0.8,0.27-1.57,0.47-2.31,0.62c-0.74,0.15-1.5,0.24-2.27,0.27c-1.33,0.06-2.68-0.11-4.04-0.51
			c-1.36-0.4-2.67-0.96-3.91-1.69c-1.24-0.73-2.41-1.58-3.49-2.58c-1.08-0.99-2.02-2.05-2.82-3.18c-0.8-1.13-1.46-2.39-1.98-3.8
			c-0.52-1.41-0.82-2.81-0.91-4.2c-0.09-1.24-0.03-2.48,0.18-3.71c0.21-1.23,0.53-2.4,0.98-3.51s1.02-2.13,1.73-3.04
			c0.71-0.92,1.54-1.69,2.49-2.31c1.9-1.21,3.91-1.87,6.04-1.95c1.36-0.03,2.72,0.13,4.07,0.49c1.35,0.36,2.64,0.87,3.89,1.53
			c1.24,0.67,2.42,1.48,3.53,2.44c1.11,0.96,2.1,2.02,2.95,3.18c0.89,1.33,1.58,2.72,2.07,4.15c0.49,1.44,0.78,2.91,0.87,4.42
			c0.03,0.21,0.04,0.43,0.04,0.67s0,0.46,0,0.67c0,1.87-0.34,3.66-1.02,5.38c-0.68,1.72-1.7,3.27-3.07,4.67
			c0.15,0.33,0.27,0.82,0.38,1.47c0.1,0.65,0.31,1.29,0.62,1.91c0.31,0.62,0.77,1.13,1.38,1.51c0.61,0.38,1.49,0.49,2.64,0.31
			L1508.61,34.48z M1484.35,3.2c-1.1,0.74-1.84,1.63-2.24,2.67c-0.4,1.04-0.56,2.12-0.47,3.24c0.06,0.86,0.24,1.76,0.56,2.71
			c0.31,0.95,0.69,1.88,1.13,2.8c0.44,0.92,0.91,1.81,1.4,2.67c0.49,0.86,0.96,1.64,1.4,2.35c0.65,0.95,1.31,1.87,1.98,2.78
			c0.67,0.9,1.38,1.79,2.16,2.64c0.21-0.65,0.43-1.22,0.67-1.71c0.24-0.49,0.51-0.91,0.82-1.27c0.31-0.36,0.69-0.64,1.13-0.87
			c0.44-0.22,0.98-0.39,1.6-0.51c2.01-0.21,3.68,0.27,5,1.42c1.32,1.16,2.48,2.89,3.49,5.2c0.86-1.6,1.22-3.32,1.09-5.15
			c-0.13-1.84-0.6-3.65-1.4-5.44c-0.8-1.79-1.84-3.52-3.13-5.2c-1.29-1.67-2.66-3.17-4.11-4.49c-1.45-1.32-2.91-2.4-4.38-3.24
			c-1.47-0.84-2.76-1.34-3.89-1.49C1486.15,2.31,1485.21,2.61,1484.35,3.2z M1490.84,25.68c0.5,0.56,1.16,1.14,1.95,1.73
			c0.8,0.59,1.56,1.07,2.27,1.42c0.65,0.3,1.39,0.53,2.22,0.71c0.83,0.18,1.61,0.1,2.35-0.22h0.13c-0.44-1.21-0.93-2.27-1.44-3.15
			c-0.52-0.89-1.03-1.62-1.53-2.2c-0.5-0.58-0.98-1.01-1.44-1.29c-0.46-0.28-0.87-0.42-1.22-0.42c-0.56-0.03-1.03,0.05-1.4,0.24
			c-0.37,0.19-0.67,0.44-0.91,0.76c-0.24,0.31-0.42,0.65-0.56,1.02c-0.13,0.37-0.24,0.7-0.33,1c-0.09,0.06-0.13,0.15-0.13,0.27
			L1490.84,25.68z"/>
		<path class="st1" d="M1533.5,0.62v0.8h-2.18v8.13c0,1.33,0.01,2.64,0.02,3.93c0.01,1.29,0.02,2.6,0.02,3.93
			c0,0.83-0.02,1.77-0.07,2.82c-0.04,1.05-0.19,2.12-0.42,3.2c-0.24,1.08-0.59,2.13-1.07,3.16c-0.47,1.02-1.13,1.93-1.95,2.73
			c-0.83,0.8-1.88,1.44-3.15,1.93c-1.27,0.49-2.81,0.73-4.62,0.73c-1.93,0-3.68-0.19-5.27-0.58c-1.58-0.38-2.94-1.04-4.07-1.95
			c-1.13-0.92-2.01-2.16-2.67-3.71c-0.65-1.56-1.01-3.5-1.07-5.84V1.42h-2.04v-0.8h10.62v0.8h-2.09v18.35
			c0,1.42,0.11,2.79,0.33,4.11c0.22,1.32,0.61,2.49,1.18,3.51c0.56,1.02,1.34,1.84,2.33,2.47c0.99,0.62,2.27,0.93,3.84,0.93
			c1.81,0,3.32-0.37,4.55-1.11c1.23-0.74,2.2-1.74,2.91-3c0.71-1.26,1.21-2.71,1.49-4.35c0.28-1.64,0.39-3.35,0.33-5.13l0.13-15.55
			V1.42h-1.91v-0.8H1533.5z"/>
		<path class="st1" d="M1530.43,0.62h9.24v0.76h-1.95v29.28h1.95v0.67h-9.24v-0.67h1.82V1.38h-1.82V0.62z"/>
		<path class="st1" d="M1561,31.33l-19.2-27.06h-0.4v26.39h2.13v0.67h-4.98v-0.67h2V1.38h-2V0.62h8.13l15.33,21.82h0.4V1.42h-2v-0.8
			h5.11v0.8h-2.09v29.9H1561z"/>
		<path class="st1" d="M1577.13,30.53c3.88,0,6.27-0.36,7.15-1.07c0.98-0.71,1.64-1.58,2-2.62c0.44-1.16,0.67-2.67,0.67-4.53h0.84
			v9.02h-23.37v-0.67h1.87V1.38h-1.87V0.62h22.57l0.71,7.55h-0.49c-0.36-4.32-1.81-6.53-4.35-6.62c-2.28-0.09-4.21-0.13-5.78-0.13
			h-4.71V15.2h1.78c1.18,0,2.21-0.04,3.09-0.11c0.87-0.07,1.61-0.28,2.2-0.62c0.59-0.34,1.04-0.87,1.33-1.6
			c0.3-0.73,0.44-1.74,0.44-3.04h0.49v11.64h-0.49c0-1.18-0.13-2.13-0.38-2.82c-0.25-0.7-0.61-1.22-1.07-1.58
			c-0.46-0.36-1.01-0.58-1.67-0.69c-0.65-0.1-1.38-0.16-2.18-0.16h-3.55v14.31H1577.13z"/>
		<path class="st1" d="M1608.68,22.13c0.06,1.45-0.16,2.76-0.67,3.93c-0.5,1.17-1.21,2.17-2.11,3c-0.9,0.83-1.99,1.47-3.27,1.91
			c-1.27,0.44-2.67,0.67-4.18,0.67c-1.16,0-2.21-0.11-3.15-0.33c-0.95-0.22-1.84-0.52-2.67-0.89c-0.83-0.37-1.6-0.78-2.31-1.24
			c-0.71-0.46-1.41-0.93-2.09-1.4h-0.36v3.55h-0.93l0.04-11.29h0.76c0.09,1.51,0.36,2.91,0.82,4.2c0.46,1.29,1.13,2.4,2,3.33
			c0.87,0.93,1.97,1.66,3.29,2.18c1.32,0.52,2.9,0.78,4.73,0.78c0.98,0,1.87-0.1,2.69-0.31c0.81-0.21,1.53-0.51,2.13-0.91
			c0.61-0.4,1.08-0.87,1.42-1.4c0.34-0.53,0.51-1.14,0.51-1.82c0-0.47-0.09-0.92-0.27-1.33c-0.12-0.36-0.37-0.7-0.76-1.04
			c-0.39-0.34-0.87-0.66-1.44-0.96c-0.58-0.3-1.22-0.58-1.93-0.87c-0.71-0.28-1.45-0.56-2.22-0.82l-1.11-0.49
			c-1.24-0.47-2.51-1.01-3.8-1.6c-1.29-0.59-2.44-1.32-3.47-2.18c-1.02-0.86-1.86-1.88-2.51-3.07c-0.65-1.18-0.98-2.62-0.98-4.31
			c0-1.39,0.26-2.66,0.78-3.8c0.52-1.14,1.23-2.12,2.13-2.93c0.9-0.81,1.96-1.45,3.18-1.91c1.21-0.46,2.53-0.72,3.95-0.78
			c1.39-0.03,2.8,0.22,4.22,0.76c1.42,0.53,3.02,1.53,4.8,2.98h0.36V1.69h0.8v8.22h-0.8c-0.27-1.33-0.62-2.55-1.07-3.64
			s-1.04-2.04-1.78-2.84c-0.74-0.8-1.66-1.41-2.75-1.84c-1.1-0.43-2.41-0.64-3.95-0.64c-1.01,0-1.96,0.13-2.84,0.38
			c-0.89,0.25-1.67,0.62-2.33,1.09c-0.67,0.47-1.19,1.06-1.58,1.76c-0.39,0.7-0.59,1.5-0.62,2.42c0.18,0.68,0.49,1.29,0.93,1.82
			s1,1.01,1.67,1.44c0.67,0.43,1.41,0.81,2.22,1.15c0.81,0.34,1.68,0.67,2.6,1l0.67,0.27c1.1,0.41,2.27,0.9,3.51,1.47
			c1.24,0.56,2.41,1.24,3.51,2.02c1.1,0.79,2.03,1.7,2.8,2.76C1608.02,19.56,1608.5,20.77,1608.68,22.13z"/>
	</g>
</g>
</svg>
