<?xml version="1.0" encoding="utf-8"?>
<!-- Generator: Adobe Illustrator 24.0.0, SVG Export Plug-In . SVG Version: 6.00 Build 0)  -->
<svg version="1.1" id="Capa_1" xmlns="http://www.w3.org/2000/svg" xmlns:xlink="http://www.w3.org/1999/xlink" x="0px" y="0px"
	 viewBox="0 0 467 86" style="enable-background:new 0 0 467 86;" xml:space="preserve">
<style type="text/css">
	.st0{fill:#ED4040;}
</style>
<g>
	<path class="st0" d="M17.24,84.36L9.44,2.82H1.4L0.34,1.64h22.1l1.06,1.18c-4.73,0-7.21,2.36-8.51,4.61l6.38,70.31L68.41,2.82
		h-8.86l-1.06-1.18h19.03l1.06,1.18c-7.56,0-13,6.97-14.3,8.86L18.54,84.36H17.24z"/>
	<path class="st0" d="M149.11,3.41l-1.89,16.42l-0.95,0.35c-1.89-15.48-7.92-17.84-25.52-17.84c-15.6,0-33.44,11.58-40.53,28.95
		c4.37-4.49,10.4-7.09,16.31-7.09l18.55,2.01l4.14,16.19l-0.95,0.35c-3.78-12.05-10.52-16.66-23.99-17.13
		c-6.74-0.24-14.42,5.79-16.54,17.13h-0.47c-2.36,19.26,6.5,41.48,29.42,41.48c9.69,0,17.73-3.9,27.89-18.44l0.71,0.35l-7.21,16.43
		c-5.32,0.35-15.24,2.95-23.75,2.95c-24.7,0-37.7-21.15-30.96-46.32C79.63,15.7,100.9,1.17,123.7,0.58
		C132.8,0.34,140.72,3.06,149.11,3.41z"/>
	<path class="st0" d="M141.42,83.06c8.51,0,10.75-9.22,10.75-9.22L171.2,2.82h-7.92l-0.95-1.18h21.27l1.18,1.18h-3.31
		c-2.01,0-3.78,0.47-5.2,1.18l24.93,73.97c0.71-1.06,1.18-2.13,1.06-1.42c5.56-21.39,17.14-65.47,18.32-73.74h-7.68l-0.94-1.18
		h19.85l1.06,1.18c-9.22,0-12.41,10.4-12.53,10.99l-18.55,69.25h7.68l1.18,1.3h-20.33l-1.06-1.3h3.31c1.89,0,3.43-0.47,4.73-1.18
		L172.5,6.96c-1.3,1.54-1.89,3.07-2.13,3.43c-5.2,19.97-16.54,64.05-17.49,72.67h7.45l1.18,1.3h-19.14L141.42,83.06z"/>
	<path class="st0" d="M306.5,3.41l-1.89,16.42l-0.95,0.35c-1.89-15.48-7.92-17.84-25.52-17.84c-15.6,0-33.44,11.58-40.53,28.95
		c4.37-4.49,10.4-7.09,16.31-7.09l18.55,2.01l4.14,16.19l-0.95,0.35c-3.78-12.05-10.52-16.66-23.99-17.13
		c-6.74-0.24-14.42,5.79-16.54,17.13h-0.47c-2.36,19.26,6.5,41.48,29.42,41.48c9.69,0,17.73-3.9,27.89-18.44l0.71,0.35l-7.21,16.43
		c-5.32,0.35-15.24,2.95-23.75,2.95c-24.7,0-37.7-21.15-30.96-46.32c6.26-23.52,27.53-38.05,50.34-38.64
		C290.19,0.34,298.11,3.06,306.5,3.41z"/>
	<path class="st0" d="M298.82,83.06c8.51,0,10.75-9.22,10.75-9.22l19.03-71.02h-7.92l-0.95-1.18H341l1.18,1.18h-3.31
		c-2.01,0-3.78,0.47-5.2,1.18l24.93,73.97c0.71-1.06,1.18-2.13,1.06-1.42c5.55-21.39,17.14-65.47,18.32-73.74h-7.68l-0.94-1.18
		h19.85l1.06,1.18c-9.22,0-12.41,10.4-12.53,10.99L359.2,83.06h7.68l1.18,1.3h-20.33l-1.06-1.3h3.31c1.89,0,3.43-0.47,4.73-1.18
		L329.89,6.96c-1.3,1.54-1.89,3.07-2.13,3.43c-5.2,19.97-16.54,64.05-17.49,72.67h7.45l1.18,1.3h-19.14L298.82,83.06z"/>
	<path class="st0" d="M465.07,43c-6.38,23.52-29.78,42.54-52.7,42.54c-23.04,0-36.39-18.91-30.01-42.54
		c6.14-23.28,30.25-42.54,52.82-42.54C458.57,0.46,471.34,19.25,465.07,43z M387.08,43.83c-7.56,22.33,3.78,39.94,23.16,39.94
		c22.57,0,42.66-17.61,49.98-41.71c7.09-22.81-3.07-39.71-23.4-39.71C414.61,2.35,394.17,22.91,387.08,43.83z"/>
</g>
</svg>
