<?xml version="1.0" encoding="utf-8"?>
<!-- Generator: Adobe Illustrator 24.0.0, SVG Export Plug-In . SVG Version: 6.00 Build 0)  -->
<svg version="1.1" id="Capa_1" xmlns="http://www.w3.org/2000/svg" xmlns:xlink="http://www.w3.org/1999/xlink" x="0px" y="0px"
	 viewBox="0 0 626 100" style="enable-background:new 0 0 626 100;" xml:space="preserve">
<style type="text/css">
	.st0{fill:#A3BAFF;}
</style>
<g>
	<path class="st0" d="M0,7.32h7.11V25.1H0V7.32z M35.57,14.43h10.67v7.11H28.46v-7.11H17.79V7.32H7.11V0.2H24.9v7.11h10.67V14.43z
		 M39.13,92.68h14.23v7.11H24.9v-7.11h7.11V82.01h7.11V67.79h7.11V57.11h7.11V42.89h7.11V28.66h7.11V17.99h7.11V7.32H53.35V0.2
		h35.57v7.11h-7.11V25.1H74.7v10.67h-7.11v17.78h-7.11v10.67h-7.11v14.23h-7.11v7.11h-7.11V92.68z M46.24,7.32h7.11v7.11h-7.11V7.32
		z M60.47,71.34h7.11v14.23h-7.11v7.11h-7.11V82.01h7.11V71.34z M67.58,57.11h7.11v14.23h-7.11V57.11z M74.7,42.89h7.11v14.23H74.7
		V42.89z M96.04,92.68h14.23v7.11H81.81V89.13h7.11V78.46h7.11V67.79h7.11V57.11h7.11V42.89h7.11V28.66h7.11V17.99h7.11V7.32h-7.11
		v7.11h-7.11v7.11h-14.23v-7.11h7.11V7.32h7.11V0.2h21.34v24.9h-7.11v10.67h-7.11V50h-7.11v10.67h-7.11v17.79h-7.11v10.67h-7.11
		V92.68z M81.81,35.77h7.11v7.11h-7.11V35.77z M88.92,28.66h7.11v7.11h-7.11V28.66z M96.04,21.54h7.11v7.11h-7.11V21.54z
		 M117.38,71.34h7.11v14.23h-7.11v7.11h-7.11V82.01h7.11V71.34z M124.49,57.11h7.11v14.23h-7.11V57.11z M131.61,42.89h7.11v14.23
		h-7.11V42.89z M138.72,35.77h7.11v7.11h-7.11V35.77z M145.84,28.66h7.11v7.11h-7.11V28.66z M152.95,21.54h7.11v7.11h-7.11V21.54z
		 M195.63,0.2v7.11H181.4v7.11h-7.11v7.11h-14.23v-7.11h7.11V7.32h7.11V0.2H195.63z M167.18,35.77h7.11v7.11h-7.11V35.77z
		 M188.52,25.1h7.11v7.11h-7.11v3.56h-14.23v-7.11h14.23V25.1z M202.75,7.32V25.1h-7.11V7.32H202.75z"/>
	<path class="st0" d="M149.39,71.34v21.34h-7.11V71.34H149.39z M156.5,71.34h-7.11v-7.11h7.11V71.34z M149.39,92.68h21.34v7.11
		h-21.34V92.68z M156.5,57.11h21.34v7.12H156.5V57.11z M170.73,85.57h7.11v7.11h-7.11V85.57z M184.96,64.23v21.34h-7.11V64.23
		H184.96z"/>
	<path class="st0" d="M192.07,64.23h7.11v7.11h-7.11V64.23z M199.18,85.57h7.11V99.8h-14.23v-7.11h7.11V85.57z M213.41,64.23h7.11
		v7.11h-7.11v14.23h-7.11V64.23h-7.11v-7.12h14.23V64.23z M234.75,57.11v7.12h-14.23v-7.12H234.75z M234.75,85.57v7.11h7.11v7.11
		h-14.23V85.57H234.75z M241.87,85.57h-7.11V64.23h7.11V85.57z"/>
	<path class="st0" d="M256.09,71.34v21.34h-7.11V71.34H256.09z M263.21,71.34h-7.11v-7.11h7.11V71.34z M256.09,92.68h21.34v7.11
		h-21.34V92.68z M263.21,64.23v-7.12h21.34v7.12H263.21z M277.43,85.57h7.11v7.11h-7.11V85.57z M284.55,64.23h7.11v21.34h-7.11
		V64.23z M284.55,99.8v-7.11h14.23v7.11H284.55z M291.66,42.89h7.11v21.34h-7.11V42.89z M305.89,28.66v14.23h-7.11V28.66H305.89z"/>
	<path class="st0" d="M309.44,71.34h7.11v21.34h-7.11V71.34z M323.67,64.23v7.11h-7.11v-7.11H323.67z M316.56,99.8v-7.11h21.34v7.11
		H316.56z M345.01,71.34h-7.11v-7.11h-14.23v-7.12h21.34V71.34z M323.67,71.34h14.23v7.11h-14.23V71.34z"/>
	<path class="st0" d="M352.13,64.23h7.11v7.11h-7.11V64.23z M359.24,85.57h7.11V99.8h-14.23v-7.11h7.11V85.57z M373.47,64.23h7.11
		v7.11h-7.11v14.23h-7.11V64.23h-7.11v-7.12h14.23V64.23z M394.81,57.11v14.23h-7.11v-7.11h-7.11v-7.12H394.81z"/>
	<path class="st0" d="M401.92,64.23h7.11v7.11h-7.11V64.23z M416.15,78.46V64.23h-7.11v-7.12h14.23v21.34H416.15z M416.15,78.46
		v14.23h-7.11V78.46H416.15z M416.15,92.68h21.34v7.11h-21.34V92.68z M444.6,78.46v14.23h-7.11V78.46H444.6z M451.72,78.46h-7.11
		V57.11h7.11V78.46z M444.6,92.68h21.34v7.11H444.6V92.68z M458.83,64.23h7.11v7.11h-7.11V64.23z M480.17,78.46h-7.11V64.23h-7.11
		v-7.12h14.23V78.46z M465.95,78.46h7.11v14.23h-7.11V78.46z"/>
	<path class="st0" d="M487.28,92.68V71.34h7.11v21.34H487.28z M494.4,71.34v-7.11h7.11v7.11H494.4z M494.4,99.8v-7.11h21.34v7.11
		H494.4z M501.51,64.23v-7.12h21.34v7.12H501.51z M515.74,92.68v-7.11h7.11v7.11H515.74z M522.85,85.57V64.23h7.11v21.34H522.85z
		 M522.85,99.8v-7.11h14.23v7.11H522.85z M529.97,64.23v-7.12h7.11v7.12H529.97z"/>
	<path class="st0" d="M544.19,64.23h7.11v7.11h-7.11V64.23z M551.31,85.57h7.11V99.8h-14.23v-7.11h7.11V85.57z M565.53,64.23h7.11
		v7.11h-7.11v14.23h-7.11V64.23h-7.11v-7.12h14.23V64.23z M586.88,57.11v14.23h-7.11v-7.11h-7.11v-7.12H586.88z"/>
	<path class="st0" d="M590.43,71.34h7.11v21.34h-7.11V71.34z M604.66,64.23v7.11h-7.11v-7.11H604.66z M597.54,99.8v-7.11h21.34v7.11
		H597.54z M626,71.34h-7.11v-7.11h-14.23v-7.12H626V71.34z M604.66,71.34h14.23v7.11h-14.23V71.34z"/>
</g>
</svg>
